# Blender v2.82 (sub 7) OBJ File: 'atsf_crossing_track_middle_tracks.blend'
# www.blender.org
mtllib atsf_crossing_track_middle_tracks.mtl
o RAIL_RIGHT_Cube.010
v -0.500549 0.318300 -0.793649
v -0.500549 0.318300 -0.717649
v 0.499451 0.318300 -0.793649
v 0.499451 0.318300 -0.717649
v -0.500549 0.298300 -0.741649
v -0.500549 0.298300 -0.769649
v 0.499451 0.298300 -0.741649
v 0.499451 0.298300 -0.769649
v -0.500549 0.220300 -0.741649
v -0.500549 0.220300 -0.769649
v 0.499451 0.220300 -0.741649
v 0.499451 0.220300 -0.769649
v -0.500549 0.200300 -0.679649
v -0.500549 0.200300 -0.831649
v 0.499451 0.200300 -0.679649
v 0.499451 0.200300 -0.831649
v -0.500549 0.190300 -0.679649
v -0.500549 0.190300 -0.831649
v 0.499451 0.190300 -0.679649
v 0.499451 0.190300 -0.831649
v -0.500549 0.359300 -0.793649
v -0.500549 0.368300 -0.784649
v -0.500549 0.368300 -0.726649
v -0.500549 0.359300 -0.717649
v 0.499451 0.368300 -0.784649
v 0.499451 0.359300 -0.793649
v 0.499451 0.359300 -0.717649
v 0.499451 0.368300 -0.726649
v -0.500549 0.368300 -0.726649
v -0.500549 0.359300 -0.717649
v 0.499451 0.359300 -0.717649
v 0.499451 0.368300 -0.726649
vt 0.313955 0.999085
vt 0.339334 0.561505
vt 0.339334 0.999085
vt 0.158050 0.507260
vt 0.158050 0.532639
vt 0.136171 0.503322
vt 0.002272 0.532639
vt 0.002272 0.507260
vt 0.024151 0.536578
vt 0.245996 0.999085
vt 0.256498 0.561505
vt 0.256498 0.999085
vt 0.208088 0.561505
vt 0.226029 0.999085
vt 0.208088 0.999085
vt 0.093288 0.526076
vt 0.127420 0.513824
vt 0.127420 0.526076
vt 0.245996 0.561505
vt 0.235494 0.999085
vt 0.235494 0.561505
vt 0.032902 0.513824
vt 0.024151 0.503322
vt 0.136171 0.536578
vt 0.163075 0.999085
vt 0.190205 0.561505
vt 0.190205 0.999085
vt 0.067034 0.513824
vt 0.032902 0.526076
vt 0.135944 0.561505
vt 0.101813 0.999085
vt 0.101813 0.561505
vt 0.067682 0.999085
vt 0.101813 0.561505
vt 0.101813 0.999085
vt 0.080161 0.553206
vt 0.084537 0.486694
vt 0.084537 0.553206
vt 0.163074 0.561505
vt 0.135945 0.999085
vt 0.135944 0.561505
vt 0.093288 0.513824
vt 0.075785 0.486694
vt 0.067034 0.526076
vt 0.067682 0.561505
vt 0.001170 0.999085
vt 0.001170 0.561505
vt 0.080161 0.486694
vt 0.075785 0.553206
vt 0.265250 0.561505
vt 0.260874 0.999085
vt 0.260874 0.561505
vt 0.256498 0.999085
vt 0.260874 0.561505
vt 0.260874 0.999085
vt 0.343273 0.561505
vt 0.339334 0.999085
vt 0.339334 0.561505
vt 0.208088 0.999085
vt 0.190148 0.561505
vt 0.208088 0.561505
vt 0.308745 0.999085
vt 0.312683 0.561505
vt 0.312683 0.999085
vt 0.313955 0.561505
vt 0.154112 0.536578
vt 0.154112 0.503322
vt 0.006210 0.503322
vt 0.006210 0.536578
vt 0.245996 0.561505
vt 0.226029 0.561505
vt 0.245996 0.999085
vt 0.163075 0.561505
vt 0.135944 0.999085
vt 0.067682 0.561505
vt 0.080161 0.486694
vt 0.163075 0.999085
vt 0.067682 0.999085
vt 0.080161 0.553206
vt 0.265250 0.999085
vt 0.256498 0.561505
vt 0.343273 0.999085
vt 0.190148 0.999085
vt 0.308745 0.561505
vn 0.0000 1.0000 0.0000
vn 1.0000 0.0000 0.0000
vn -1.0000 0.0000 0.0000
vn 0.0000 -0.7682 -0.6402
vn 0.0000 0.0000 1.0000
vn 0.0000 -0.7682 0.6402
vn 0.0000 0.9517 -0.3070
vn 0.0000 0.0000 -1.0000
vn 0.0000 0.9517 0.3070
vn 0.0000 -1.0000 0.0000
vn 0.0000 0.7071 -0.7071
vn 0.0000 0.7071 0.7071
usemtl atsf_crossings
s off
f 25/1/1 23/2/1 28/3/1
f 25/4/2 28/5/2 3/6/2
f 23/7/3 22/8/3 2/9/3
f 8/10/4 1/11/4 3/12/4
f 4/13/5 24/14/5 2/15/5
f 11/16/2 8/17/2 7/18/2
f 5/19/6 4/20/6 2/21/6
f 6/22/3 2/9/3 1/23/3
f 7/18/2 3/6/2 4/24/2
f 16/25/7 10/26/7 12/27/7
f 10/28/3 5/29/3 6/22/3
f 12/30/8 6/31/8 8/32/8
f 9/33/5 7/34/5 5/35/5
f 19/36/2 16/37/2 15/38/2
f 13/39/9 11/40/9 9/41/9
f 15/38/2 12/42/2 11/16/2
f 14/43/3 9/44/3 10/28/3
f 18/45/10 19/46/10 17/47/10
f 18/48/3 13/49/3 14/43/3
f 20/50/8 14/51/8 16/52/8
f 17/53/5 15/54/5 13/55/5
f 26/56/11 22/57/11 25/58/11
f 1/59/8 26/60/8 3/61/8
f 30/62/12 32/63/12 29/64/12
f 25/1/1 22/65/1 23/2/1
f 27/66/2 4/24/2 28/5/2
f 4/24/2 3/6/2 28/5/2
f 3/6/2 26/67/2 25/4/2
f 21/68/3 1/23/3 22/8/3
f 1/23/3 2/9/3 22/8/3
f 2/9/3 24/69/3 23/7/3
f 8/10/4 6/70/4 1/11/4
f 4/13/5 27/71/5 24/14/5
f 11/16/2 12/42/2 8/17/2
f 5/19/6 7/72/6 4/20/6
f 6/22/3 5/29/3 2/9/3
f 7/18/2 8/17/2 3/6/2
f 16/25/7 14/73/7 10/26/7
f 10/28/3 9/44/3 5/29/3
f 12/30/8 10/74/8 6/31/8
f 9/33/5 11/75/5 7/34/5
f 19/36/2 20/76/2 16/37/2
f 13/39/9 15/77/9 11/40/9
f 15/38/2 16/37/2 12/42/2
f 14/43/3 13/49/3 9/44/3
f 18/45/10 20/78/10 19/46/10
f 18/48/3 17/79/3 13/49/3
f 20/50/8 18/80/8 14/51/8
f 17/53/5 19/81/5 15/54/5
f 26/56/11 21/82/11 22/57/11
f 1/59/8 21/83/8 26/60/8
f 30/62/12 31/84/12 32/63/12
o RAIL_LEFT_Cube.001
v -0.500549 0.318300 0.793649
v -0.500549 0.318300 0.717649
v 0.499451 0.318300 0.793649
v 0.499451 0.318300 0.717649
v -0.500549 0.298300 0.741649
v -0.500549 0.298300 0.769649
v 0.499451 0.298300 0.741649
v 0.499451 0.298300 0.769649
v -0.500549 0.220300 0.741649
v -0.500549 0.220300 0.769649
v 0.499451 0.220300 0.741649
v 0.499451 0.220300 0.769649
v -0.500549 0.200300 0.679649
v -0.500549 0.200300 0.831649
v 0.499451 0.200300 0.679649
v 0.499451 0.200300 0.831649
v -0.500549 0.190300 0.679649
v -0.500549 0.190300 0.831649
v 0.499451 0.190300 0.679649
v 0.499451 0.190300 0.831649
v -0.500549 0.359300 0.793649
v -0.500549 0.368300 0.784649
v -0.500549 0.368300 0.726649
v -0.500549 0.359300 0.717649
v 0.499451 0.368300 0.784649
v 0.499451 0.359300 0.793649
v 0.499451 0.359300 0.717649
v 0.499451 0.368300 0.726649
v -0.500549 0.368300 0.726649
v -0.500549 0.359300 0.717649
v 0.499451 0.359300 0.717649
v 0.499451 0.368300 0.726649
vt 0.339334 0.561505
vt 0.313955 0.999085
vt 0.339334 0.999085
vt 0.158050 0.507260
vt 0.154112 0.503322
vt 0.136171 0.503322
vt 0.002272 0.532639
vt 0.006210 0.536578
vt 0.024151 0.536578
vt 0.256498 0.561505
vt 0.245996 0.999085
vt 0.256498 0.999085
vt 0.226029 0.999085
vt 0.208088 0.561505
vt 0.208088 0.999085
vt 0.127420 0.513824
vt 0.093288 0.526076
vt 0.127420 0.526076
vt 0.235494 0.999085
vt 0.245996 0.561505
vt 0.235494 0.561505
vt 0.032902 0.513824
vt 0.024151 0.503322
vt 0.136171 0.536578
vt 0.190205 0.561505
vt 0.163075 0.999085
vt 0.190205 0.999085
vt 0.032902 0.526076
vt 0.067034 0.513824
vt 0.101813 0.999085
vt 0.135944 0.561505
vt 0.101813 0.561505
vt 0.101813 0.561505
vt 0.067682 0.999085
vt 0.101813 0.999085
vt 0.084537 0.486694
vt 0.080161 0.553206
vt 0.084537 0.553206
vt 0.135945 0.999085
vt 0.163074 0.561505
vt 0.135944 0.561505
vt 0.093288 0.513824
vt 0.067034 0.526076
vt 0.075785 0.486694
vt 0.001170 0.999085
vt 0.067682 0.561505
vt 0.001170 0.561505
vt 0.075785 0.553206
vt 0.080161 0.486694
vt 0.260874 0.999085
vt 0.265250 0.561505
vt 0.260874 0.561505
vt 0.260874 0.561505
vt 0.256498 0.999085
vt 0.260874 0.999085
vt 0.339334 0.999085
vt 0.343273 0.561505
vt 0.339334 0.561505
vt 0.190148 0.561505
vt 0.208088 0.999085
vt 0.208088 0.561505
vt 0.312683 0.561505
vt 0.308745 0.999085
vt 0.312683 0.999085
vt 0.313955 0.561505
vt 0.158050 0.532639
vt 0.154112 0.536578
vt 0.002272 0.507260
vt 0.006210 0.503322
vt 0.245996 0.561505
vt 0.226029 0.561505
vt 0.245996 0.999085
vt 0.163075 0.561505
vt 0.135944 0.999085
vt 0.067682 0.561505
vt 0.080161 0.486694
vt 0.163075 0.999085
vt 0.067682 0.999085
vt 0.080161 0.553206
vt 0.265250 0.999085
vt 0.256498 0.561505
vt 0.343273 0.999085
vt 0.190148 0.999085
vt 0.308745 0.561505
vn 0.0000 1.0000 0.0000
vn 1.0000 0.0000 0.0000
vn -1.0000 0.0000 0.0000
vn 0.0000 -0.7682 0.6402
vn 0.0000 0.0000 -1.0000
vn 0.0000 -0.7682 -0.6402
vn 0.0000 0.9517 0.3070
vn 0.0000 0.0000 1.0000
vn 0.0000 0.9517 -0.3070
vn 0.0000 -1.0000 0.0000
vn 0.0000 0.7071 0.7071
vn 0.0000 0.7071 -0.7071
usemtl atsf_crossings
s off
f 55/85/13 57/86/13 60/87/13
f 57/88/14 58/89/14 35/90/14
f 55/91/15 56/92/15 34/93/15
f 33/94/16 40/95/16 35/96/16
f 56/97/17 36/98/17 34/99/17
f 40/100/14 43/101/14 39/102/14
f 36/103/18 37/104/18 34/105/18
f 34/93/15 38/106/15 33/107/15
f 35/90/14 39/102/14 36/108/14
f 42/109/19 48/110/19 44/111/19
f 37/112/15 42/113/15 38/106/15
f 38/114/20 44/115/20 40/116/20
f 39/117/17 41/118/17 37/119/17
f 48/120/14 51/121/14 47/122/14
f 43/123/21 45/124/21 41/125/21
f 44/126/14 47/122/14 43/101/14
f 41/127/15 46/128/15 42/113/15
f 51/129/22 50/130/22 49/131/22
f 45/132/15 50/133/15 46/128/15
f 46/134/20 52/135/20 48/136/20
f 47/137/17 49/138/17 45/139/17
f 54/140/23 58/141/23 57/142/23
f 58/143/20 33/144/20 35/145/20
f 64/146/24 62/147/24 61/148/24
f 55/85/13 54/149/13 57/86/13
f 35/90/14 36/108/14 60/150/14
f 36/108/14 59/151/14 60/150/14
f 60/150/14 57/88/14 35/90/14
f 34/93/15 33/107/15 54/152/15
f 33/107/15 53/153/15 54/152/15
f 54/152/15 55/91/15 34/93/15
f 33/94/16 38/154/16 40/95/16
f 56/97/17 59/155/17 36/98/17
f 40/100/14 44/126/14 43/101/14
f 36/103/18 39/156/18 37/104/18
f 34/93/15 37/112/15 38/106/15
f 35/90/14 40/100/14 39/102/14
f 42/109/19 46/157/19 48/110/19
f 37/112/15 41/127/15 42/113/15
f 38/114/20 42/158/20 44/115/20
f 39/117/17 43/159/17 41/118/17
f 48/120/14 52/160/14 51/121/14
f 43/123/21 47/161/21 45/124/21
f 44/126/14 48/120/14 47/122/14
f 41/127/15 45/132/15 46/128/15
f 51/129/22 52/162/22 50/130/22
f 45/132/15 49/163/15 50/133/15
f 46/134/20 50/164/20 52/135/20
f 47/137/17 51/165/17 49/138/17
f 54/140/23 53/166/23 58/141/23
f 58/143/20 53/167/20 33/144/20
f 64/146/24 63/168/24 62/147/24
o RAIL_BASE.001_Cube.003
v -0.500000 0.000000 -0.500000
v -0.500000 0.360000 -0.500000
v 0.500000 0.000000 -0.500000
v 0.500000 0.360000 -0.500000
v -0.500000 0.360000 -1.500000
v -0.500000 0.000000 -1.500000
v 0.500000 0.000000 -1.500000
v 0.500000 0.360000 -1.500000
v -0.500000 0.215862 -0.640462
v 0.500000 0.215862 -0.640462
v -0.500000 0.215862 -0.806462
v 0.500000 0.215862 -0.806462
v -0.500000 0.325000 -0.806462
v -0.500000 0.360000 -0.841462
v 0.500000 0.360000 -0.841462
v 0.500000 0.325000 -0.806462
v -0.500000 0.360000 -0.605462
v -0.500000 0.325000 -0.640462
v 0.500000 0.325000 -0.640462
v 0.500000 0.360000 -0.605462
v -0.500000 0.000000 0.500000
v -0.500000 0.360000 0.500000
v 0.500000 0.000000 0.500000
v 0.500000 0.360000 0.500000
v -0.500000 0.360000 1.500000
v -0.500000 0.000000 1.500000
v 0.500000 0.000000 1.500000
v 0.500000 0.360000 1.500000
v -0.500000 0.215862 0.640462
v 0.500000 0.215862 0.640462
v -0.500000 0.215862 0.806462
v 0.500000 0.215862 0.806462
v -0.500000 0.325000 0.806462
v -0.500000 0.360000 0.841462
v 0.500000 0.360000 0.841462
v 0.500000 0.325000 0.806462
v -0.500000 0.360000 0.605462
v -0.500000 0.325000 0.640462
v 0.500000 0.325000 0.640462
v 0.500000 0.360000 0.605462
v -0.500000 0.000000 0.000000
v -0.500000 0.360000 0.000000
v 0.500000 0.000000 0.000000
v 0.500000 0.360000 0.000000
vt 0.709771 0.633924
vt 0.669741 0.605103
vt 0.709771 0.605103
vt 0.780388 0.420037
vt 0.860447 0.428774
vt 0.860447 0.420037
vt 0.669741 0.695385
vt 0.645206 0.712667
vt 0.658496 0.712667
vt 0.560084 0.325237
vt 0.480024 0.333681
vt 0.480024 0.325237
vt 0.684819 0.325237
vt 0.764879 0.405297
vt 0.764879 0.325237
vt 0.589681 0.605103
vt 0.645206 0.622385
vt 0.860275 0.520823
vt 0.780215 0.534113
vt 0.780215 0.520823
vt 0.860447 0.400688
vt 0.780388 0.409425
vt 0.780388 0.400688
vt 0.480024 0.352575
vt 0.560084 0.349773
vt 0.560084 0.352575
vt 0.480024 0.336483
vt 0.560084 0.333681
vt 0.560084 0.336483
vt 0.480024 0.405297
vt 0.560067 0.448441
vt 0.480007 0.419619
vt 0.560067 0.419619
vt 0.560084 0.285207
vt 0.684819 0.285207
vt 0.669741 0.724206
vt 0.709771 0.695385
vt 0.669741 0.605103
vt 0.860447 0.428774
vt 0.780388 0.420037
vt 0.860447 0.420037
vt 0.589681 0.695385
vt 0.669741 0.695385
vt 0.645206 0.712667
vt 0.480024 0.333681
vt 0.560084 0.325237
vt 0.480024 0.325237
vt 0.764879 0.405297
vt 0.684819 0.325237
vt 0.764879 0.325237
vt 0.645206 0.622385
vt 0.658496 0.622385
vt 0.780215 0.534113
vt 0.860275 0.520823
vt 0.780215 0.520823
vt 0.780388 0.409425
vt 0.860447 0.400688
vt 0.780388 0.400688
vt 0.560084 0.349773
vt 0.480024 0.352575
vt 0.560084 0.352575
vt 0.560084 0.333681
vt 0.480024 0.336483
vt 0.560084 0.336483
vt 0.480024 0.405297
vt 0.480007 0.419619
vt 0.560067 0.448441
vt 0.560067 0.419619
vt 0.669741 0.724206
vt 0.669741 0.633924
vt 0.780388 0.428774
vt 0.661298 0.724206
vt 0.658496 0.721404
vt 0.589681 0.695385
vt 0.589681 0.724206
vt 0.642404 0.724206
vt 0.645206 0.721404
vt 0.684819 0.405297
vt 0.658496 0.622385
vt 0.661298 0.633924
vt 0.658496 0.631122
vt 0.645206 0.631122
vt 0.642404 0.633924
vt 0.589681 0.633924
vt 0.860275 0.534113
vt 0.860447 0.409425
vt 0.480024 0.349773
vt 0.560084 0.405297
vt 0.480007 0.448441
vt 0.480024 0.285207
vt 0.764879 0.285207
vt 0.709771 0.724206
vt 0.669741 0.633924
vt 0.780388 0.428774
vt 0.658496 0.712667
vt 0.661298 0.724206
vt 0.658496 0.721404
vt 0.645206 0.721404
vt 0.642404 0.724206
vt 0.589681 0.724206
vt 0.684819 0.405297
vt 0.589681 0.605103
vt 0.589681 0.633924
vt 0.642404 0.633924
vt 0.645206 0.631122
vt 0.661298 0.633924
vt 0.658496 0.631122
vt 0.860275 0.534113
vt 0.860447 0.409425
vt 0.480024 0.349773
vt 0.560084 0.405297
vt 0.480007 0.448441
vn -1.0000 0.0000 0.0000
vn 0.0000 0.0000 -1.0000
vn 1.0000 -0.0000 0.0000
vn 0.0000 1.0000 0.0000
vn 0.0000 -1.0000 0.0000
vn 0.0000 0.0000 1.0000
vn 0.0000 0.7071 0.7071
vn 0.0000 0.7071 -0.7071
usemtl atsf_crossings
s off
f 106/169/25 65/170/25 105/171/25
f 73/172/26 83/173/26 74/174/26
f 67/175/27 76/176/27 74/177/27
f 68/178/28 81/179/28 66/180/28
f 65/181/29 71/182/29 67/183/29
f 70/184/25 65/170/25 75/185/25
f 74/186/28 75/187/28 73/188/28
f 76/189/30 77/190/30 75/191/30
f 78/192/31 80/193/31 79/194/31
f 82/195/32 84/196/32 83/197/32
f 79/194/28 69/198/28 78/192/28
f 69/199/26 71/200/26 70/201/26
f 66/180/28 108/202/28 68/178/28
f 67/183/29 105/203/29 65/181/29
f 68/204/27 107/205/27 67/175/27
f 85/206/25 106/169/25 105/171/25
f 103/207/30 93/208/30 94/209/30
f 91/210/27 87/211/27 96/212/27
f 101/213/28 88/214/28 86/215/28
f 91/216/29 85/217/29 87/218/29
f 85/206/25 95/219/25 93/220/25
f 95/221/28 94/222/28 93/223/28
f 97/224/26 96/225/26 95/226/26
f 100/227/32 98/228/32 99/229/32
f 104/230/31 102/231/31 103/232/31
f 89/233/28 99/229/28 98/228/28
f 91/234/30 89/235/30 90/236/30
f 108/202/28 86/215/28 88/214/28
f 105/203/29 87/218/29 85/217/29
f 107/205/27 88/237/27 87/211/27
f 106/169/25 66/238/25 65/170/25
f 73/172/26 82/239/26 83/173/26
f 84/240/27 68/204/27 83/241/27
f 68/204/27 67/175/27 74/177/27
f 67/175/27 71/242/27 76/176/27
f 71/242/27 72/243/27 76/176/27
f 72/243/27 79/244/27 76/176/27
f 79/244/27 80/245/27 76/176/27
f 68/204/27 74/177/27 83/241/27
f 68/178/28 84/196/28 81/179/28
f 65/181/29 70/246/29 71/182/29
f 65/170/25 66/238/25 73/247/25
f 66/238/25 81/248/25 82/249/25
f 73/247/25 66/238/25 82/249/25
f 75/185/25 77/250/25 78/251/25
f 75/185/25 78/251/25 69/252/25
f 65/170/25 73/247/25 75/185/25
f 69/252/25 70/184/25 75/185/25
f 74/186/28 76/253/28 75/187/28
f 76/189/30 80/254/30 77/190/30
f 78/192/31 77/255/31 80/193/31
f 82/195/32 81/179/32 84/196/32
f 79/194/28 72/256/28 69/198/28
f 69/199/26 72/257/26 71/200/26
f 66/180/28 106/258/28 108/202/28
f 67/183/29 107/259/29 105/203/29
f 68/204/27 108/260/27 107/205/27
f 85/206/25 86/261/25 106/169/25
f 103/207/30 102/262/30 93/208/30
f 87/211/27 88/237/27 94/263/27
f 88/237/27 104/264/27 103/265/27
f 94/263/27 88/237/27 103/265/27
f 96/212/27 100/266/27 99/267/27
f 96/212/27 99/267/27 92/268/27
f 87/211/27 94/263/27 96/212/27
f 92/268/27 91/210/27 96/212/27
f 101/213/28 104/230/28 88/214/28
f 91/216/29 90/269/29 85/217/29
f 85/206/25 90/270/25 95/219/25
f 90/270/25 89/271/25 95/219/25
f 89/271/25 98/272/25 95/219/25
f 98/272/25 97/273/25 95/219/25
f 101/274/25 86/261/25 102/275/25
f 86/261/25 85/206/25 93/220/25
f 93/220/25 102/275/25 86/261/25
f 95/221/28 96/276/28 94/222/28
f 97/224/26 100/277/26 96/225/26
f 100/227/32 97/278/32 98/228/32
f 104/230/31 101/213/31 102/231/31
f 89/233/28 92/279/28 99/229/28
f 91/234/30 92/280/30 89/235/30
f 108/202/28 106/258/28 86/215/28
f 105/203/29 107/259/29 87/218/29
f 107/205/27 108/260/27 88/237/27
