# Blender v2.81 (sub 16) OBJ File: 'eot.blend'
# www.blender.org
mtllib eot.mtl
o SHELL_Cube.004
v -0.093750 1.500000 -0.218750
v 0.093750 1.500000 -0.218750
v -0.093750 1.500000 -0.406250
v 0.093750 1.500000 -0.406250
v -0.093750 0.937500 -0.218750
v 0.093750 0.937500 -0.218750
v -0.093750 0.937500 -0.406250
v 0.093750 0.937500 -0.406250
v -0.093750 0.875000 -0.218750
v 0.093750 0.875000 -0.218750
v -0.093750 0.875000 -0.343750
v 0.093750 0.875000 -0.343750
v 0.031250 1.500000 -0.281250
v -0.031250 1.500000 -0.281250
v -0.000000 1.687500 -0.312500
v -0.000000 1.687500 -0.250000
v -0.031250 1.687500 -0.281250
v 0.031250 1.687500 -0.281250
v -0.000000 1.500000 -0.250000
v -0.000000 1.500000 -0.312500
v 0.093750 1.437500 -0.375000
v 0.093750 1.312500 -0.375000
v 0.093750 1.312500 -0.250000
v 0.093750 1.437500 -0.250000
v 0.031250 1.250000 -0.406250
v 0.031250 1.187500 -0.406250
v -0.031250 1.250000 -0.406250
v -0.031250 1.187500 -0.406250
v 0.031249 1.250000 -0.468750
v 0.031249 1.187500 -0.468750
v -0.031251 1.250000 -0.468750
v -0.031251 1.187500 -0.468750
v 0.031249 1.187500 -0.531250
v -0.031251 1.187500 -0.531250
v -0.031251 1.000000 -0.468750
v 0.031249 1.000000 -0.468750
v -0.031251 1.000000 -0.531250
v 0.031249 1.000000 -0.531250
v -0.031251 0.937500 -0.468750
v 0.031249 0.937500 -0.468750
v -0.031250 1.000000 -0.406250
v 0.031250 1.000000 -0.406250
v -0.031250 0.937500 -0.406250
v 0.031250 0.937500 -0.406250
vt 0.406250 0.500000
vt 0.312500 0.406250
vt 0.312500 0.500000
vt 0.281250 0.093750
vt 0.218750 0.125000
vt 0.312500 0.125000
vt 0.125000 0.125000
vt 0.031250 0.125000
vt 0.109751 0.312500
vt 0.125000 0.406250
vt 0.218750 0.406250
vt 0.406250 0.125000
vt 0.406250 0.406250
vt 0.218750 0.031250
vt 0.125000 0.093750
vt 0.218750 0.093750
vt 0.406250 0.093750
vt 0.062500 0.093750
vt 0.284970 0.688659
vt 0.317981 0.589628
vt 0.317981 0.688659
vt 0.350991 0.589628
vt 0.317981 0.688659
vt 0.317981 0.589628
vt 0.031250 0.406250
vt 0.109751 0.375000
vt 0.047251 0.375000
vt 0.687500 0.250000
vt 0.593750 0.218750
vt 0.687500 0.218750
vt 0.593750 0.031250
vt 0.562500 0.062500
vt 0.562500 0.031250
vt 0.531250 0.093750
vt 0.562500 0.125000
vt 0.531250 0.125000
vt 0.562500 0.187500
vt 0.593750 0.156250
vt 0.593750 0.187500
vt 0.593750 0.093750
vt 0.562500 0.093750
vt 0.593750 0.062500
vt 0.562500 0.156250
vt 0.593750 0.125000
vt 0.687500 0.156250
vt 0.687500 0.125000
vt 0.718750 0.156250
vt 0.687500 0.093750
vt 0.718750 0.093750
vt 0.750000 0.125000
vt 0.718750 0.125000
vt 0.687500 0.062500
vt 0.718750 0.062500
vt 0.687500 0.187500
vt 0.593750 0.250000
vt 0.562500 0.218750
vt 0.718750 0.031250
vt 0.047251 0.312500
vt 0.125000 0.031250
vt 0.312500 0.093750
vt 0.284970 0.589628
vt 0.350991 0.688659
vt 0.750000 0.093750
vt 0.718750 0.187500
vt 0.562500 0.250000
vt 0.687500 0.031250
vn 0.0000 1.0000 -0.0000
vn -1.0000 -0.0000 0.0000
vn 1.0000 -0.0000 -0.0000
vn 0.0000 0.0000 1.0000
vn -0.0000 0.0000 -1.0000
vn 0.0000 -1.0000 0.0000
vn -0.0000 -0.7071 -0.7071
vn -0.0000 0.7071 -0.7071
usemtl eot
s off
f 2/1/1 3/2/1 1/3/1
f 11/4/2 5/5/2 7/6/2
f 6/7/3 8/8/3 23/9/3
f 5/5/4 2/10/4 1/11/4
f 7/6/2 1/11/2 3/2/2
f 8/12/5 3/2/5 4/13/5
f 11/14/6 10/15/6 9/16/6
f 12/17/7 7/6/7 8/12/7
f 6/7/3 12/18/3 8/8/3
f 9/16/4 6/7/4 5/5/4
f 13/19/4 17/20/4 14/21/4
f 20/22/3 16/23/3 19/24/3
f 4/25/3 24/26/3 21/27/3
f 32/28/4 36/29/4 30/30/4
f 26/31/3 29/32/3 25/33/3
f 25/34/1 31/35/1 27/36/1
f 27/37/2 32/38/2 28/39/2
f 33/40/8 31/35/8 29/41/8
f 29/32/3 30/42/3 33/40/3
f 32/38/2 31/43/2 34/44/2
f 35/45/2 37/46/2 39/47/2
f 30/42/3 38/48/3 33/40/3
f 34/44/2 35/45/2 32/38/2
f 33/40/5 37/46/5 34/44/5
f 40/49/6 43/50/6 39/51/6
f 38/48/3 36/52/3 40/53/3
f 38/48/7 39/51/7 37/46/7
f 39/47/2 41/54/2 35/45/2
f 35/55/1 42/56/1 36/29/1
f 36/52/3 44/57/3 40/53/3
f 2/1/1 4/13/1 3/2/1
f 11/4/2 9/16/2 5/5/2
f 24/26/3 2/10/3 23/9/3
f 2/10/3 6/7/3 23/9/3
f 8/8/3 4/25/3 22/58/3
f 8/8/3 22/58/3 23/9/3
f 5/5/4 6/7/4 2/10/4
f 7/6/2 5/5/2 1/11/2
f 8/12/5 7/6/5 3/2/5
f 11/14/6 12/59/6 10/15/6
f 12/17/7 11/60/7 7/6/7
f 6/7/3 10/15/3 12/18/3
f 9/16/4 10/15/4 6/7/4
f 13/19/4 18/61/4 17/20/4
f 20/22/3 15/62/3 16/23/3
f 4/25/3 2/10/3 24/26/3
f 21/27/3 22/58/3 4/25/3
f 32/28/4 35/55/4 36/29/4
f 26/31/3 30/42/3 29/32/3
f 25/34/1 29/41/1 31/35/1
f 27/37/2 31/43/2 32/38/2
f 33/40/8 34/44/8 31/35/8
f 30/42/3 36/52/3 38/48/3
f 34/44/2 37/46/2 35/45/2
f 33/40/5 38/48/5 37/46/5
f 40/49/6 44/63/6 43/50/6
f 38/48/7 40/49/7 39/51/7
f 39/47/2 43/64/2 41/54/2
f 35/55/1 41/65/1 42/56/1
f 36/52/3 42/66/3 44/57/3
o empty_Cube.002
v 2.062499 0.000000 -0.843752
v 2.062499 1.750000 -0.843752
v 2.062501 0.000000 0.843748
v 2.062501 1.750000 0.843748
v -0.062501 0.000000 -0.843750
v -0.062501 1.750000 -0.843750
v -0.062499 0.000000 0.843750
v -0.062499 1.750000 0.843750
vt 0.762622 0.898978
vt 0.877037 0.825425
vt 0.877037 0.898978
vt 0.877037 0.943927
vt 0.991453 0.898978
vt 0.991453 0.943927
vt 0.877037 0.898978
vt 0.991453 0.825425
vt 0.762622 0.943927
vt 0.877037 0.943927
vt 0.836175 0.988876
vt 0.762622 0.943927
vt 0.836175 0.943927
vt 0.836175 0.988876
vt 0.909727 0.943927
vt 0.909727 0.988876
vt 0.762622 0.825425
vt 0.877037 0.825425
vt 0.762622 0.988875
vt 0.836175 0.943927
vn 1.0000 0.0000 -0.0000
vn 0.0000 0.0000 1.0000
vn -1.0000 0.0000 0.0000
vn -0.0000 0.0000 -1.0000
vn 0.0000 -1.0000 0.0000
vn 0.0000 1.0000 -0.0000
usemtl eot
s off
f 46/67/9 47/68/9 45/69/9
f 48/70/10 51/71/10 47/72/10
f 52/73/11 49/74/11 51/71/11
f 50/75/12 45/69/12 49/76/12
f 51/77/13 45/78/13 47/79/13
f 52/80/14 46/81/14 50/82/14
f 46/67/9 48/83/9 47/68/9
f 48/70/10 52/73/10 51/71/10
f 52/73/11 50/84/11 49/74/11
f 50/75/12 46/67/12 45/69/12
f 51/77/13 49/85/13 45/78/13
f 52/80/14 48/86/14 46/81/14
o HEADLIGHT_1_0xA20C28_FULLBRIGHT_Cube.009
v 0.093750 1.437500 -0.375000
v 0.093750 1.312500 -0.375000
v 0.093750 1.312500 -0.250000
v 0.093750 1.437500 -0.250000
v 0.031250 1.312500 -0.375000
v 0.031250 1.437500 -0.375000
v 0.031250 1.312500 -0.250000
v 0.031250 1.437500 -0.250000
vt 0.437500 0.312500
vt 0.468750 0.375000
vt 0.468750 0.312500
vt 0.531250 0.375000
vt 0.468750 0.312500
vt 0.468750 0.375000
vt 0.437500 0.437500
vt 0.468750 0.500000
vt 0.468750 0.437500
vt 0.437500 0.250000
vt 0.468750 0.250000
vt 0.437500 0.375000
vt 0.531250 0.312500
vt 0.437500 0.500000
vn 0.0000 -1.0000 0.0000
vn 1.0000 0.0000 -0.0000
vn 0.0000 1.0000 0.0000
vn -0.0000 0.0000 -1.0000
vn 0.0000 0.0000 1.0000
usemtl eot
s off
f 60/87/15 53/88/15 56/89/15
f 60/90/16 57/91/16 58/92/16
f 57/93/17 55/94/17 54/95/17
f 59/96/18 56/89/18 55/97/18
f 58/98/19 54/95/19 53/88/19
f 60/87/15 58/98/15 53/88/15
f 60/90/16 59/99/16 57/91/16
f 57/93/17 59/100/17 55/94/17
f 59/96/18 60/87/18 56/89/18
f 58/98/19 57/93/19 54/95/19
o FRAME_Cube.010
v 0.062500 0.750000 -0.218750
v 0.062500 0.875000 -0.218750
v 0.062500 0.750000 -0.156250
v 0.062500 0.875000 -0.156250
v -0.062500 0.750000 -0.218750
v -0.062500 0.875000 -0.218750
v -0.062500 0.750000 -0.156250
v -0.062500 0.875000 -0.156250
v 0.062500 0.750000 -0.343750
v 0.062500 0.875000 -0.343750
v -0.062500 0.875000 -0.343750
v -0.062500 0.750000 -0.343750
vt 0.093750 0.500000
vt 0.031250 0.531250
vt 0.031250 0.500000
vt 0.093750 0.531250
vt 0.156250 0.593750
vt 0.093750 0.593750
vt 0.156250 0.531250
vt 0.218750 0.500000
vt 0.218750 0.531250
vt 0.093750 0.437500
vt 0.093750 0.625000
vt 0.156250 0.500000
vt 0.156250 0.750000
vt 0.093750 0.687500
vt 0.156250 0.687500
vt 0.156250 0.625000
vt 0.218750 0.437500
vt 0.031250 0.437500
vt 0.093750 0.750000
vt 0.156250 0.437500
vn 1.0000 0.0000 -0.0000
vn 0.0000 0.0000 1.0000
vn -1.0000 0.0000 0.0000
vn 0.0000 -1.0000 -0.0000
vn 0.0000 1.0000 -0.0000
vn -0.0000 0.0000 -1.0000
usemtl eot
s off
f 62/101/20 63/102/20 61/103/20
f 64/104/21 67/105/21 63/106/21
f 68/107/22 65/108/22 67/109/22
f 61/103/20 70/110/20 62/101/20
f 67/105/23 61/111/23 63/106/23
f 64/104/24 66/112/24 68/107/24
f 71/113/25 69/114/25 72/115/25
f 65/116/23 69/114/23 61/111/23
f 66/112/22 72/117/22 65/108/22
f 62/101/20 64/104/20 63/102/20
f 64/104/21 68/107/21 67/105/21
f 68/107/22 66/112/22 65/108/22
f 61/103/20 69/118/20 70/110/20
f 67/105/23 65/116/23 61/111/23
f 64/104/24 62/101/24 66/112/24
f 71/113/25 70/119/25 69/114/25
f 65/116/23 72/115/23 69/114/23
f 66/112/22 71/120/22 72/117/22
