# Blender v2.83.4 OBJ File: 'texel_railsonly .blend'
# www.blender.org
mtllib texel_railsonly.mtl
o RAIL_LEFT_RAIL_LEFT_Cube_Cube.002
v -0.500000 0.250000 0.781250
v -0.500000 0.187500 0.656250
v -0.500000 0.187500 0.843750
v -0.500000 0.250000 0.718750
v 0.500000 0.187500 0.656250
v 0.500000 0.250000 0.718750
v 0.500000 0.187500 0.843750
v 0.500000 0.250000 0.781250
v -0.500000 0.312500 0.718750
v -0.500000 0.312500 0.781250
v 0.500000 0.312500 0.718750
v 0.500000 0.312500 0.781250
v -0.500000 0.375000 0.687500
v 0.500000 0.375000 0.812500
v 0.500000 0.375000 0.687500
v 0.500000 0.312500 0.812500
v -0.500000 0.312500 0.687500
v 0.500000 0.312500 0.687500
v -0.500000 0.375000 0.812500
v -0.500000 0.312500 0.812500
vt 0.468750 0.125000
vt 0.500000 0.062500
vt 0.500000 0.156250
vt 1.000000 0.062500
vt 0.500000 0.031250
vt 1.000000 0.031250
vt 0.468750 0.093750
vt 0.500000 0.156250
vt 0.500000 0.062500
vt 1.000000 0.187500
vt 1.000000 0.156250
vt 1.000000 0.062500
vt 0.437500 0.093750
vt 0.468750 0.093750
vt 0.500000 0.218750
vt 0.500000 0.187500
vt 1.000000 -0.000000
vt 0.500000 0.031250
vt 0.500000 -0.000000
vt 0.437500 0.125000
vt 0.468750 0.125000
vt 0.156250 0.531250
vt 0.093750 0.031250
vt 0.156250 0.031250
vt -0.000000 0.031250
vt 0.062500 0.531250
vt 0.062500 0.031250
vt 0.093750 0.031250
vt 0.156250 0.000000
vt 0.093750 0.000000
vt 0.156250 0.531250
vt 0.093750 0.562500
vt 0.156250 0.562500
vt 0.093750 0.531250
vt 0.062500 0.031250
vt 0.062500 0.531250
vt 0.156250 0.031250
vt 0.187500 0.531250
vt 0.187500 0.031250
vt 0.500000 0.062500
vt 0.437500 0.125000
vt 1.000000 0.218750
vt 1.000000 0.031250
vt 0.437500 0.093750
vt 0.093750 0.531250
vt -0.000000 0.531250
vn -1.0000 0.0000 0.0000
vn 0.0000 0.7071 -0.7071
vn 1.0000 0.0000 0.0000
vn 0.0000 0.7071 0.7071
vn 0.0000 -1.0000 -0.0000
vn 0.0000 0.0000 1.0000
vn 0.0000 0.0000 -1.0000
vn 0.0000 1.0000 0.0000
usemtl Material.002
s 1
f 1/1/1 2/2/1 3/3/1
f 4/4/2 5/5/2 2/6/2
f 6/7/3 7/8/3 5/9/3
f 8/10/4 3/3/4 7/11/4
f 5/12/5 3/3/5 2/2/5
f 1/1/1 9/13/1 4/14/1
f 8/10/6 10/15/6 1/16/6
f 4/17/7 11/18/7 6/19/7
f 6/7/3 12/20/3 8/21/3
f 13/22/8 14/23/8 15/24/8
f 16/25/5 17/26/5 18/27/5
f 16/28/3 15/29/3 14/30/3
f 17/31/1 19/32/1 13/33/1
f 20/34/6 14/35/6 19/36/6
f 18/37/7 13/38/7 15/39/7
f 1/1/1 4/14/1 2/2/1
f 4/4/2 6/40/2 5/5/2
f 6/7/3 8/21/3 7/8/3
f 8/10/4 1/16/4 3/3/4
f 5/12/5 7/11/5 3/3/5
f 1/1/1 10/41/1 9/13/1
f 8/10/6 12/42/6 10/15/6
f 4/17/7 9/43/7 11/18/7
f 6/7/3 11/44/3 12/20/3
f 13/22/8 19/45/8 14/23/8
f 16/25/5 20/46/5 17/26/5
f 16/28/3 18/37/3 15/29/3
f 17/31/1 20/34/1 19/32/1
f 20/34/6 16/28/6 14/35/6
f 18/37/7 17/31/7 13/38/7
o RAIL_RIGHT_RAIL_RIGHT_Cube_Cube.003
v -0.500000 0.187500 -0.656250
v -0.500000 0.250000 -0.781250
v -0.500000 0.187500 -0.843750
v 0.500000 0.187500 -0.656250
v -0.500000 0.250000 -0.718750
v 0.500000 0.187500 -0.843750
v 0.500000 0.250000 -0.718750
v 0.500000 0.250000 -0.781250
v -0.500000 0.312500 -0.718750
v -0.500000 0.312500 -0.781250
v 0.500000 0.312500 -0.718750
v 0.500000 0.312500 -0.781250
v 0.500000 0.375000 -0.812500
v -0.500000 0.375000 -0.687500
v 0.500000 0.375000 -0.687500
v -0.500000 0.312500 -0.687500
v 0.500000 0.312500 -0.812500
v 0.500000 0.312500 -0.687500
v -0.500000 0.375000 -0.812500
v -0.500000 0.312500 -0.812500
vt 0.500000 0.062500
vt 0.468750 0.125000
vt 0.500000 0.156250
vt 0.500000 0.031250
vt 1.000000 0.062500
vt 1.000000 0.031250
vt 0.500000 0.156250
vt 0.468750 0.093750
vt 0.500000 0.062500
vt 1.000000 0.187500
vt 1.000000 0.156250
vt 1.000000 0.062500
vt 0.437500 0.093750
vt 0.468750 0.093750
vt 0.500000 0.218750
vt 0.500000 0.187500
vt 0.500000 0.031250
vt 1.000000 -0.000000
vt 0.500000 -0.000000
vt 0.437500 0.125000
vt 0.468750 0.125000
vt 0.093750 0.031250
vt 0.156250 0.531250
vt 0.156250 0.031250
vt 0.062500 0.531250
vt -0.000000 0.031250
vt 0.062500 0.031250
vt 0.156250 0.000000
vt 0.093750 0.031250
vt 0.093750 0.000000
vt 0.093750 0.562500
vt 0.156250 0.531250
vt 0.156250 0.562500
vt 0.062500 0.031250
vt 0.093750 0.531250
vt 0.062500 0.531250
vt 0.187500 0.531250
vt 0.156250 0.031250
vt 0.187500 0.031250
vt 0.500000 0.062500
vt 0.437500 0.125000
vt 1.000000 0.218750
vt 1.000000 0.031250
vt 0.437500 0.093750
vt 0.093750 0.531250
vt -0.000000 0.531250
vn -1.0000 0.0000 0.0000
vn 0.0000 0.7071 0.7071
vn 1.0000 0.0000 0.0000
vn 0.0000 0.7071 -0.7071
vn 0.0000 -1.0000 -0.0000
vn 0.0000 0.0000 -1.0000
vn 0.0000 0.0000 1.0000
vn 0.0000 1.0000 0.0000
usemtl Material.002
s 1
f 21/47/9 22/48/9 23/49/9
f 24/50/10 25/51/10 21/52/10
f 26/53/11 27/54/11 24/55/11
f 23/49/12 28/56/12 26/57/12
f 23/49/13 24/58/13 21/47/13
f 29/59/9 22/48/9 25/60/9
f 30/61/14 28/56/14 22/62/14
f 31/63/15 25/64/15 27/65/15
f 32/66/11 27/54/11 28/67/11
f 33/68/16 34/69/16 35/70/16
f 36/71/13 37/72/13 38/73/13
f 35/74/11 37/75/11 33/76/11
f 39/77/9 36/78/9 34/79/9
f 33/80/14 40/81/14 39/82/14
f 34/83/15 38/84/15 35/85/15
f 21/47/9 25/60/9 22/48/9
f 24/50/10 27/86/10 25/51/10
f 26/53/11 28/67/11 27/54/11
f 23/49/12 22/62/12 28/56/12
f 23/49/13 26/57/13 24/58/13
f 29/59/9 30/87/9 22/48/9
f 30/61/14 32/88/14 28/56/14
f 31/63/15 29/89/15 25/64/15
f 32/66/11 31/90/11 27/54/11
f 33/68/16 39/91/16 34/69/16
f 36/71/13 40/92/13 37/72/13
f 35/74/11 38/84/11 37/75/11
f 39/77/9 40/81/9 36/78/9
f 33/80/14 37/75/14 40/81/14
f 34/83/15 36/78/15 38/84/15
o RAIL_BASE_Plane
v -0.125000 0.218750 0.906250
v -0.125000 0.218750 0.593750
v -0.125000 0.156250 0.593750
v -0.125000 0.156250 0.906250
v 0.500000 0.187500 0.937500
v -0.500000 0.187500 0.937500
v -0.500000 0.000000 1.000000
v 0.500000 0.000000 1.000000
v -0.500000 0.187500 0.562500
v 0.500000 0.187500 0.562500
v 0.500000 0.000000 0.500000
v -0.500000 0.000000 0.500000
v 0.125000 0.156250 0.906250
v 0.125000 0.156250 0.593750
v 0.125000 0.218750 0.593750
v 0.125000 0.218750 0.906250
v -0.093750 0.250000 0.687500
v -0.093750 0.250000 0.625000
v -0.093750 0.187500 0.625000
v -0.093750 0.187500 0.687500
v -0.031250 0.250000 0.687500
v -0.031250 0.250000 0.625000
v -0.031250 0.187500 0.625000
v -0.031250 0.187500 0.687500
v 0.093750 0.187500 0.687500
v 0.093750 0.187500 0.625000
v 0.093750 0.250000 0.625000
v 0.093750 0.250000 0.687500
v 0.031250 0.187500 0.687500
v 0.031250 0.187500 0.625000
v 0.031250 0.250000 0.625000
v 0.031250 0.250000 0.687500
v 0.031250 0.250000 0.875000
v 0.031250 0.250000 0.812500
v 0.031250 0.187500 0.812500
v 0.031250 0.187500 0.875000
v 0.093750 0.250000 0.875000
v 0.093750 0.250000 0.812500
v 0.093750 0.187500 0.812500
v 0.093750 0.187500 0.875000
v -0.031250 0.187500 0.875000
v -0.031250 0.187500 0.812500
v -0.031250 0.250000 0.812500
v -0.031250 0.250000 0.875000
v -0.093750 0.187500 0.875000
v -0.093750 0.187500 0.812500
v -0.093750 0.250000 0.812500
v -0.093750 0.250000 0.875000
v -0.125000 0.218750 -0.906250
v -0.125000 0.218750 -0.593750
v -0.125000 0.156250 -0.593750
v -0.125000 0.156250 -0.906250
v 0.500000 0.187500 -0.937500
v -0.500000 0.187500 -0.937500
v -0.500000 0.000000 -1.000000
v 0.500000 0.000000 -1.000000
v -0.500000 0.187500 -0.562500
v 0.500000 0.187500 -0.562500
v 0.500000 0.000000 -0.500000
v -0.500000 0.000000 -0.500000
v 0.125000 0.156250 -0.906250
v 0.125000 0.156250 -0.593750
v 0.125000 0.218750 -0.593750
v 0.125000 0.218750 -0.906250
v -0.093750 0.250000 -0.687500
v -0.093750 0.250000 -0.625000
v -0.093750 0.187500 -0.625000
v -0.093750 0.187500 -0.687500
v -0.031250 0.250000 -0.687500
v -0.031250 0.250000 -0.625000
v -0.031250 0.187500 -0.625000
v -0.031250 0.187500 -0.687500
v 0.093750 0.187500 -0.687500
v 0.093750 0.187500 -0.625000
v 0.093750 0.250000 -0.625000
v 0.093750 0.250000 -0.687500
v 0.031250 0.187500 -0.687500
v 0.031250 0.187500 -0.625000
v 0.031250 0.250000 -0.625000
v 0.031250 0.250000 -0.687500
v 0.031250 0.250000 -0.875000
v 0.031250 0.250000 -0.812500
v 0.031250 0.187500 -0.812500
v 0.031250 0.187500 -0.875000
v 0.093750 0.250000 -0.875000
v 0.093750 0.250000 -0.812500
v 0.093750 0.187500 -0.812500
v 0.093750 0.187500 -0.875000
v -0.031250 0.187500 -0.875000
v -0.031250 0.187500 -0.812500
v -0.031250 0.250000 -0.812500
v -0.031250 0.250000 -0.875000
v -0.093750 0.187500 -0.875000
v -0.093750 0.187500 -0.812500
v -0.093750 0.250000 -0.812500
v -0.093750 0.250000 -0.875000
vt 0.625000 0.500000
vt 0.562500 0.468750
vt 0.625000 0.468750
vt -0.000000 0.562500
vt 0.062500 0.406250
vt -0.000000 0.406250
vt 0.312500 0.562500
vt 0.062500 0.406250
vt 0.312500 0.406250
vt 0.312500 0.375000
vt 0.312500 0.406250
vt 0.312500 0.593750
vt 0.062500 0.562500
vt 1.000000 0.250000
vt 0.562500 0.343750
vt 0.937500 0.343750
vt -0.000000 1.000000
vt 1.000000 0.906250
vt 1.000000 1.000000
vt -0.000000 0.000000
vt 1.000000 0.250000
vt 1.000000 0.000000
vt -0.000000 0.250000
vt 0.437500 0.343750
vt 0.062500 0.343750
vt -0.000000 0.625000
vt 1.000000 0.812500
vt -0.000000 0.812500
vt 1.000000 0.812500
vt -0.000000 0.906250
vt -0.000000 0.812500
vt 0.375000 0.406250
vt 0.437500 0.468750
vt 0.500000 0.500000
vt 0.500000 0.468750
vt 0.500000 0.437500
vt 0.500000 0.468750
vt 0.500000 0.531250
vt 0.562500 0.500000
vt 0.625000 0.500000
vt 0.562500 0.468750
vt 0.625000 0.468750
vt 0.562500 0.468750
vt 0.500000 0.500000
vt 0.562500 0.468750
vt 0.500000 0.468750
vt 0.500000 0.531250
vt 0.562500 0.500000
vt 0.500000 0.437500
vt 0.562500 0.468750
vt 0.500000 0.468750
vt 0.437500 0.468750
vt 0.437500 0.468750
vt 0.500000 0.500000
vt 0.500000 0.468750
vt 0.625000 0.500000
vt 0.625000 0.468750
vt 0.500000 0.437500
vt 0.500000 0.468750
vt 0.500000 0.531250
vt 0.562500 0.500000
vt 0.562500 0.468750
vt 0.500000 0.500000
vt 0.562500 0.468750
vt 0.500000 0.468750
vt 0.500000 0.531250
vt 0.562500 0.500000
vt 0.500000 0.437500
vt 0.562500 0.468750
vt 0.500000 0.468750
vt 0.437500 0.468750
vt 0.625000 0.500000
vt 0.625000 0.468750
vt 0.562500 0.468750
vt 0.625000 0.500000
vt 0.625000 0.468750
vt 0.062500 0.406250
vt -0.000000 0.562500
vt -0.000000 0.406250
vt 0.062500 0.406250
vt 0.312500 0.562500
vt 0.312500 0.406250
vt 0.312500 0.375000
vt 0.312500 0.406250
vt 0.062500 0.562500
vt 0.312500 0.593750
vt 0.562500 0.343750
vt 1.000000 0.250000
vt 0.937500 0.343750
vt 1.000000 0.906250
vt -0.000000 1.000000
vt 1.000000 1.000000
vt 1.000000 0.250000
vt -0.000000 0.000000
vt 1.000000 0.000000
vt 0.437500 0.343750
vt -0.000000 0.250000
vt 0.062500 0.343750
vt 1.000000 0.812500
vt -0.000000 0.625000
vt -0.000000 0.812500
vt -0.000000 0.906250
vt 1.000000 0.812500
vt -0.000000 0.812500
vt 0.375000 0.406250
vt 0.500000 0.500000
vt 0.437500 0.468750
vt 0.500000 0.468750
vt 0.500000 0.437500
vt 0.500000 0.468750
vt 0.562500 0.500000
vt 0.500000 0.531250
vt 0.562500 0.468750
vt 0.625000 0.500000
vt 0.625000 0.468750
vt 0.562500 0.468750
vt 0.562500 0.468750
vt 0.500000 0.500000
vt 0.500000 0.468750
vt 0.562500 0.500000
vt 0.500000 0.531250
vt 0.562500 0.468750
vt 0.500000 0.437500
vt 0.500000 0.468750
vt 0.437500 0.468750
vt 0.500000 0.500000
vt 0.437500 0.468750
vt 0.500000 0.468750
vt 0.625000 0.500000
vt 0.625000 0.468750
vt 0.500000 0.437500
vt 0.500000 0.468750
vt 0.562500 0.500000
vt 0.500000 0.531250
vt 0.562500 0.468750
vt 0.562500 0.468750
vt 0.500000 0.500000
vt 0.500000 0.468750
vt 0.562500 0.500000
vt 0.500000 0.531250
vt 0.562500 0.468750
vt 0.500000 0.437500
vt 0.500000 0.468750
vt 0.437500 0.468750
vt 0.625000 0.500000
vt 0.625000 0.468750
vt 0.562500 0.500000
vt 0.062500 0.562500
vt 0.062500 0.375000
vt 0.062500 0.593750
vt 0.500000 0.250000
vt -0.000000 0.906250
vt -0.000000 0.250000
vt 0.500000 0.250000
vt 1.000000 0.625000
vt 1.000000 0.906250
vt 0.375000 0.562500
vt 0.437500 0.500000
vt 0.562500 0.437500
vt 0.562500 0.531250
vt 0.562500 0.500000
vt 0.562500 0.531250
vt 0.562500 0.437500
vt 0.437500 0.500000
vt 0.437500 0.500000
vt 0.562500 0.500000
vt 0.562500 0.437500
vt 0.562500 0.531250
vt 0.562500 0.531250
vt 0.562500 0.437500
vt 0.437500 0.500000
vt 0.562500 0.500000
vt 0.562500 0.500000
vt 0.062500 0.562500
vt 0.062500 0.375000
vt 0.062500 0.593750
vt 0.500000 0.250000
vt -0.000000 0.906250
vt -0.000000 0.250000
vt 0.500000 0.250000
vt 1.000000 0.625000
vt 1.000000 0.906250
vt 0.375000 0.562500
vt 0.437500 0.500000
vt 0.562500 0.437500
vt 0.562500 0.531250
vt 0.562500 0.500000
vt 0.562500 0.531250
vt 0.562500 0.437500
vt 0.437500 0.500000
vt 0.437500 0.500000
vt 0.562500 0.500000
vt 0.562500 0.437500
vt 0.562500 0.531250
vt 0.562500 0.531250
vt 0.562500 0.437500
vt 0.437500 0.500000
vt 0.562500 0.500000
vn -1.0000 0.0000 0.0000
vn 0.0000 1.0000 0.0000
vn 0.0000 0.0000 1.0000
vn 0.0000 0.0000 -1.0000
vn 0.0000 0.3162 -0.9487
vn 0.0000 -1.0000 0.0000
vn 1.0000 0.0000 0.0000
vn 0.0000 0.3162 0.9487
usemtl Material.004
s off
f 62/93/17 64/94/17 61/95/17
f 42/96/17 44/97/17 41/98/17
f 55/99/18 41/100/18 56/101/18
f 56/102/19 44/97/19 53/103/19
f 54/104/20 42/105/20 55/99/20
f 52/106/17 46/107/17 49/108/17
f 52/109/21 50/110/21 51/111/21
f 47/112/22 51/113/22 48/114/22
f 48/115/23 50/116/23 45/117/23
f 46/118/18 50/119/18 49/120/18
f 48/121/24 46/122/24 47/123/24
f 53/124/23 55/99/23 56/101/23
f 60/125/23 58/126/23 57/127/23
f 57/128/20 64/94/20 60/129/20
f 59/130/19 62/131/19 58/126/19
f 78/132/17 80/133/17 77/134/17
f 58/126/22 61/135/22 57/127/22
f 71/136/22 68/137/22 72/138/22
f 70/139/19 67/140/19 71/136/19
f 72/141/20 65/142/20 69/143/20
f 69/144/23 71/136/23 72/138/23
f 76/145/23 74/146/23 73/147/23
f 67/148/17 65/142/17 68/149/17
f 73/150/20 80/133/20 76/151/20
f 75/152/19 78/153/19 74/146/19
f 74/146/22 77/154/22 73/147/22
f 87/155/22 84/156/22 88/157/22
f 86/158/19 83/159/19 87/155/19
f 88/160/20 81/161/20 85/162/20
f 85/163/23 87/155/23 88/157/23
f 83/164/17 81/161/17 84/165/17
f 112/166/17 110/167/17 109/168/17
f 92/169/17 90/170/17 89/171/17
f 89/172/18 103/173/18 104/174/18
f 92/169/20 104/175/20 101/176/20
f 90/177/19 102/178/19 103/173/19
f 94/179/17 100/180/17 97/181/17
f 98/182/24 100/183/24 99/184/24
f 99/185/22 95/186/22 96/187/22
f 98/188/23 96/189/23 93/190/23
f 98/191/18 94/192/18 97/193/18
f 94/194/21 96/195/21 95/196/21
f 103/173/23 101/197/23 104/174/23
f 106/198/23 108/199/23 105/200/23
f 112/166/19 105/201/19 108/202/19
f 110/203/20 107/204/20 106/198/20
f 128/205/17 126/206/17 125/207/17
f 109/208/22 106/198/22 105/200/22
f 116/209/22 119/210/22 120/211/22
f 115/212/20 118/213/20 119/210/20
f 113/214/19 120/215/19 117/216/19
f 119/210/23 117/217/23 120/211/23
f 122/218/23 124/219/23 121/220/23
f 113/214/17 115/221/17 116/222/17
f 128/205/19 121/223/19 124/224/19
f 126/225/20 123/226/20 122/218/20
f 125/227/22 122/218/22 121/220/22
f 132/228/22 135/229/22 136/230/22
f 131/231/20 134/232/20 135/229/20
f 129/233/19 136/234/19 133/235/19
f 135/229/23 133/236/23 136/230/23
f 129/233/17 131/237/17 132/238/17
f 62/93/17 63/239/17 64/94/17
f 42/96/17 43/240/17 44/97/17
f 55/99/18 42/105/18 41/100/18
f 56/102/19 41/241/19 44/97/19
f 54/104/20 43/242/20 42/105/20
f 52/106/17 47/243/17 46/107/17
f 52/109/21 49/244/21 50/110/21
f 47/112/22 52/245/22 51/113/22
f 48/115/23 51/246/23 50/116/23
f 46/118/18 45/247/18 50/119/18
f 48/121/24 45/248/24 46/122/24
f 53/124/23 54/249/23 55/99/23
f 60/125/23 59/250/23 58/126/23
f 57/128/20 61/251/20 64/94/20
f 59/130/19 63/252/19 62/131/19
f 78/132/17 79/253/17 80/133/17
f 58/126/22 62/131/22 61/135/22
f 71/136/22 67/140/22 68/137/22
f 70/139/19 66/254/19 67/140/19
f 72/141/20 68/255/20 65/142/20
f 69/144/23 70/256/23 71/136/23
f 76/145/23 75/257/23 74/146/23
f 67/148/17 66/258/17 65/142/17
f 73/150/20 77/259/20 80/133/20
f 75/152/19 79/260/19 78/153/19
f 74/146/22 78/153/22 77/154/22
f 87/155/22 83/159/22 84/156/22
f 86/158/19 82/261/19 83/159/19
f 88/160/20 84/262/20 81/161/20
f 85/163/23 86/263/23 87/155/23
f 83/164/17 82/264/17 81/161/17
f 112/166/17 111/265/17 110/167/17
f 92/169/17 91/266/17 90/170/17
f 89/172/18 90/177/18 103/173/18
f 92/169/20 89/267/20 104/175/20
f 90/177/19 91/268/19 102/178/19
f 94/179/17 95/269/17 100/180/17
f 98/182/24 97/270/24 100/183/24
f 99/185/22 100/271/22 95/186/22
f 98/188/23 99/272/23 96/189/23
f 98/191/18 93/273/18 94/192/18
f 94/194/21 93/274/21 96/195/21
f 103/173/23 102/275/23 101/197/23
f 106/198/23 107/276/23 108/199/23
f 112/166/19 109/277/19 105/201/19
f 110/203/20 111/278/20 107/204/20
f 128/205/17 127/279/17 126/206/17
f 109/208/22 110/203/22 106/198/22
f 116/209/22 115/212/22 119/210/22
f 115/212/20 114/280/20 118/213/20
f 113/214/19 116/281/19 120/215/19
f 119/210/23 118/282/23 117/217/23
f 122/218/23 123/283/23 124/219/23
f 113/214/17 114/284/17 115/221/17
f 128/205/19 125/285/19 121/223/19
f 126/225/20 127/286/20 123/226/20
f 125/227/22 126/225/22 122/218/22
f 132/228/22 131/231/22 135/229/22
f 131/231/20 130/287/20 134/232/20
f 129/233/19 132/288/19 136/234/19
f 135/229/23 134/289/23 133/236/23
f 129/233/17 130/290/17 131/237/17
