# Blender v2.83.4 OBJ File: 'texel_gradecrssng.blend'
# www.blender.org
mtllib texel_gradecrssng.mtl
o TRACK_BASE_Plane
v 0.500000 0.375000 0.625000
v 0.500000 0.187500 0.625000
v 0.500000 0.187500 0.875000
v 0.500000 0.375000 0.875000
v 0.500000 0.375000 1.562500
v 0.500000 0.000000 3.125000
v 0.500000 0.375000 0.625000
v 0.500000 0.187500 0.625000
v 0.500000 0.187500 0.875000
v 0.500000 0.375000 0.875000
v 0.250000 0.187500 0.750000
v 0.250000 0.125000 0.812500
v 0.250000 0.250000 0.812500
v 0.187500 0.187500 0.875000
v 0.187500 0.125000 0.812500
v 0.187500 0.187500 0.750000
v 0.187500 0.250000 0.812500
v 0.250000 0.125000 0.687500
v 0.187500 0.125000 0.687500
v 0.187500 0.250000 0.687500
v 0.250000 0.187500 0.625000
v 0.187500 0.187500 0.625000
v 0.250000 0.250000 0.687500
v 0.250000 0.187500 0.875000
v -0.500000 0.375000 0.625000
v -0.500000 0.187500 0.625000
v -0.500000 0.187500 0.875000
v -0.500000 0.375000 0.875000
v -0.500000 0.375000 1.562500
v -0.500000 0.000000 3.125000
v 0.000000 0.375000 1.562500
v 0.000000 0.375000 0.875000
v 0.000000 0.187500 0.875000
v 0.000000 0.187500 0.625000
v 0.000000 0.375000 0.625000
v 0.000000 0.000000 3.125000
v -0.500000 0.375000 0.625000
v -0.500000 0.187500 0.625000
v -0.500000 0.187500 0.875000
v -0.500000 0.375000 0.875000
v 0.000000 0.375000 0.875000
v 0.000000 0.187500 0.875000
v 0.000000 0.187500 0.625000
v 0.000000 0.375000 0.625000
v -0.250000 0.187500 0.750000
v -0.250000 0.125000 0.812500
v -0.250000 0.250000 0.812500
v -0.187500 0.187500 0.875000
v -0.187500 0.125000 0.812500
v -0.187500 0.187500 0.750000
v -0.187500 0.250000 0.812500
v -0.250000 0.125000 0.687500
v -0.187500 0.125000 0.687500
v -0.187500 0.250000 0.687500
v -0.250000 0.187500 0.625000
v -0.187500 0.187500 0.625000
v -0.250000 0.250000 0.687500
v -0.250000 0.187500 0.875000
v 0.500000 0.375000 -0.625000
v 0.500000 0.375000 0.000000
v 0.500000 0.187500 -0.625000
v 0.500000 0.187500 -0.875000
v 0.500000 0.375000 -0.875000
v 0.500000 0.375000 -1.562500
v 0.500000 0.000000 -3.125000
v 0.500000 0.000000 0.000000
v 0.500000 0.375000 -0.625000
v 0.500000 0.187500 -0.625000
v 0.500000 0.187500 -0.875000
v 0.500000 0.375000 -0.875000
v 0.250000 0.187500 -0.750000
v 0.250000 0.125000 -0.812500
v 0.250000 0.250000 -0.812500
v 0.187500 0.187500 -0.875000
v 0.187500 0.125000 -0.812500
v 0.187500 0.187500 -0.750000
v 0.187500 0.250000 -0.812500
v 0.250000 0.125000 -0.687500
v 0.187500 0.125000 -0.687500
v 0.187500 0.250000 -0.687500
v 0.250000 0.187500 -0.625000
v 0.187500 0.187500 -0.625000
v 0.250000 0.250000 -0.687500
v 0.250000 0.187500 -0.875000
v -0.500000 0.375000 -0.625000
v -0.500000 0.375000 0.000000
v -0.500000 0.187500 -0.625000
v -0.500000 0.187500 -0.875000
v -0.500000 0.375000 -0.875000
v -0.500000 0.375000 -1.562500
v -0.500000 0.000000 -3.125000
v -0.500000 0.000000 0.000000
v 0.000000 0.375000 -1.562500
v 0.000000 0.375000 -0.875000
v 0.000000 0.187500 -0.875000
v 0.000000 0.187500 -0.625000
v 0.000000 0.375000 0.000000
v 0.000000 0.375000 -0.625000
v 0.000000 0.000000 -3.125000
v -0.500000 0.375000 -0.625000
v -0.500000 0.187500 -0.625000
v -0.500000 0.187500 -0.875000
v -0.500000 0.375000 -0.875000
v 0.000000 0.375000 -0.875000
v 0.000000 0.187500 -0.875000
v 0.000000 0.187500 -0.625000
v 0.000000 0.375000 -0.625000
v -0.250000 0.187500 -0.750000
v -0.250000 0.125000 -0.812500
v -0.250000 0.250000 -0.812500
v -0.187500 0.187500 -0.875000
v -0.187500 0.125000 -0.812500
v -0.187500 0.187500 -0.750000
v -0.187500 0.250000 -0.812500
v -0.250000 0.125000 -0.687500
v -0.187500 0.125000 -0.687500
v -0.187500 0.250000 -0.687500
v -0.250000 0.187500 -0.625000
v -0.187500 0.187500 -0.625000
v -0.250000 0.250000 -0.687500
v -0.250000 0.187500 -0.875000
vt 0.562500 0.046875
vt -0.000000 0.000000
vt 0.781250 0.000000
vt 0.859375 0.000000
vt 0.812500 0.125000
vt 0.859375 0.125000
vt 0.921875 0.000000
vt 0.968750 0.125000
vt 0.921875 0.125000
vt 0.390625 0.218750
vt 0.000000 0.093750
vt 0.390625 0.093750
vt 0.781250 0.093750
vt 0.625000 0.218750
vt 0.625000 0.093750
vt 0.921875 0.125000
vt 0.859375 0.000000
vt 0.921875 0.000000
vt 0.562500 0.218750
vt 0.562500 0.093750
vt 0.562500 0.046875
vt 0.625000 0.046875
vt 0.781250 0.000000
vt 0.812500 0.125000
vt 0.859375 0.125000
vt 0.968750 0.125000
vt 0.921875 0.125000
vt 0.000000 0.093750
vt 0.390625 0.093750
vt 0.781250 0.093750
vt 0.625000 0.093750
vt 0.859375 0.000000
vt 0.921875 0.000000
vt 0.562500 0.093750
vt 0.562500 0.046875
vt 0.625000 0.046875
vt 0.812500 0.125000
vt 0.859375 0.000000
vt 0.859375 0.125000
vt 0.968750 0.125000
vt 0.921875 0.000000
vt 0.921875 0.125000
vt 0.000000 0.093750
vt 0.390625 0.218750
vt 0.390625 0.093750
vt 0.625000 0.218750
vt 0.625000 0.093750
vt 0.859375 0.000000
vt 0.921875 0.125000
vt 0.921875 0.000000
vt 0.562500 0.218750
vt 0.562500 0.093750
vt 0.562500 0.046875
vt -0.000000 0.000000
vt 0.812500 0.125000
vt 0.859375 0.125000
vt 0.968750 0.125000
vt 0.921875 0.125000
vt 0.000000 0.093750
vt 0.390625 0.093750
vt 0.625000 0.093750
vt 0.859375 0.000000
vt 0.921875 0.000000
vt 0.562500 0.093750
vt 0.625000 0.046875
vt 0.812500 0.000000
vt 0.968750 0.000000
vt 0.000000 0.218750
vt 0.781250 0.218750
vt 0.859375 0.125000
vt -0.000000 0.000000
vt -0.000000 0.000000
vt 0.812500 0.000000
vt 0.968750 0.000000
vt 0.000000 0.218750
vt 0.859375 0.125000
vt 0.625000 0.046875
vt 0.906250 0.281250
vt 0.937500 0.250000
vt 0.937500 0.312500
vt 0.843750 0.156250
vt 0.875000 0.156250
vt 0.875000 0.187500
vt 0.906250 0.343750
vt 0.875000 0.343750
vt 0.875000 0.312500
vt 0.937500 0.156250
vt 0.937500 0.187500
vt 0.937500 0.343750
vt 0.906250 0.312500
vt 0.906250 0.218750
vt 0.875000 0.250000
vt 0.875000 0.187500
vt 0.968750 0.156250
vt 0.968750 0.187500
vt 0.968750 0.343750
vt 0.937500 0.312500
vt 0.843750 0.343750
vt 0.843750 0.312500
vt 0.843750 0.281250
vt 0.875000 0.250000
vt 0.875000 0.312500
vt 0.968750 0.281250
vt 0.843750 0.187500
vt 0.968750 0.218750
vt 0.937500 0.250000
vt 0.937500 0.187500
vt 0.843750 0.218750
vt 0.968750 0.312500
vt 0.906250 0.281250
vt 0.937500 0.312500
vt 0.937500 0.250000
vt 0.843750 0.156250
vt 0.875000 0.187500
vt 0.875000 0.156250
vt 0.906250 0.343750
vt 0.875000 0.312500
vt 0.875000 0.343750
vt 0.937500 0.187500
vt 0.937500 0.156250
vt 0.937500 0.343750
vt 0.906250 0.312500
vt 0.906250 0.218750
vt 0.875000 0.187500
vt 0.875000 0.250000
vt 0.968750 0.187500
vt 0.968750 0.156250
vt 0.968750 0.343750
vt 0.937500 0.312500
vt 0.843750 0.312500
vt 0.843750 0.343750
vt 0.875000 0.250000
vt 0.843750 0.281250
vt 0.875000 0.312500
vt 0.968750 0.281250
vt 0.843750 0.187500
vt 0.937500 0.250000
vt 0.968750 0.218750
vt 0.937500 0.187500
vt 0.843750 0.218750
vt 0.968750 0.312500
vt 0.906250 0.281250
vt 0.937500 0.312500
vt 0.937500 0.250000
vt 0.843750 0.156250
vt 0.875000 0.187500
vt 0.875000 0.156250
vt 0.906250 0.343750
vt 0.875000 0.312500
vt 0.875000 0.343750
vt 0.937500 0.187500
vt 0.937500 0.156250
vt 0.937500 0.343750
vt 0.906250 0.312500
vt 0.906250 0.218750
vt 0.875000 0.187500
vt 0.875000 0.250000
vt 0.968750 0.187500
vt 0.968750 0.156250
vt 0.968750 0.343750
vt 0.937500 0.312500
vt 0.843750 0.312500
vt 0.843750 0.343750
vt 0.875000 0.250000
vt 0.843750 0.281250
vt 0.875000 0.312500
vt 0.968750 0.281250
vt 0.843750 0.187500
vt 0.937500 0.250000
vt 0.968750 0.218750
vt 0.937500 0.187500
vt 0.843750 0.218750
vt 0.968750 0.312500
vt 0.906250 0.281250
vt 0.937500 0.250000
vt 0.937500 0.312500
vt 0.843750 0.156250
vt 0.875000 0.156250
vt 0.875000 0.187500
vt 0.906250 0.343750
vt 0.875000 0.343750
vt 0.875000 0.312500
vt 0.937500 0.156250
vt 0.937500 0.187500
vt 0.937500 0.343750
vt 0.906250 0.312500
vt 0.906250 0.218750
vt 0.875000 0.250000
vt 0.875000 0.187500
vt 0.968750 0.156250
vt 0.968750 0.187500
vt 0.968750 0.343750
vt 0.937500 0.312500
vt 0.843750 0.343750
vt 0.843750 0.312500
vt 0.843750 0.281250
vt 0.875000 0.250000
vt 0.875000 0.312500
vt 0.968750 0.281250
vt 0.843750 0.187500
vt 0.968750 0.218750
vt 0.937500 0.250000
vt 0.937500 0.187500
vt 0.843750 0.218750
vt 0.968750 0.312500
vn 1.0000 0.0000 0.0000
vn 0.0000 0.0000 -1.0000
vn 0.0000 0.0000 1.0000
vn 0.0000 0.9724 0.2334
vn 0.0000 1.0000 0.0000
vn -1.0000 0.0000 0.0000
vn 0.0000 0.9724 -0.2334
vn 0.9045 0.4264 0.0000
vn 0.5773 0.8165 0.0000
vn 0.6302 -0.7173 0.2971
vn -0.5773 0.0000 0.8165
vn -0.6302 -0.7173 0.2971
vn -0.9045 0.4264 0.0000
vn -0.5773 0.8165 0.0000
vn -0.6302 -0.7173 -0.2971
vn 0.6302 -0.7173 -0.2971
vn -0.5773 0.0000 -0.8165
vn 0.5773 0.0000 -0.8165
vn 0.5773 0.0000 0.8165
usemtl Material
s off
f 3/1/1 6/2/1 66/3/1
f 42/4/2 10/5/2 9/6/2
f 44/7/3 8/8/3 7/9/3
f 31/10/4 6/11/4 5/12/4
f 60/13/5 35/14/5 1/15/5
f 34/16/5 3/17/5 2/18/5
f 32/19/5 5/12/5 4/20/5
f 27/21/6 26/22/6 92/23/6
f 40/24/2 42/4/2 39/25/2
f 38/26/3 44/7/3 37/27/3
f 30/28/4 31/10/4 29/29/4
f 35/14/5 86/30/5 25/31/5
f 27/32/5 34/16/5 26/33/5
f 29/29/5 32/19/5 28/34/5
f 62/35/1 61/36/1 66/3/1
f 70/37/3 105/38/3 69/39/3
f 68/40/2 107/41/2 67/42/2
f 65/43/7 93/44/7 64/45/7
f 98/46/5 60/13/5 59/47/5
f 62/48/5 96/49/5 61/50/5
f 64/45/5 94/51/5 63/52/5
f 88/53/6 91/54/6 92/23/6
f 105/38/3 103/55/3 102/56/3
f 107/41/2 101/57/2 100/58/2
f 93/44/7 91/59/7 90/60/7
f 86/30/5 98/46/5 85/61/5
f 96/49/5 88/62/5 87/63/5
f 94/51/5 90/60/5 89/64/5
f 66/3/1 60/13/1 2/65/1
f 60/13/1 1/15/1 2/65/1
f 4/20/1 5/12/1 3/1/1
f 5/12/1 6/2/1 3/1/1
f 66/3/1 2/65/1 3/1/1
f 42/4/2 41/66/2 10/5/2
f 44/7/3 43/67/3 8/8/3
f 31/10/4 36/68/4 6/11/4
f 60/13/5 97/69/5 35/14/5
f 34/16/5 33/70/5 3/17/5
f 32/19/5 31/10/5 5/12/5
f 25/31/6 86/30/6 26/22/6
f 86/30/6 92/23/6 26/22/6
f 30/71/6 29/29/6 27/21/6
f 29/29/6 28/34/6 27/21/6
f 30/71/6 27/21/6 92/23/6
f 40/24/2 41/66/2 42/4/2
f 38/26/3 43/67/3 44/7/3
f 30/28/4 36/68/4 31/10/4
f 35/14/5 97/69/5 86/30/5
f 27/32/5 33/70/5 34/16/5
f 29/29/5 31/10/5 32/19/5
f 59/47/1 60/13/1 61/36/1
f 60/13/1 66/3/1 61/36/1
f 65/72/1 64/45/1 62/35/1
f 64/45/1 63/52/1 62/35/1
f 65/72/1 62/35/1 66/3/1
f 70/37/3 104/73/3 105/38/3
f 68/40/2 106/74/2 107/41/2
f 65/43/7 99/75/7 93/44/7
f 98/46/5 97/69/5 60/13/5
f 62/48/5 95/76/5 96/49/5
f 64/45/5 93/44/5 94/51/5
f 92/23/6 86/30/6 87/77/6
f 86/30/6 85/61/6 87/77/6
f 89/64/6 90/60/6 88/53/6
f 90/60/6 91/54/6 88/53/6
f 92/23/6 87/77/6 88/53/6
f 105/38/3 104/73/3 103/55/3
f 107/41/2 106/74/2 101/57/2
f 93/44/7 99/75/7 91/59/7
f 86/30/5 97/69/5 98/46/5
f 96/49/5 95/76/5 88/62/5
f 94/51/5 93/44/5 90/60/5
s 1
f 11/78/8 13/79/9 12/80/10
f 14/81/11 15/82/12 12/83/10
f 16/84/13 17/85/14 13/86/9
f 15/82/12 19/87/15 18/88/16
f 20/89/14 16/84/13 11/90/8
f 16/91/13 20/92/14 19/93/15
f 19/87/15 22/94/17 21/95/18
f 22/96/17 20/89/14 23/97/9
f 17/85/14 14/98/11 24/99/19
f 11/78/8 21/100/18 23/101/9
f 21/100/18 11/78/8 18/102/16
f 18/102/16 11/78/8 12/80/10
f 12/80/10 13/79/9 24/103/19
f 14/81/11 12/83/10 24/104/19
f 16/84/13 13/86/9 11/90/8
f 15/82/12 18/88/16 12/83/10
f 20/89/14 11/90/8 23/97/9
f 16/91/13 14/105/11 17/106/14
f 14/105/11 16/91/13 15/107/12
f 15/107/12 16/91/13 19/93/15
f 19/93/15 20/92/14 22/108/17
f 19/87/15 21/95/18 18/88/16
f 22/96/17 23/97/9 21/109/18
f 17/85/14 24/99/19 13/86/9
f 45/110/13 46/111/12 47/112/14
f 48/113/19 46/114/12 49/115/10
f 50/116/8 47/117/14 51/118/9
f 49/115/10 52/119/15 53/120/16
f 54/121/9 45/122/13 50/116/8
f 50/123/8 53/124/16 54/125/9
f 53/120/16 55/126/17 56/127/18
f 56/128/18 57/129/14 54/121/9
f 51/118/9 58/130/11 48/131/19
f 45/110/13 57/132/14 55/133/17
f 55/133/17 52/134/15 45/110/13
f 52/134/15 46/111/12 45/110/13
f 46/111/12 58/135/11 47/112/14
f 48/113/19 58/136/11 46/114/12
f 50/116/8 45/122/13 47/117/14
f 49/115/10 46/114/12 52/119/15
f 54/121/9 57/129/14 45/122/13
f 50/123/8 51/137/9 48/138/19
f 48/138/19 49/139/10 50/123/8
f 49/139/10 53/124/16 50/123/8
f 53/124/16 56/140/18 54/125/9
f 53/120/16 52/119/15 55/126/17
f 56/128/18 55/141/17 57/129/14
f 51/118/9 47/117/14 58/130/11
f 71/142/8 72/143/16 73/144/9
f 74/145/17 72/146/16 75/147/15
f 76/148/13 73/149/9 77/150/14
f 75/147/15 78/151/10 79/152/12
f 80/153/14 71/154/8 76/148/13
f 76/155/13 79/156/12 80/157/14
f 79/152/12 81/158/19 82/159/11
f 82/160/11 83/161/9 80/153/14
f 77/150/14 84/162/18 74/163/17
f 71/142/8 83/164/9 81/165/19
f 81/165/19 78/166/10 71/142/8
f 78/166/10 72/143/16 71/142/8
f 72/143/16 84/167/18 73/144/9
f 74/145/17 84/168/18 72/146/16
f 76/148/13 71/154/8 73/149/9
f 75/147/15 72/146/16 78/151/10
f 80/153/14 83/161/9 71/154/8
f 76/155/13 77/169/14 74/170/17
f 74/170/17 75/171/15 76/155/13
f 75/171/15 79/156/12 76/155/13
f 79/156/12 82/172/11 80/157/14
f 79/152/12 78/151/10 81/158/19
f 82/160/11 81/173/19 83/161/9
f 77/150/14 73/149/9 84/162/18
f 108/174/13 110/175/14 109/176/15
f 111/177/18 112/178/16 109/179/15
f 113/180/8 114/181/9 110/182/14
f 112/178/16 116/183/10 115/184/12
f 117/185/9 113/180/8 108/186/13
f 113/187/8 117/188/9 116/189/10
f 116/183/10 119/190/19 118/191/11
f 119/192/19 117/185/9 120/193/14
f 114/181/9 111/194/18 121/195/17
f 108/174/13 118/196/11 120/197/14
f 118/196/11 108/174/13 115/198/12
f 115/198/12 108/174/13 109/176/15
f 109/176/15 110/175/14 121/199/17
f 111/177/18 109/179/15 121/200/17
f 113/180/8 110/182/14 108/186/13
f 112/178/16 115/184/12 109/179/15
f 117/185/9 108/186/13 120/193/14
f 113/187/8 111/201/18 114/202/9
f 111/201/18 113/187/8 112/203/16
f 112/203/16 113/187/8 116/189/10
f 116/189/10 117/188/9 119/204/19
f 116/183/10 118/191/11 115/184/12
f 119/192/19 120/193/14 118/205/11
f 114/181/9 121/195/17 110/182/14
o RAIL_LEFT_Cube_Cube.002
v -0.500000 0.250000 0.781250
v -0.500000 0.187500 0.656250
v -0.500000 0.187500 0.843750
v -0.500000 0.250000 0.718750
v 0.500000 0.187500 0.656250
v 0.500000 0.250000 0.718750
v 0.500000 0.187500 0.843750
v 0.500000 0.250000 0.781250
v -0.500000 0.312500 0.718750
v -0.500000 0.312500 0.781250
v 0.500000 0.312500 0.718750
v 0.500000 0.312500 0.781250
v -0.500000 0.375000 0.687500
v 0.500000 0.375000 0.812500
v 0.500000 0.375000 0.687500
v 0.500000 0.312500 0.812500
v -0.500000 0.312500 0.687500
v 0.500000 0.312500 0.687500
v -0.500000 0.375000 0.812500
v -0.500000 0.312500 0.812500
vt 0.031250 0.656250
vt 0.062500 0.593750
vt 0.062500 0.687500
vt 0.562500 0.593750
vt 0.062500 0.562500
vt 0.562500 0.562500
vt 0.031250 0.625000
vt 0.062500 0.687500
vt 0.062500 0.593750
vt 0.562500 0.718750
vt 0.562500 0.687500
vt -0.000000 0.625000
vt 0.031250 0.625000
vt 0.062500 0.750000
vt 0.062500 0.718750
vt 0.562500 0.531250
vt 0.062500 0.562500
vt 0.062500 0.531250
vt -0.000000 0.656250
vt 0.031250 0.656250
vt 0.531250 0.343750
vt 0.031250 0.406250
vt 0.031250 0.343750
vt 0.031250 0.500000
vt 0.531250 0.437500
vt 0.031250 0.437500
vt 0.031250 0.406250
vt -0.000000 0.343750
vt -0.000000 0.406250
vt 0.531250 0.343750
vt 0.562500 0.406250
vt 0.562500 0.343750
vt 0.531250 0.406250
vt 0.031250 0.437500
vt 0.531250 0.437500
vt 0.031250 0.343750
vt 0.531250 0.312500
vt 0.031250 0.312500
vt 0.062500 0.593750
vt -0.000000 0.656250
vt 0.562500 0.750000
vt 0.562500 0.562500
vt -0.000000 0.625000
vt 0.531250 0.406250
vt 0.531250 0.500000
vn -1.0000 0.0000 0.0000
vn 0.0000 0.7071 -0.7071
vn 1.0000 0.0000 0.0000
vn 0.0000 0.7071 0.7071
vn 0.0000 0.0000 1.0000
vn 0.0000 0.0000 -1.0000
vn 0.0000 1.0000 0.0000
vn 0.0000 -1.0000 0.0000
usemtl Material
s 1
f 122/206/20 123/207/20 124/208/20
f 125/209/21 126/210/21 123/211/21
f 127/212/22 128/213/22 126/214/22
f 129/215/23 124/208/23 128/216/23
f 122/206/20 130/217/20 125/218/20
f 129/215/24 131/219/24 122/220/24
f 125/221/25 132/222/25 127/223/25
f 127/212/22 133/224/22 129/225/22
f 134/226/26 135/227/26 136/228/26
f 137/229/27 138/230/27 139/231/27
f 137/232/22 136/233/22 135/234/22
f 138/235/20 140/236/20 134/237/20
f 141/238/24 135/239/24 140/240/24
f 139/241/25 134/242/25 136/243/25
f 122/206/20 125/218/20 123/207/20
f 125/209/21 127/244/21 126/210/21
f 127/212/22 129/225/22 128/213/22
f 129/215/23 122/220/23 124/208/23
f 122/206/20 131/245/20 130/217/20
f 129/215/24 133/246/24 131/219/24
f 125/221/25 130/247/25 132/222/25
f 127/212/22 132/248/22 133/224/22
f 134/226/26 140/249/26 135/227/26
f 137/229/27 141/250/27 138/230/27
f 137/232/22 139/241/22 136/233/22
f 138/235/20 141/238/20 140/236/20
f 141/238/24 137/232/24 135/239/24
f 139/241/25 138/235/25 134/242/25
o RAIL_RIGHT_Cube_Cube.003
v -0.500000 0.187500 -0.656250
v -0.500000 0.250000 -0.781250
v -0.500000 0.187500 -0.843750
v 0.500000 0.187500 -0.656250
v -0.500000 0.250000 -0.718750
v 0.500000 0.187500 -0.843750
v 0.500000 0.250000 -0.718750
v 0.500000 0.250000 -0.781250
v -0.500000 0.312500 -0.718750
v -0.500000 0.312500 -0.781250
v 0.500000 0.312500 -0.718750
v 0.500000 0.312500 -0.781250
v 0.500000 0.375000 -0.812500
v -0.500000 0.375000 -0.687500
v 0.500000 0.375000 -0.687500
v -0.500000 0.312500 -0.687500
v 0.500000 0.312500 -0.812500
v 0.500000 0.312500 -0.687500
v -0.500000 0.375000 -0.812500
v -0.500000 0.312500 -0.812500
vt 0.062500 0.593750
vt 0.031250 0.656250
vt 0.062500 0.687500
vt 0.062500 0.562500
vt 0.562500 0.593750
vt 0.562500 0.562500
vt 0.062500 0.687500
vt 0.031250 0.625000
vt 0.062500 0.593750
vt 0.562500 0.718750
vt 0.562500 0.687500
vt -0.000000 0.625000
vt 0.031250 0.625000
vt 0.062500 0.750000
vt 0.062500 0.718750
vt 0.062500 0.562500
vt 0.562500 0.531250
vt 0.062500 0.531250
vt -0.000000 0.656250
vt 0.031250 0.656250
vt 0.031250 0.406250
vt 0.531250 0.343750
vt 0.031250 0.343750
vt 0.531250 0.437500
vt 0.031250 0.500000
vt 0.031250 0.437500
vt -0.000000 0.343750
vt 0.031250 0.406250
vt -0.000000 0.406250
vt 0.562500 0.406250
vt 0.531250 0.343750
vt 0.562500 0.343750
vt 0.031250 0.437500
vt 0.531250 0.406250
vt 0.531250 0.437500
vt 0.531250 0.312500
vt 0.031250 0.343750
vt 0.031250 0.312500
vt 0.062500 0.593750
vt -0.000000 0.656250
vt 0.562500 0.750000
vt 0.562500 0.562500
vt -0.000000 0.625000
vt 0.531250 0.406250
vt 0.531250 0.500000
vn -1.0000 0.0000 0.0000
vn 0.0000 0.7071 0.7071
vn 1.0000 0.0000 0.0000
vn 0.0000 0.7071 -0.7071
vn 0.0000 0.0000 -1.0000
vn 0.0000 0.0000 1.0000
vn 0.0000 1.0000 0.0000
vn 0.0000 -1.0000 0.0000
usemtl Material
s 1
f 142/251/28 143/252/28 144/253/28
f 145/254/29 146/255/29 142/256/29
f 147/257/30 148/258/30 145/259/30
f 144/253/31 149/260/31 147/261/31
f 150/262/28 143/252/28 146/263/28
f 151/264/32 149/260/32 143/265/32
f 152/266/33 146/267/33 148/268/33
f 153/269/30 148/258/30 149/270/30
f 154/271/34 155/272/34 156/273/34
f 157/274/35 158/275/35 159/276/35
f 156/277/30 158/278/30 154/279/30
f 160/280/28 157/281/28 155/282/28
f 154/283/32 161/284/32 160/285/32
f 155/286/33 159/287/33 156/288/33
f 142/251/28 146/263/28 143/252/28
f 145/254/29 148/289/29 146/255/29
f 147/257/30 149/270/30 148/258/30
f 144/253/31 143/265/31 149/260/31
f 150/262/28 151/290/28 143/252/28
f 151/264/32 153/291/32 149/260/32
f 152/266/33 150/292/33 146/267/33
f 153/269/30 152/293/30 148/258/30
f 154/271/34 160/294/34 155/272/34
f 157/274/35 161/295/35 158/275/35
f 156/277/30 159/287/30 158/278/30
f 160/280/28 161/284/28 157/281/28
f 154/283/32 158/278/32 161/284/32
f 155/286/33 157/281/33 159/287/33
