# Blender v2.79 (sub 0) OBJ File: ''
# www.blender.org
mtllib spsf_crossing.mtl
o RAIL_LEFT
v 0.500000 0.359287 0.717549
v -0.500000 0.359287 0.717549
v 0.500000 0.359287 0.793749
v -0.500000 0.359287 0.793749
v -0.500000 0.317500 0.793749
v 0.500000 0.317500 0.793749
v -0.500000 0.359287 0.793749
v -0.500000 0.359287 0.717549
v 0.500000 0.317500 0.717549
v -0.500000 0.317500 0.717549
v -0.500000 0.317500 0.717549
v 0.500000 0.297500 0.742949
v -0.500000 0.297500 0.742949
v -0.500000 0.297500 0.768349
v 0.500000 0.297500 0.768349
v -0.500000 0.317500 0.793749
v -0.500000 0.200000 0.832000
v 0.500000 0.200000 0.832000
v 0.500000 0.220000 0.768349
v -0.500000 0.220000 0.768349
v 0.500000 0.220000 0.742949
v 0.500000 0.200000 0.679000
v -0.500000 0.200000 0.679000
v -0.500000 0.220000 0.742949
v 0.500000 0.190500 0.679449
v -0.500000 0.190500 0.679449
v -0.500000 0.190500 0.831849
v 0.500000 0.190500 0.831849
v -0.500000 0.190500 0.831849
v -0.500000 0.190500 0.679449
v -0.500000 0.368300 0.726562
v 0.500000 0.368300 0.726562
v -0.500000 0.359287 0.717549
v -0.500000 0.359287 0.793749
v 0.500000 0.368300 0.784736
v -0.500000 0.368300 0.784736
v -0.500000 0.368300 0.726562
v -0.500000 0.368300 0.784736
vt 0.538020 0.972770
vt 0.010720 0.994800
vt 0.010720 0.972770
vt 0.010720 0.994800
vt 0.538020 0.972770
vt 0.538020 0.994800
vt 0.010720 0.994800
vt 0.538020 0.984260
vt 0.538020 0.994800
vt 0.538020 0.984260
vt 0.010720 0.994800
vt 0.010720 0.984260
vt 0.538020 0.932850
vt 0.010720 0.943390
vt 0.010720 0.932850
vt 0.010720 0.932850
vt 0.538020 0.943390
vt 0.010720 0.943390
vt 0.010720 0.989800
vt 0.538020 0.994800
vt 0.010720 0.994800
vt 0.010720 0.953150
vt 0.538020 0.958150
vt 0.010720 0.958150
vt 0.538020 0.994800
vt 0.010720 0.914450
vt 0.538020 0.914450
vt 0.538020 0.943390
vt 0.014440 0.887790
vt 0.541730 0.883040
vt 0.541730 0.887790
vt 0.541730 0.847610
vt 0.014440 0.852370
vt 0.014440 0.847610
vt 0.541730 0.883040
vt 0.014440 0.852370
vt 0.541730 0.852370
vt 0.611840 0.912980
vt 0.541930 0.917330
vt 0.542010 0.912980
vt 0.582740 0.926490
vt 0.571110 0.926490
vt 0.571110 0.962000
vt 0.582740 0.962000
vt 0.559460 0.971180
vt 0.594380 0.971180
vt 0.559460 0.990310
vt 0.594380 0.990310
vt 0.563590 0.994450
vt 0.630580 0.912980
vt 0.700480 0.917330
vt 0.630370 0.917330
vt 0.659680 0.926490
vt 0.671310 0.926490
vt 0.659680 0.962000
vt 0.671310 0.962000
vt 0.648040 0.971180
vt 0.682950 0.990310
vt 0.682950 0.971180
vt 0.678830 0.994450
vt 0.648040 0.990310
vt 0.538020 0.994800
vt 0.010720 0.972770
vt 0.010720 0.984260
vt 0.538020 0.994800
vt 0.538020 0.932850
vt 0.538020 0.989800
vt 0.538020 0.953150
vt 0.010720 0.994800
vt 0.014440 0.883040
vt 0.014440 0.883040
vt 0.612050 0.917330
vt 0.590260 0.994450
vt 0.700410 0.912980
vt 0.652160 0.994450
vn 0.0000 0.0000 1.0000
vn 0.0000 0.0000 -1.0000
vn 0.0000 -0.7857 -0.6186
vn 0.0000 -0.7857 0.6186
vn 0.0000 0.9540 0.2998
vn 0.0000 0.9544 -0.2985
vn 0.0000 -0.0472 -0.9989
vn 0.0000 -0.0159 0.9999
vn 0.0000 -1.0000 -0.0000
vn 0.0000 0.7071 -0.7071
vn 0.0000 0.7071 0.7071
vn 0.0000 1.0000 0.0000
vn 1.0000 0.0000 0.0000
vn -1.0000 0.0000 0.0000
usemtl None
s off
f 6/1/1 7/2/1 5/3/1
f 1/4/2 10/5/2 8/6/2
f 9/7/3 13/8/3 11/9/3
f 15/10/4 16/11/4 14/12/4
f 18/13/5 20/14/5 17/15/5
f 22/16/6 24/17/6 21/18/6
f 25/19/7 23/20/7 22/21/7
f 27/22/8 18/23/8 17/24/8
f 30/25/9 28/26/9 29/27/9
f 15/10/1 20/14/1 19/28/1
f 13/8/2 21/18/2 24/17/2
f 32/29/10 33/30/10 31/31/10
f 3/32/11 36/33/11 34/34/11
f 32/35/12 38/36/12 35/37/12
f 25/38/13 18/39/13 28/40/13
f 18/39/13 21/41/13 19/42/13
f 21/41/13 15/43/13 19/42/13
f 12/44/13 6/45/13 15/43/13
f 9/46/13 3/47/13 6/45/13
f 1/48/13 35/49/13 3/47/13
f 26/50/14 17/51/14 23/52/14
f 17/51/14 24/53/14 23/52/14
f 20/54/14 13/55/14 24/53/14
f 14/56/14 10/57/14 13/55/14
f 4/58/14 10/57/14 5/59/14
f 36/60/14 2/61/14 4/58/14
f 6/1/1 3/62/1 7/2/1
f 1/4/2 9/63/2 10/5/2
f 9/7/3 12/64/3 13/8/3
f 15/10/4 6/65/4 16/11/4
f 18/13/5 19/28/5 20/14/5
f 22/16/6 23/66/6 24/17/6
f 25/19/7 26/67/7 23/20/7
f 27/22/8 28/68/8 18/23/8
f 30/25/9 25/69/9 28/26/9
f 15/10/1 14/12/1 20/14/1
f 13/8/2 12/64/2 21/18/2
f 32/29/10 1/70/10 33/30/10
f 3/32/11 35/37/11 36/33/11
f 32/35/12 37/71/12 38/36/12
f 25/38/13 22/72/13 18/39/13
f 18/39/13 22/72/13 21/41/13
f 21/41/13 12/44/13 15/43/13
f 12/44/13 9/46/13 6/45/13
f 9/46/13 1/48/13 3/47/13
f 1/48/13 32/73/13 35/49/13
f 26/50/14 27/74/14 17/51/14
f 17/51/14 20/54/14 24/53/14
f 20/54/14 14/56/14 13/55/14
f 14/56/14 5/59/14 10/57/14
f 4/58/14 2/61/14 10/57/14
f 36/60/14 31/75/14 2/61/14
l 3 4
l 1 2
o RAIL_BASE
v -0.500000 0.000000 0.000000
v -0.500000 0.190000 -0.659000
v -0.500000 0.359287 -0.659000
v -0.500000 0.000000 0.000000
v -0.500000 0.359287 0.000000
v 0.500000 0.359287 0.000000
v 0.500000 0.359287 -0.659000
v 0.500000 0.000000 0.000000
v 0.500000 0.190500 -0.659449
v 0.500000 0.190500 -0.791849
v -0.500000 0.190500 -0.791849
v -0.500000 0.359287 -0.832000
v -0.500000 0.359287 -0.793749
v 0.500000 0.359287 -0.793749
v 0.500000 0.359287 -0.832000
v 0.500000 0.190500 -0.831849
v 0.500000 0.000000 -3.000000
v 0.500000 0.190500 -0.831849
v -0.500000 0.000000 -3.000000
v -0.500000 0.190500 -0.831849
v -0.500000 0.190500 -0.831849
v 0.500000 0.359287 -0.793749
v -0.500000 0.359287 -0.793749
v -0.500000 0.190000 0.659000
v -0.500000 0.359287 0.659000
v 0.500000 0.359287 0.659000
v 0.500000 0.190500 0.659449
v -0.500000 0.190500 0.791849
v 0.500000 0.190500 0.791849
v 0.500000 0.359287 0.832000
v 0.500000 0.359287 0.793749
v -0.500000 0.359287 0.793749
v -0.500000 0.359287 0.832000
v 0.500000 -0.000000 3.000000
v 0.500000 0.190500 0.831849
v 0.500000 0.190500 0.831849
v -0.500000 -0.000000 3.000000
v -0.500000 0.190500 0.831849
v -0.500000 0.190500 0.831849
v 0.500000 0.359287 0.793749
v -0.500000 0.359287 0.793749
vt 0.985580 0.052710
vt 0.998450 0.002610
vt 0.998450 0.052710
vt 0.922420 0.114110
vt 0.998450 0.064010
vt 0.998450 0.114110
vt 0.964350 0.230680
vt 0.951520 0.180550
vt 0.964350 0.180580
vt 0.922420 0.074220
vt 0.998450 0.074260
vt 0.922420 0.074260
vt 0.998450 0.064160
vt 0.998450 0.074260
vt 0.998450 0.231740
vt 0.922420 0.228840
vt 0.998450 0.228840
vt 0.964350 0.228840
vt 0.951520 0.228850
vt 0.937040 0.064010
vt 0.937040 0.230680
vt 0.951520 0.167440
vt 0.922420 0.064010
vt 0.998450 0.064010
vt 0.998450 0.066920
vt 0.971130 0.231740
vt 0.985610 0.066910
vt 0.971130 0.002610
vt 0.985610 0.065850
vt 0.971130 0.230680
vt 0.964350 0.231740
vt 0.951520 0.231890
vt 0.998450 0.064010
vt 0.985610 0.063870
vt 0.922420 0.064160
vt 0.985580 0.052710
vt 0.998450 0.052710
vt 0.922420 0.064010
vt 0.998450 0.064010
vt 0.951520 0.180550
vt 0.964350 0.180580
vt 0.998450 0.074260
vt 0.922420 0.074220
vt 0.922420 0.074260
vt 0.998450 0.064160
vt 0.998450 0.074260
vt 0.922420 0.231740
vt 0.998450 0.228840
vt 0.922420 0.228840
vt 0.937040 0.064010
vt 0.951520 0.228850
vt 0.964350 0.228840
vt 0.951520 0.167440
vt 0.998450 0.064010
vt 0.922420 0.064010
vt 0.985610 0.066910
vt 0.971130 0.231740
vt 0.998450 0.066920
vt 0.985610 0.065850
vt 0.971130 0.230680
vt 0.964350 0.231740
vt 0.951520 0.231890
vt 0.998450 0.064010
vt 0.985610 0.063870
vt 0.922420 0.064010
vt 0.922420 0.064010
vt 0.922420 0.231740
vt 0.937040 0.002610
vt 0.922420 0.064010
vt 0.922420 0.064160
vt 0.998450 0.231740
vt 0.937040 0.002610
vn -1.0000 0.0000 0.0000
vn 0.0000 1.0000 0.0000
vn 1.0000 0.0000 0.0000
vn 0.0000 0.0027 -1.0000
vn -0.0005 1.0000 0.0038
vn 0.0000 0.9865 -0.1635
vn 0.0000 0.0113 0.9999
vn 0.0000 0.0027 1.0000
vn -0.0005 1.0000 -0.0038
vn 0.0000 0.9865 0.1635
vn 0.0000 0.0113 -0.9999
vn -0.0004 0.0000 -1.0000
vn -0.0004 0.0000 1.0000
usemtl None
s off
f 40/76/15 43/77/15 41/78/15
f 44/79/16 41/80/16 43/81/16
f 44/82/17 47/83/17 45/84/17
f 47/85/18 41/86/18 45/87/18
f 47/85/19 49/88/19 40/89/19
f 51/90/16 53/91/16 50/92/16
f 53/93/17 54/94/17 55/95/17
f 46/96/17 56/97/17 47/83/17
f 50/92/20 55/98/20 57/99/20
f 50/100/15 57/101/15 58/102/15
f 42/103/15 59/104/15 57/105/15
f 54/94/17 60/106/17 48/107/17
f 61/108/15 58/102/15 49/109/15
f 48/110/21 61/108/21 49/88/21
f 43/77/15 62/111/15 63/112/15
f 64/113/16 43/81/16 63/114/16
f 65/115/17 44/82/17 64/116/17
f 63/117/22 65/118/22 64/119/22
f 66/120/23 65/118/23 62/121/23
f 69/122/16 71/123/16 68/124/16
f 72/125/17 73/126/17 68/127/17
f 74/128/17 46/96/17 65/115/17
f 68/124/24 75/129/24 72/130/24
f 76/131/15 75/132/15 71/133/15
f 77/134/15 42/103/15 75/135/15
f 78/136/17 73/126/17 67/137/17
f 76/131/15 79/138/15 66/139/15
f 78/140/25 66/120/25 79/138/25
f 40/76/15 42/103/15 43/77/15
f 44/79/16 45/141/16 41/80/16
f 44/82/17 46/96/17 47/83/17
f 47/85/26 40/89/26 41/86/26
f 47/85/16 48/110/16 49/88/16
f 51/90/16 52/142/16 53/91/16
f 46/96/17 55/143/17 56/97/17
f 50/92/20 53/91/20 55/98/20
f 42/103/15 40/76/15 59/104/15
f 54/94/17 53/93/17 60/106/17
f 61/108/15 50/100/15 58/102/15
f 48/110/21 60/144/21 61/108/21
f 43/77/15 42/103/15 62/111/15
f 64/113/16 44/79/16 43/81/16
f 65/115/17 46/96/17 44/82/17
f 63/117/27 62/121/27 65/118/27
f 66/120/16 67/145/16 65/118/16
f 69/122/16 70/146/16 71/123/16
f 74/128/17 72/147/17 46/96/17
f 68/124/24 71/123/24 75/129/24
f 77/134/15 62/111/15 42/103/15
f 78/136/17 68/127/17 73/126/17
f 76/131/15 71/133/15 79/138/15
f 78/140/25 67/145/25 66/120/25
l 62 39
l 39 40
o RAIL_RIGHT
v -0.500000 0.359287 -0.717549
v 0.500000 0.359287 -0.717549
v -0.500000 0.359287 -0.793749
v 0.500000 0.359287 -0.793749
v -0.500000 0.359287 -0.793749
v 0.500000 0.317500 -0.793749
v -0.500000 0.317500 -0.793749
v -0.500000 0.317500 -0.717549
v 0.500000 0.317500 -0.717549
v -0.500000 0.359287 -0.717549
v -0.500000 0.297500 -0.742949
v 0.500000 0.297500 -0.742949
v -0.500000 0.317500 -0.717549
v -0.500000 0.317500 -0.793749
v 0.500000 0.297500 -0.768349
v -0.500000 0.297500 -0.768349
v -0.500000 0.220000 -0.768349
v 0.500000 0.220000 -0.768349
v 0.500000 0.200000 -0.832000
v -0.500000 0.200000 -0.832000
v -0.500000 0.220000 -0.742949
v -0.500000 0.200000 -0.679000
v 0.500000 0.200000 -0.679000
v 0.500000 0.220000 -0.742949
v -0.500000 0.190500 -0.679449
v 0.500000 0.190500 -0.679449
v 0.500000 0.190500 -0.831849
v -0.500000 0.190500 -0.831849
v -0.500000 0.190500 -0.679449
v -0.500000 0.190500 -0.831849
v -0.500000 0.359287 -0.717549
v 0.500000 0.368300 -0.726562
v -0.500000 0.368300 -0.726562
v -0.500000 0.368300 -0.784736
v 0.500000 0.368300 -0.784736
v -0.500000 0.359287 -0.793749
v -0.500000 0.368300 -0.784736
v -0.500000 0.368300 -0.726562
vt 0.550740 0.997920
vt -0.000000 0.974910
vt -0.000000 0.997920
vt -0.000000 0.974910
vt 0.550740 0.997920
vt 0.550740 0.974910
vt -0.000000 0.986910
vt 0.550740 0.997920
vt 0.550740 0.986910
vt 0.550740 0.997920
vt -0.000000 0.986910
vt -0.000000 0.997920
vt 0.550740 0.944220
vt -0.000000 0.933210
vt -0.000000 0.944220
vt 0.550740 0.933210
vt -0.000000 0.944220
vt 0.550740 0.944220
vt 0.550740 0.992690
vt -0.000000 0.997920
vt 0.550740 0.997920
vt 0.550740 0.954410
vt -0.000000 0.959640
vt 0.550740 0.959640
vt -0.000000 0.997920
vt 0.550740 0.913990
vt -0.000000 0.913990
vt 0.000000 0.878420
vt 0.550740 0.883380
vt 0.550740 0.878420
vt 0.550740 0.846380
vt 0.000000 0.841410
vt 0.000000 0.846380
vt 0.000000 0.878420
vt 0.000000 0.846380
vt 0.554830 0.917000
vt 0.627840 0.912460
vt 0.554910 0.912460
vt 0.597450 0.926570
vt 0.585300 0.926570
vt 0.597450 0.963660
vt 0.585300 0.963660
vt 0.573140 0.973240
vt 0.609610 0.993230
vt 0.573140 0.993230
vt 0.605300 0.997550
vt 0.577450 0.997550
vt 0.720430 0.917000
vt 0.647420 0.912460
vt 0.647200 0.917000
vt 0.677810 0.926570
vt 0.689960 0.963660
vt 0.677810 0.963660
vt 0.665650 0.973240
vt 0.665650 0.993230
vt 0.702120 0.973240
vt 0.669960 0.997550
vt 0.702120 0.993230
vt 0.550740 0.974910
vt -0.000000 0.997920
vt -0.000000 0.997920
vt 0.550740 0.986910
vt 0.550740 0.933210
vt -0.000000 0.933210
vt -0.000000 0.992690
vt -0.000000 0.954410
vt 0.550740 0.997920
vt 0.000000 0.883380
vt 0.550740 0.841410
vt 0.550740 0.878420
vt 0.628060 0.917000
vt 0.609610 0.973240
vt 0.720350 0.912460
vt 0.689960 0.926570
vt 0.697810 0.997550
vn 0.0000 0.0000 -1.0000
vn 0.0000 0.0000 1.0000
vn 0.0000 -0.7857 0.6186
vn 0.0000 -0.7857 -0.6186
vn 0.0000 0.9540 -0.2998
vn 0.0000 0.9544 0.2985
vn 0.0000 -0.0472 0.9989
vn 0.0000 -0.0159 -0.9999
vn 0.0000 -1.0000 -0.0000
vn 0.0000 0.7071 0.7071
vn 0.0000 0.7071 -0.7071
vn 0.0000 1.0000 0.0000
vn 1.0000 0.0000 0.0000
vn -1.0000 0.0000 0.0000
usemtl None
s off
f 83/148/28 86/149/28 84/150/28
f 88/151/29 89/152/29 87/153/29
f 91/154/30 92/155/30 90/156/30
f 85/157/31 95/158/31 93/159/31
f 97/160/32 99/161/32 96/162/32
f 101/163/33 103/164/33 100/165/33
f 104/166/34 102/167/34 101/168/34
f 106/169/35 99/170/35 98/171/35
f 105/172/36 109/173/36 106/174/36
f 95/158/28 97/160/28 96/162/28
f 91/154/29 100/165/29 103/164/29
f 81/175/37 112/176/37 110/177/37
f 114/178/38 115/179/38 113/180/38
f 117/181/39 114/178/39 116/182/39
f 98/183/40 105/184/40 106/185/40
f 103/186/40 98/183/40 97/187/40
f 91/188/40 97/187/40 94/189/40
f 85/190/40 91/188/40 94/189/40
f 81/191/40 85/190/40 83/192/40
f 111/193/40 83/192/40 114/194/40
f 99/195/41 104/196/41 101/197/41
f 100/198/41 99/195/41 101/197/41
f 95/199/41 100/198/41 90/200/41
f 87/201/41 95/199/41 90/200/41
f 80/202/41 86/203/41 87/201/41
f 112/204/41 82/205/41 80/202/41
f 83/148/28 85/206/28 86/149/28
f 88/151/29 81/207/29 89/152/29
f 91/154/30 88/208/30 92/155/30
f 85/157/31 94/209/31 95/158/31
f 97/160/32 98/210/32 99/161/32
f 101/163/33 102/211/33 103/164/33
f 104/166/34 105/212/34 102/167/34
f 106/169/35 107/213/35 99/170/35
f 105/172/36 108/214/36 109/173/36
f 95/158/28 94/209/28 97/160/28
f 91/154/29 90/156/29 100/165/29
f 81/175/37 111/215/37 112/176/37
f 114/178/38 83/216/38 115/179/38
f 117/181/39 111/217/39 114/178/39
f 98/183/40 102/218/40 105/184/40
f 103/186/40 102/218/40 98/183/40
f 91/188/40 103/186/40 97/187/40
f 85/190/40 88/219/40 91/188/40
f 81/191/40 88/219/40 85/190/40
f 111/193/40 81/191/40 83/192/40
f 99/195/41 107/220/41 104/196/41
f 100/198/41 96/221/41 99/195/41
f 95/199/41 96/221/41 100/198/41
f 87/201/41 86/203/41 95/199/41
f 80/202/41 82/205/41 86/203/41
f 112/204/41 113/222/41 82/205/41
l 82 83
l 80 81
