# Blender v2.82 (sub 7) OBJ File: 'atsf_crossing_track_standard.blend'
# www.blender.org
mtllib atsf_crossing_track_standard_concrete.mtl
o RAIL_RIGHT_Cube.010
v -0.500549 0.318300 -0.793649
v -0.500549 0.318300 -0.717649
v 0.499451 0.318300 -0.793649
v 0.499451 0.318300 -0.717649
v -0.500549 0.298300 -0.741649
v -0.500549 0.298300 -0.769649
v 0.499451 0.298300 -0.741649
v 0.499451 0.298300 -0.769649
v -0.500549 0.220300 -0.741649
v -0.500549 0.220300 -0.769649
v 0.499451 0.220300 -0.741649
v 0.499451 0.220300 -0.769649
v -0.500549 0.200300 -0.679649
v -0.500549 0.200300 -0.831649
v 0.499451 0.200300 -0.679649
v 0.499451 0.200300 -0.831649
v -0.500549 0.190300 -0.679649
v -0.500549 0.190300 -0.831649
v 0.499451 0.190300 -0.679649
v 0.499451 0.190300 -0.831649
v -0.500549 0.359300 -0.793649
v -0.500549 0.368300 -0.784649
v -0.500549 0.368300 -0.726649
v -0.500549 0.359300 -0.717649
v 0.499451 0.368300 -0.784649
v 0.499451 0.359300 -0.793649
v 0.499451 0.359300 -0.717649
v 0.499451 0.368300 -0.726649
v -0.500549 0.368300 -0.726649
v -0.500549 0.359300 -0.717649
v 0.499451 0.359300 -0.717649
v 0.499451 0.368300 -0.726649
vt 0.313955 0.999085
vt 0.339334 0.561505
vt 0.339334 0.999085
vt 0.158050 0.507260
vt 0.158050 0.532639
vt 0.136171 0.503322
vt 0.002272 0.532639
vt 0.002272 0.507260
vt 0.024151 0.536578
vt 0.245996 0.999085
vt 0.256498 0.561505
vt 0.256498 0.999085
vt 0.208088 0.561505
vt 0.226029 0.999085
vt 0.208088 0.999085
vt 0.093288 0.526076
vt 0.127420 0.513824
vt 0.127420 0.526076
vt 0.245996 0.561505
vt 0.235494 0.999085
vt 0.235494 0.561505
vt 0.032902 0.513824
vt 0.024151 0.503322
vt 0.136171 0.536578
vt 0.163075 0.999085
vt 0.190205 0.561505
vt 0.190205 0.999085
vt 0.067034 0.513824
vt 0.032902 0.526076
vt 0.135944 0.561505
vt 0.101813 0.999085
vt 0.101813 0.561505
vt 0.067682 0.999085
vt 0.101813 0.561505
vt 0.101813 0.999085
vt 0.080161 0.553206
vt 0.084537 0.486694
vt 0.084537 0.553206
vt 0.163074 0.561505
vt 0.135945 0.999085
vt 0.135944 0.561505
vt 0.093288 0.513824
vt 0.075785 0.486694
vt 0.067034 0.526076
vt 0.067682 0.561505
vt 0.001170 0.999085
vt 0.001170 0.561505
vt 0.080161 0.486694
vt 0.075785 0.553206
vt 0.265250 0.561505
vt 0.260874 0.999085
vt 0.260874 0.561505
vt 0.256498 0.999085
vt 0.260874 0.561505
vt 0.260874 0.999085
vt 0.343273 0.561505
vt 0.339334 0.999085
vt 0.339334 0.561505
vt 0.208088 0.999085
vt 0.190148 0.561505
vt 0.208088 0.561505
vt 0.308745 0.999085
vt 0.312683 0.561505
vt 0.312683 0.999085
vt 0.313955 0.561505
vt 0.154112 0.536578
vt 0.154112 0.503322
vt 0.006210 0.503322
vt 0.006210 0.536578
vt 0.245996 0.561505
vt 0.226029 0.561505
vt 0.245996 0.999085
vt 0.163075 0.561505
vt 0.135944 0.999085
vt 0.067682 0.561505
vt 0.080161 0.486694
vt 0.163075 0.999085
vt 0.067682 0.999085
vt 0.080161 0.553206
vt 0.265250 0.999085
vt 0.256498 0.561505
vt 0.343273 0.999085
vt 0.190148 0.999085
vt 0.308745 0.561505
vn 0.0000 1.0000 0.0000
vn 1.0000 0.0000 0.0000
vn -1.0000 0.0000 0.0000
vn 0.0000 -0.7682 -0.6402
vn 0.0000 0.0000 1.0000
vn 0.0000 -0.7682 0.6402
vn 0.0000 0.9517 -0.3070
vn 0.0000 0.0000 -1.0000
vn 0.0000 0.9517 0.3070
vn 0.0000 -1.0000 0.0000
vn 0.0000 0.7071 -0.7071
vn 0.0000 0.7071 0.7071
usemtl atsf_crossings
s off
f 25/1/1 23/2/1 28/3/1
f 25/4/2 28/5/2 3/6/2
f 23/7/3 22/8/3 2/9/3
f 8/10/4 1/11/4 3/12/4
f 4/13/5 24/14/5 2/15/5
f 11/16/2 8/17/2 7/18/2
f 5/19/6 4/20/6 2/21/6
f 6/22/3 2/9/3 1/23/3
f 7/18/2 3/6/2 4/24/2
f 16/25/7 10/26/7 12/27/7
f 10/28/3 5/29/3 6/22/3
f 12/30/8 6/31/8 8/32/8
f 9/33/5 7/34/5 5/35/5
f 19/36/2 16/37/2 15/38/2
f 13/39/9 11/40/9 9/41/9
f 15/38/2 12/42/2 11/16/2
f 14/43/3 9/44/3 10/28/3
f 18/45/10 19/46/10 17/47/10
f 18/48/3 13/49/3 14/43/3
f 20/50/8 14/51/8 16/52/8
f 17/53/5 15/54/5 13/55/5
f 26/56/11 22/57/11 25/58/11
f 1/59/8 26/60/8 3/61/8
f 30/62/12 32/63/12 29/64/12
f 25/1/1 22/65/1 23/2/1
f 27/66/2 4/24/2 28/5/2
f 4/24/2 3/6/2 28/5/2
f 3/6/2 26/67/2 25/4/2
f 21/68/3 1/23/3 22/8/3
f 1/23/3 2/9/3 22/8/3
f 2/9/3 24/69/3 23/7/3
f 8/10/4 6/70/4 1/11/4
f 4/13/5 27/71/5 24/14/5
f 11/16/2 12/42/2 8/17/2
f 5/19/6 7/72/6 4/20/6
f 6/22/3 5/29/3 2/9/3
f 7/18/2 8/17/2 3/6/2
f 16/25/7 14/73/7 10/26/7
f 10/28/3 9/44/3 5/29/3
f 12/30/8 10/74/8 6/31/8
f 9/33/5 11/75/5 7/34/5
f 19/36/2 20/76/2 16/37/2
f 13/39/9 15/77/9 11/40/9
f 15/38/2 16/37/2 12/42/2
f 14/43/3 13/49/3 9/44/3
f 18/45/10 20/78/10 19/46/10
f 18/48/3 17/79/3 13/49/3
f 20/50/8 18/80/8 14/51/8
f 17/53/5 19/81/5 15/54/5
f 26/56/11 21/82/11 22/57/11
f 1/59/8 21/83/8 26/60/8
f 30/62/12 31/84/12 32/63/12
o RAIL_LEFT_Cube.001
v -0.500549 0.318300 0.793649
v -0.500549 0.318300 0.717649
v 0.499451 0.318300 0.793649
v 0.499451 0.318300 0.717649
v -0.500549 0.298300 0.741649
v -0.500549 0.298300 0.769649
v 0.499451 0.298300 0.741649
v 0.499451 0.298300 0.769649
v -0.500549 0.220300 0.741649
v -0.500549 0.220300 0.769649
v 0.499451 0.220300 0.741649
v 0.499451 0.220300 0.769649
v -0.500549 0.200300 0.679649
v -0.500549 0.200300 0.831649
v 0.499451 0.200300 0.679649
v 0.499451 0.200300 0.831649
v -0.500549 0.190300 0.679649
v -0.500549 0.190300 0.831649
v 0.499451 0.190300 0.679649
v 0.499451 0.190300 0.831649
v -0.500549 0.359300 0.793649
v -0.500549 0.368300 0.784649
v -0.500549 0.368300 0.726649
v -0.500549 0.359300 0.717649
v 0.499451 0.368300 0.784649
v 0.499451 0.359300 0.793649
v 0.499451 0.359300 0.717649
v 0.499451 0.368300 0.726649
v -0.500549 0.368300 0.726649
v -0.500549 0.359300 0.717649
v 0.499451 0.359300 0.717649
v 0.499451 0.368300 0.726649
vt 0.339334 0.561505
vt 0.313955 0.999085
vt 0.339334 0.999085
vt 0.158050 0.507260
vt 0.154112 0.503322
vt 0.136171 0.503322
vt 0.002272 0.532639
vt 0.006210 0.536578
vt 0.024151 0.536578
vt 0.256498 0.561505
vt 0.245996 0.999085
vt 0.256498 0.999085
vt 0.226029 0.999085
vt 0.208088 0.561505
vt 0.208088 0.999085
vt 0.127420 0.513824
vt 0.093288 0.526076
vt 0.127420 0.526076
vt 0.235494 0.999085
vt 0.245996 0.561505
vt 0.235494 0.561505
vt 0.032902 0.513824
vt 0.024151 0.503322
vt 0.136171 0.536578
vt 0.190205 0.561505
vt 0.163075 0.999085
vt 0.190205 0.999085
vt 0.032902 0.526076
vt 0.067034 0.513824
vt 0.101813 0.999085
vt 0.135944 0.561505
vt 0.101813 0.561505
vt 0.101813 0.561505
vt 0.067682 0.999085
vt 0.101813 0.999085
vt 0.084537 0.486694
vt 0.080161 0.553206
vt 0.084537 0.553206
vt 0.135945 0.999085
vt 0.163074 0.561505
vt 0.135944 0.561505
vt 0.093288 0.513824
vt 0.067034 0.526076
vt 0.075785 0.486694
vt 0.001170 0.999085
vt 0.067682 0.561505
vt 0.001170 0.561505
vt 0.075785 0.553206
vt 0.080161 0.486694
vt 0.260874 0.999085
vt 0.265250 0.561505
vt 0.260874 0.561505
vt 0.260874 0.561505
vt 0.256498 0.999085
vt 0.260874 0.999085
vt 0.339334 0.999085
vt 0.343273 0.561505
vt 0.339334 0.561505
vt 0.190148 0.561505
vt 0.208088 0.999085
vt 0.208088 0.561505
vt 0.312683 0.561505
vt 0.308745 0.999085
vt 0.312683 0.999085
vt 0.313955 0.561505
vt 0.158050 0.532639
vt 0.154112 0.536578
vt 0.002272 0.507260
vt 0.006210 0.503322
vt 0.245996 0.561505
vt 0.226029 0.561505
vt 0.245996 0.999085
vt 0.163075 0.561505
vt 0.135944 0.999085
vt 0.067682 0.561505
vt 0.080161 0.486694
vt 0.163075 0.999085
vt 0.067682 0.999085
vt 0.080161 0.553206
vt 0.265250 0.999085
vt 0.256498 0.561505
vt 0.343273 0.999085
vt 0.190148 0.999085
vt 0.308745 0.561505
vn 0.0000 1.0000 0.0000
vn 1.0000 0.0000 0.0000
vn -1.0000 0.0000 0.0000
vn 0.0000 -0.7682 0.6402
vn 0.0000 0.0000 -1.0000
vn 0.0000 -0.7682 -0.6402
vn 0.0000 0.9517 0.3070
vn 0.0000 0.0000 1.0000
vn 0.0000 0.9517 -0.3070
vn 0.0000 -1.0000 0.0000
vn 0.0000 0.7071 0.7071
vn 0.0000 0.7071 -0.7071
usemtl atsf_crossings
s off
f 55/85/13 57/86/13 60/87/13
f 57/88/14 58/89/14 35/90/14
f 55/91/15 56/92/15 34/93/15
f 33/94/16 40/95/16 35/96/16
f 56/97/17 36/98/17 34/99/17
f 40/100/14 43/101/14 39/102/14
f 36/103/18 37/104/18 34/105/18
f 34/93/15 38/106/15 33/107/15
f 35/90/14 39/102/14 36/108/14
f 42/109/19 48/110/19 44/111/19
f 37/112/15 42/113/15 38/106/15
f 38/114/20 44/115/20 40/116/20
f 39/117/17 41/118/17 37/119/17
f 48/120/14 51/121/14 47/122/14
f 43/123/21 45/124/21 41/125/21
f 44/126/14 47/122/14 43/101/14
f 41/127/15 46/128/15 42/113/15
f 51/129/22 50/130/22 49/131/22
f 45/132/15 50/133/15 46/128/15
f 46/134/20 52/135/20 48/136/20
f 47/137/17 49/138/17 45/139/17
f 54/140/23 58/141/23 57/142/23
f 58/143/20 33/144/20 35/145/20
f 64/146/24 62/147/24 61/148/24
f 55/85/13 54/149/13 57/86/13
f 35/90/14 36/108/14 60/150/14
f 36/108/14 59/151/14 60/150/14
f 60/150/14 57/88/14 35/90/14
f 34/93/15 33/107/15 54/152/15
f 33/107/15 53/153/15 54/152/15
f 54/152/15 55/91/15 34/93/15
f 33/94/16 38/154/16 40/95/16
f 56/97/17 59/155/17 36/98/17
f 40/100/14 44/126/14 43/101/14
f 36/103/18 39/156/18 37/104/18
f 34/93/15 37/112/15 38/106/15
f 35/90/14 40/100/14 39/102/14
f 42/109/19 46/157/19 48/110/19
f 37/112/15 41/127/15 42/113/15
f 38/114/20 42/158/20 44/115/20
f 39/117/17 43/159/17 41/118/17
f 48/120/14 52/160/14 51/121/14
f 43/123/21 47/161/21 45/124/21
f 44/126/14 48/120/14 47/122/14
f 41/127/15 45/132/15 46/128/15
f 51/129/22 52/162/22 50/130/22
f 45/132/15 49/163/15 50/133/15
f 46/134/20 50/164/20 52/135/20
f 47/137/17 51/165/17 49/138/17
f 54/140/23 53/166/23 58/141/23
f 58/143/20 53/167/20 33/144/20
f 64/146/24 63/168/24 62/147/24
o RAIL_BASE.001_Cube.003
v -0.500000 0.000000 0.500000
v -0.500000 0.360000 0.500000
v 0.500000 0.000000 0.500000
v 0.500000 0.360000 0.500000
v -0.500000 0.000000 1.500000
v -0.500000 0.360000 1.500000
v 0.500000 0.360000 1.500000
v 0.500000 0.000000 1.500000
v -0.500000 0.215862 0.640462
v 0.500000 0.215862 0.640462
v -0.500000 0.215862 0.806462
v 0.500000 0.215862 0.806462
v -0.500000 0.325000 0.640462
v -0.500000 0.360000 0.605462
v 0.500000 0.360000 0.605462
v 0.500000 0.325000 0.640462
v -0.500000 0.360000 0.841462
v -0.500000 0.325000 0.806462
v 0.500000 0.325000 0.806462
v 0.500000 0.360000 0.841462
v -0.500000 0.000000 3.500000
v 0.500000 0.000000 3.500000
v -0.500000 0.000000 -0.500000
v -0.500000 0.360000 -0.500000
v 0.500000 0.000000 -0.500000
v 0.500000 0.360000 -0.500000
v -0.500000 0.000000 -1.500000
v -0.500000 0.360000 -1.500000
v 0.500000 0.360000 -1.500000
v 0.500000 0.000000 -1.500000
v -0.500000 0.215862 -0.640462
v 0.500000 0.215862 -0.640462
v -0.500000 0.215862 -0.806462
v 0.500000 0.215862 -0.806462
v -0.500000 0.325000 -0.640462
v -0.500000 0.360000 -0.605462
v 0.500000 0.360000 -0.605462
v 0.500000 0.325000 -0.640462
v -0.500000 0.360000 -0.841462
v -0.500000 0.325000 -0.806462
v 0.500000 0.325000 -0.806462
v 0.500000 0.360000 -0.841462
v -0.500000 0.000000 -3.500000
v 0.500000 0.000000 -3.500000
v -0.500000 0.000000 0.000000
v -0.500000 0.360000 0.000000
v 0.500000 0.000000 0.000000
v 0.500000 0.360000 0.000000
vt 0.709771 0.724206
vt 0.749801 0.695385
vt 0.709771 0.695385
vt 0.749801 0.605103
vt 0.774336 0.622385
vt 0.761046 0.622385
vt 0.764879 0.285207
vt 0.684819 0.245178
vt 0.684819 0.285207
vt 0.480024 0.285207
vt 0.560084 0.245178
vt 0.560084 0.285207
vt 0.480024 0.165118
vt 0.560084 0.004998
vt 0.560084 0.165118
vt 0.829861 0.695385
vt 0.829861 0.724206
vt 0.989980 0.695385
vt 0.480024 0.217840
vt 0.560084 0.217840
vt 0.774336 0.712667
vt 0.764879 0.245178
vt 0.684819 0.165118
vt 0.860447 0.445089
vt 0.780388 0.453827
vt 0.780388 0.445089
vt 0.780388 0.467216
vt 0.860447 0.475953
vt 0.860447 0.467216
vt 0.480024 0.245178
vt 0.560084 0.236734
vt 0.860275 0.490058
vt 0.780215 0.503348
vt 0.780215 0.490058
vt 0.560084 0.233932
vt 0.480024 0.236734
vt 0.480024 0.233932
vt 0.480024 0.220642
vt 0.764879 0.165118
vt 0.684819 0.004998
vt 0.829861 0.633924
vt 0.829861 0.605103
vt 0.989980 0.605103
vt 0.749801 0.633924
vt 0.709771 0.605103
vt 0.749801 0.695385
vt 0.829861 0.605103
vt 0.749801 0.605103
vt 0.774336 0.622385
vt 0.684819 0.245178
vt 0.560084 0.245178
vt 0.560084 0.004998
vt 0.480024 0.165118
vt 0.560084 0.165118
vt 0.829861 0.695385
vt 0.989980 0.695385
vt 0.829861 0.724206
vt 0.480024 0.217840
vt 0.560084 0.217840
vt 0.774336 0.712667
vt 0.761046 0.712667
vt 0.684819 0.165118
vt 0.764879 0.245178
vt 0.780388 0.453827
vt 0.860447 0.445089
vt 0.780388 0.445089
vt 0.860447 0.475953
vt 0.780388 0.467216
vt 0.860447 0.467216
vt 0.560084 0.236734
vt 0.480024 0.245178
vt 0.780215 0.503348
vt 0.860275 0.490058
vt 0.780215 0.490058
vt 0.480024 0.236734
vt 0.560084 0.233932
vt 0.480024 0.233932
vt 0.480024 0.220642
vt 0.684819 0.004998
vt 0.764879 0.165118
vt 0.829861 0.633924
vt 0.989980 0.605103
vt 0.749801 0.633924
vt 0.749801 0.724206
vt 0.758244 0.633924
vt 0.761046 0.631122
vt 0.777138 0.633924
vt 0.774336 0.631122
vt 0.480024 0.004998
vt 0.761046 0.712667
vt 0.758244 0.724206
vt 0.761046 0.721404
vt 0.774336 0.721404
vt 0.777138 0.724206
vt 0.860447 0.453827
vt 0.780388 0.475953
vt 0.860275 0.503348
vt 0.560084 0.220642
vt 0.764879 0.004998
vt 0.709771 0.633924
vt 0.749801 0.724206
vt 0.761046 0.622385
vt 0.758244 0.633924
vt 0.761046 0.631122
vt 0.774336 0.631122
vt 0.777138 0.633924
vt 0.480024 0.004998
vt 0.777138 0.724206
vt 0.774336 0.721404
vt 0.758244 0.724206
vt 0.761046 0.721404
vt 0.860447 0.453827
vt 0.780388 0.475953
vt 0.860275 0.503348
vt 0.560084 0.220642
vt 0.764879 0.004998
vn 1.0000 0.0000 0.0000
vn -1.0000 0.0000 0.0000
vn 0.0000 -1.0000 0.0000
vn 0.0000 1.0000 0.0000
vn 0.0000 0.9842 0.1772
vn 0.0000 0.0000 1.0000
vn 0.0000 0.0000 -1.0000
vn 0.0000 0.7071 0.7071
vn 0.0000 0.7071 -0.7071
vn 0.0000 0.9842 -0.1772
usemtl atsf_crossings.001
s off
f 112/169/25 67/170/25 111/171/25
f 65/172/26 75/173/26 73/174/26
f 111/175/27 65/176/27 109/177/27
f 110/178/28 68/179/28 112/180/28
f 70/181/29 86/182/29 71/183/29
f 72/184/25 71/185/25 86/186/25
f 81/187/28 71/183/28 84/188/28
f 72/184/25 67/170/25 76/189/25
f 67/190/27 69/191/27 65/176/27
f 74/192/30 77/193/30 73/194/30
f 75/195/31 83/196/31 76/197/31
f 66/198/28 79/199/28 68/179/28
f 76/200/28 73/201/28 75/202/28
f 80/203/32 78/204/32 77/205/32
f 84/188/33 82/206/33 81/187/33
f 72/207/27 85/208/27 69/191/27
f 70/209/26 69/210/26 85/211/26
f 66/212/26 109/213/26 65/172/26
f 89/214/25 112/169/25 111/171/25
f 91/215/26 87/216/26 97/217/26
f 87/218/27 111/175/27 109/177/27
f 90/219/28 110/178/28 112/180/28
f 108/220/34 92/221/34 93/222/34
f 94/223/25 108/224/25 93/225/25
f 93/222/28 103/226/28 106/227/28
f 89/214/25 98/228/25 96/229/25
f 91/230/27 89/231/27 87/218/27
f 99/232/31 96/233/31 95/234/31
f 105/235/30 97/236/30 98/237/30
f 101/238/28 88/239/28 90/219/28
f 95/240/28 98/241/28 97/242/28
f 100/243/33 102/244/33 99/245/33
f 104/246/32 106/227/32 103/226/32
f 107/247/27 94/248/27 91/230/27
f 92/249/26 107/250/26 91/215/26
f 109/213/26 88/251/26 87/216/26
f 112/169/25 68/252/25 67/170/25
f 78/253/26 66/212/26 77/254/26
f 66/212/26 65/172/26 73/174/26
f 65/172/26 69/210/26 75/173/26
f 69/210/26 70/209/26 75/173/26
f 70/209/26 81/255/26 75/173/26
f 81/255/26 82/256/26 75/173/26
f 66/212/26 73/174/26 77/254/26
f 111/175/27 67/190/27 65/176/27
f 110/178/28 66/198/28 68/179/28
f 70/181/29 85/257/29 86/182/29
f 81/187/28 70/181/28 71/183/28
f 67/170/25 68/252/25 74/258/25
f 68/252/25 79/259/25 80/260/25
f 74/258/25 68/252/25 80/260/25
f 76/189/25 83/261/25 84/262/25
f 76/189/25 84/262/25 71/185/25
f 67/170/25 74/258/25 76/189/25
f 71/185/25 72/184/25 76/189/25
f 67/190/27 72/207/27 69/191/27
f 74/192/30 80/263/30 77/193/30
f 75/195/31 82/264/31 83/196/31
f 66/198/28 78/204/28 79/199/28
f 76/200/28 74/265/28 73/201/28
f 80/203/32 79/199/32 78/204/32
f 84/188/33 83/266/33 82/206/33
f 72/207/27 86/267/27 85/208/27
f 66/212/26 110/268/26 109/213/26
f 89/214/25 90/269/25 112/169/25
f 87/216/26 88/251/26 95/270/26
f 88/251/26 100/271/26 99/272/26
f 95/270/26 88/251/26 99/272/26
f 97/217/26 104/273/26 103/274/26
f 97/217/26 103/274/26 92/249/26
f 87/216/26 95/270/26 97/217/26
f 92/249/26 91/215/26 97/217/26
f 87/218/27 89/231/27 111/175/27
f 90/219/28 88/239/28 110/178/28
f 108/220/34 107/275/34 92/221/34
f 93/222/28 92/221/28 103/226/28
f 89/214/25 94/223/25 98/228/25
f 94/223/25 93/225/25 98/228/25
f 93/225/25 106/276/25 98/228/25
f 106/276/25 105/277/25 98/228/25
f 101/278/25 90/269/25 102/279/25
f 90/269/25 89/214/25 96/229/25
f 96/229/25 102/279/25 90/269/25
f 91/230/27 94/248/27 89/231/27
f 99/232/31 102/280/31 96/233/31
f 105/235/30 104/281/30 97/236/30
f 101/238/28 100/243/28 88/239/28
f 95/240/28 96/282/28 98/241/28
f 100/243/33 101/238/33 102/244/33
f 104/246/32 105/283/32 106/227/32
f 107/247/27 108/284/27 94/248/27
f 109/213/26 110/268/26 88/251/26
