# Blender 3.4.1
# www.blender.org
mtllib pole_s_s.mtl
o RAIL_BASE
v 0.096146 -0.102656 -0.232116
v 0.057643 9.371260 -0.139161
v 0.232116 -0.102656 -0.096146
v 0.139163 9.371260 -0.057641
v 0.232116 -0.102656 0.096146
v 0.139163 9.371260 0.057645
v 0.096146 -0.102656 0.232116
v 0.057643 9.371260 0.139165
v -0.096146 -0.102656 0.232116
v -0.057643 9.371260 0.139165
v -0.232116 -0.102656 0.096146
v -0.139163 9.371260 0.057645
v -0.232116 -0.102656 -0.096146
v -0.139163 9.371260 -0.057641
v -0.096146 -0.102656 -0.232116
v -0.057643 9.371260 -0.139161
v 0.064409 8.059702 -0.155496
v 0.155497 8.059702 -0.064408
v 0.155497 8.059702 0.064410
v 0.064409 8.059702 0.155498
v -0.064409 8.059702 0.155498
v -0.155497 8.059702 0.064410
v -0.155497 8.059702 -0.064408
v -0.064409 8.059702 -0.155496
v 0.064409 8.147619 -0.155496
v 0.155497 8.147619 -0.064408
v 0.155497 8.147619 0.064410
v 0.064409 8.147619 0.155498
v -0.064409 8.147619 0.155498
v -0.155497 8.147619 0.064410
v -0.155497 8.147619 -0.064408
v -0.064409 8.147619 -0.155496
v 0.012223 6.534016 0.108649
v 0.012223 6.534016 3.415321
v 0.029508 6.516730 0.108650
v 0.029508 6.516729 3.415321
v 0.029508 6.492284 0.108650
v 0.029508 6.492283 3.415321
v 0.012223 6.474999 0.108650
v 0.012223 6.474998 3.415321
v -0.012223 6.474999 0.108650
v -0.012223 6.474998 3.415321
v -0.029508 6.492284 0.108650
v -0.029508 6.492283 3.415321
v -0.029508 6.516730 0.108650
v -0.029508 6.516729 3.415321
v -0.012223 6.534016 0.108649
v -0.012223 6.534016 3.415321
v 0.020656 6.590843 3.361150
v 0.008556 6.590843 3.373249
v 0.020656 5.934072 3.344038
v 0.020656 5.934072 3.361150
v 0.007558 8.119754 0.190592
v 0.018247 8.110126 0.185945
v 0.018247 8.096515 0.179373
v 0.007558 8.086888 0.174726
v -0.007558 8.086888 0.174726
v -0.018247 8.096515 0.179373
v -0.018247 8.110126 0.185945
v -0.007558 8.119754 0.190592
v 0.007558 6.584980 3.369701
v 0.018247 6.575099 3.365583
v 0.018247 6.561126 3.359760
v 0.007558 6.551243 3.355643
v -0.007558 6.551243 3.355643
v -0.018247 6.561126 3.359760
v -0.018247 6.575099 3.365583
v -0.007558 6.584980 3.369701
v 0.069664 6.459467 -0.168182
v 0.168183 6.459467 -0.069663
v 0.168183 6.459467 0.069665
v 0.069664 6.459467 0.168184
v -0.069664 6.459467 0.168184
v -0.168183 6.459467 0.069665
v -0.168183 6.459467 -0.069663
v -0.069664 6.459467 -0.168182
v 0.069664 6.554557 -0.168182
v 0.168183 6.554557 -0.069663
v 0.168183 6.554557 0.069665
v 0.069664 6.554557 0.168184
v -0.069664 6.554557 0.168184
v -0.168183 6.554557 0.069665
v -0.168183 6.554557 -0.069663
v -0.069664 6.554557 -0.168182
v 0.008556 8.122044 0.214619
v 0.020656 8.109943 0.214619
v 0.020656 8.092833 0.214619
v 0.008556 8.080731 0.214619
v -0.008556 8.080731 0.214619
v -0.020656 8.092833 0.214619
v -0.020656 8.109943 0.214619
v -0.008556 8.122044 0.214619
v 0.008556 8.122044 0.126800
v 0.020656 8.109943 0.126800
v 0.020656 8.092833 0.126800
v 0.008556 8.080731 0.126800
v -0.008556 8.080731 0.126800
v -0.020656 8.092833 0.126800
v -0.020656 8.109943 0.126800
v -0.008556 8.122044 0.126800
v 0.074351 5.907343 -0.179499
v 0.179500 5.907343 -0.074350
v 0.179500 5.907343 0.074352
v 0.074351 5.907343 0.179501
v -0.074351 5.907343 0.179501
v -0.179500 5.907343 0.074352
v -0.179500 5.907343 -0.074350
v -0.074351 5.907343 -0.179499
v 0.074351 6.008832 -0.179499
v 0.179500 6.008832 -0.074350
v 0.179500 6.008832 0.074352
v 0.074351 6.008832 0.179501
v -0.074351 6.008832 0.179501
v -0.179500 6.008832 0.074352
v -0.179500 6.008832 -0.074350
v -0.074351 6.008832 -0.179499
v 0.008556 5.934072 3.373250
v -0.020656 5.934072 3.361150
v -0.020656 5.934072 3.344039
v 0.008556 5.992025 0.214619
v 0.020656 5.979925 0.214619
v 0.020656 5.962814 0.214619
v 0.008556 5.950714 0.214619
v -0.008556 5.950714 0.214619
v -0.020656 5.962814 0.214619
v -0.020656 5.979925 0.214619
v -0.008556 5.992025 0.214619
v 0.008556 5.992025 0.126800
v 0.020656 5.979925 0.126800
v 0.020656 5.962814 0.126800
v 0.008556 5.950714 0.126800
v -0.008556 5.950714 0.126800
v -0.020656 5.962814 0.126800
v -0.020656 5.979925 0.126800
v -0.008556 5.992025 0.126800
v 0.008212 5.951544 3.297495
v 0.019825 5.963159 3.297494
v 0.019825 5.979581 3.297494
v 0.008212 5.991196 3.297494
v -0.008212 5.991196 3.297494
v -0.019825 5.979581 3.297494
v -0.019825 5.963159 3.297494
v -0.008212 5.951544 3.297495
v 0.008212 5.951544 3.348495
v 0.019825 5.963159 3.348495
v 0.019825 5.979581 3.348495
v 0.008212 5.991196 3.348495
v -0.008212 5.991196 3.348495
v -0.019825 5.979581 3.348495
v -0.019825 5.963159 3.348495
v -0.008212 5.951544 3.348495
v 0.008556 5.934072 3.331939
v -0.008556 5.934072 3.373250
v -0.008556 5.934072 3.331939
v 0.008556 6.590843 3.331939
v 0.020656 6.590843 3.344039
v -0.008556 6.590843 3.373250
v -0.020656 6.590843 3.361151
v -0.020656 6.590843 3.344039
v -0.008556 6.590843 3.331939
vn -0.7071 0.0098 0.7071
vn -1.0000 0.0098 -0.0000
vn -0.7071 0.0098 -0.7071
vn -0.0000 0.0098 -1.0000
vn 0.7071 0.0098 -0.7071
vn 1.0000 0.0098 -0.0000
vn 0.7071 0.0098 0.7071
vn -0.0000 0.0098 1.0000
vn -0.0000 1.0000 -0.0000
vn 0.7071 -0.0000 -0.7071
vn -1.0000 -0.0000 -0.0000
vn -0.7071 -0.0000 -0.7071
vn 0.7071 -0.0000 0.7071
vn -0.0000 -0.0000 -1.0000
vn -0.7071 -0.0000 0.7071
vn -0.0000 -0.0000 1.0000
vn 1.0000 -0.0000 -0.0000
vn 0.7071 -0.7071 -0.0000
vn 0.7071 0.7071 -0.0000
vn -0.7071 0.7071 -0.0000
vn -0.7071 -0.7071 -0.0000
vn -0.0000 -1.0000 -0.0000
vn -0.7071 0.6368 0.3074
vn -0.7071 -0.6368 -0.3074
vn -0.0000 -0.9005 -0.4348
vn 0.7071 -0.6368 -0.3074
vn 0.7071 0.6368 0.3074
vn -0.0000 0.9005 0.4348
vt 0.298690 0.006437
vt 0.742943 0.006437
vt 0.387644 0.966430
vt 0.653989 0.966430
vt 0.651911 0.994768
vt 0.298690 0.006437
vt 0.742943 0.006437
vt 0.387644 0.966430
vt 0.653989 0.966430
vt 0.840249 0.986507
vt 0.298690 0.006437
vt 0.742943 0.006437
vt 0.387644 0.966430
vt 0.653989 0.966430
vt 0.840249 0.974826
vt 0.298690 0.006437
vt 0.742943 0.006437
vt 0.387644 0.966430
vt 0.653989 0.966430
vt 0.651911 0.966565
vt 0.742943 0.006437
vt 0.298690 0.006437
vt 0.653989 0.966430
vt 0.387644 0.966430
vt 0.385566 0.966565
vt 0.298690 0.006437
vt 0.742943 0.006437
vt 0.387644 0.966430
vt 0.653989 0.966430
vt 0.197228 0.974826
vt 0.298690 0.006437
vt 0.742943 0.006437
vt 0.387644 0.966430
vt 0.653989 0.966430
vt 0.197228 0.986507
vt 0.298690 0.006437
vt 0.742943 0.006437
vt 0.387644 0.966430
vt 0.653989 0.966430
vt 0.385566 0.994768
vt 0.592630 0.256948
vt 0.709097 0.028372
vt 0.592630 0.185412
vt 0.592630 0.107011
vt 0.592630 0.028372
vt 0.650863 0.106772
vt 0.534396 0.256948
vt 0.650863 0.028372
vt 0.534396 0.185412
vt 0.534396 0.107011
vt 0.534396 0.028372
vt 0.709097 0.106772
vt 0.534396 0.256948
vt 0.650863 0.028372
vt 0.534396 0.185412
vt 0.534396 0.107011
vt 0.534396 0.028372
vt 0.592630 0.106772
vt 0.476162 0.256948
vt 0.592630 0.028372
vt 0.476162 0.185412
vt 0.476162 0.107011
vt 0.476162 0.028372
vt 0.650863 0.106772
vt 0.887327 0.024886
vt 0.887327 0.975114
vt 0.930328 0.036878
vt 0.911311 0.975114
vt 0.882359 0.024886
vt 0.911311 0.024886
vt 0.882359 0.975114
vt 0.935295 0.041845
vt 0.918336 0.975114
vt 0.918336 0.024886
vt 0.942320 0.041845
vt 0.923303 0.975114
vt 0.930328 0.024886
vt 0.923303 0.024886
vt 0.930328 0.975114
vt 0.947287 0.036878
vt 0.911311 0.024886
vt 0.923303 0.024886
vt 0.911311 0.975114
vt 0.923303 0.975114
vt 0.947287 0.029853
vt 0.906344 0.024886
vt 0.906344 0.975114
vt 0.942320 0.024886
vt 0.899319 0.024886
vt 0.899319 0.975114
vt 0.935295 0.024886
vt 0.894352 0.024886
vt 0.894351 0.975114
vt 0.930328 0.029853
vt 0.918336 0.024886
vt 0.942320 0.041845
vt 0.923303 0.024886
vt 0.930328 0.975114
vt 0.947287 0.036878
vt 0.911311 0.060938
vt 0.882359 0.939062
vt 0.935295 0.041845
vt 0.918336 0.060938
vt 0.942320 0.041845
vt 0.065898 0.024886
vt 0.089883 0.975114
vt 0.060931 0.024886
vt 0.096907 0.975114
vt 0.108900 0.024886
vt 0.101875 0.975114
vt 0.089883 0.024886
vt 0.101875 0.024886
vt 0.084915 0.024886
vt 0.077891 0.024886
vt 0.072923 0.024886
vt 0.065898 0.945907
vt 0.089883 0.053940
vt 0.060931 0.946060
vt 0.096907 0.053723
vt 0.108899 0.946430
vt 0.101875 0.053569
vt 0.089883 0.946431
vt 0.101875 0.946430
vt 0.084915 0.946277
vt 0.077890 0.946060
vt 0.072923 0.945907
vt 0.592630 0.256948
vt 0.709097 0.028372
vt 0.592630 0.185412
vt 0.592630 0.107011
vt 0.592630 0.028372
vt 0.650863 0.106772
vt 0.534396 0.256948
vt 0.650863 0.028372
vt 0.534396 0.185412
vt 0.534396 0.107011
vt 0.534396 0.028372
vt 0.709097 0.106772
vt 0.534396 0.256948
vt 0.650863 0.028372
vt 0.534396 0.185412
vt 0.534396 0.107011
vt 0.534396 0.028372
vt 0.592630 0.106772
vt 0.476162 0.256948
vt 0.592630 0.028372
vt 0.476162 0.185412
vt 0.476162 0.107011
vt 0.476162 0.028372
vt 0.650863 0.106772
vt 0.887327 0.975114
vt 0.930328 0.036878
vt 0.911311 0.024886
vt 0.882359 0.975114
vt 0.935295 0.041845
vt 0.918336 0.024886
vt 0.942320 0.041845
vt 0.923303 0.024886
vt 0.930328 0.975114
vt 0.947287 0.036878
vt 0.911311 0.975114
vt 0.923303 0.975114
vt 0.947287 0.029853
vt 0.906344 0.975114
vt 0.942320 0.024886
vt 0.899319 0.975114
vt 0.935295 0.024886
vt 0.894351 0.975114
vt 0.930328 0.029853
vt 0.887327 0.939062
vt 0.911311 0.060938
vt 0.882359 0.939062
vt 0.918336 0.060938
vt 0.923303 0.060938
vt 0.930328 0.939062
vt 0.911311 0.939062
vt 0.923303 0.939062
vt 0.906344 0.939062
vt 0.899319 0.939062
vt 0.894351 0.939062
vt 0.592630 0.256948
vt 0.709097 0.028372
vt 0.592630 0.185412
vt 0.592630 0.107011
vt 0.592630 0.028372
vt 0.650863 0.106772
vt 0.534396 0.256948
vt 0.650863 0.028372
vt 0.534396 0.185412
vt 0.534396 0.107011
vt 0.534396 0.028372
vt 0.709097 0.106772
vt 0.534396 0.256948
vt 0.650863 0.028372
vt 0.534396 0.185412
vt 0.534396 0.107011
vt 0.534396 0.028372
vt 0.592630 0.106772
vt 0.476162 0.256948
vt 0.592630 0.028372
vt 0.476162 0.185412
vt 0.476162 0.107011
vt 0.476162 0.028372
vt 0.650863 0.106772
vt 0.923303 0.060938
vt 0.930328 0.939062
vt 0.947287 0.036878
vt 0.906344 0.939062
vt 0.942320 0.024886
vt 0.899319 0.939062
vt 0.935295 0.024886
vt 0.887327 0.975114
vt 0.930328 0.036878
vt 0.911311 0.024886
vt 0.882359 0.975114
vt 0.935295 0.041845
vt 0.918336 0.024886
vt 0.942320 0.041845
vt 0.923303 0.024886
vt 0.930328 0.975114
vt 0.947287 0.036878
vt 0.911311 0.975114
vt 0.923303 0.975114
vt 0.947287 0.029853
vt 0.906344 0.975114
vt 0.942320 0.024886
vt 0.899319 0.975114
vt 0.935295 0.024886
vt 0.894351 0.975114
vt 0.930328 0.029853
vt 0.887327 0.939062
vt 0.911311 0.060938
vt 0.882359 0.939062
vt 0.918336 0.060938
vt 0.923303 0.060938
vt 0.930328 0.939062
vt 0.911311 0.939062
vt 0.923303 0.939062
vt 0.906344 0.939062
vt 0.899319 0.939062
vt 0.894351 0.939062
vt 0.887327 0.975114
vt 0.930328 0.036878
vt 0.911311 0.024886
vt 0.882359 0.975114
vt 0.935295 0.041845
vt 0.918336 0.024886
vt 0.942320 0.041845
vt 0.923303 0.024886
vt 0.930328 0.975114
vt 0.947287 0.036878
vt 0.911311 0.975114
vt 0.923303 0.975114
vt 0.947287 0.029853
vt 0.906344 0.975114
vt 0.942320 0.024886
vt 0.899319 0.975114
vt 0.935295 0.024886
vt 0.894351 0.975114
vt 0.930328 0.029853
vt 0.887327 0.939062
vt 0.911311 0.060938
vt 0.882359 0.939062
vt 0.918336 0.060938
vt 0.923303 0.060938
vt 0.930328 0.939062
vt 0.911311 0.939062
vt 0.923303 0.939062
vt 0.906344 0.939062
vt 0.899319 0.939062
vt 0.894351 0.939062
vt 0.887327 0.939062
vt 0.930328 0.036878
vt 0.911311 0.939062
vt 0.923303 0.939062
vt 0.947287 0.029853
vt 0.894351 0.939062
vt 0.930328 0.029853
vt 0.887327 0.975114
vt 0.930328 0.036878
vt 0.911311 0.024886
vt 0.882359 0.975114
vt 0.935295 0.041845
vt 0.911311 0.975114
vt 0.923303 0.975114
vt 0.947287 0.029853
vt 0.906344 0.975114
vt 0.942320 0.024886
vt 0.899319 0.975114
vt 0.935295 0.024886
vt 0.894351 0.975114
vt 0.930328 0.029853
s 0
usemtl base
f 9/21/1 10/23/1 12/28/1 11/26/1
f 11/27/2 12/29/2 14/33/2 13/31/2
f 13/32/3 14/34/3 16/38/3 15/36/3
f 1/1/4 15/37/4 16/39/4 2/3/4
f 1/2/5 2/4/5 4/8/5 3/6/5
f 3/7/6 4/9/6 6/13/6 5/11/6
f 5/12/7 6/14/7 8/18/7 7/16/7
f 7/17/8 8/19/8 10/24/8 9/22/8
f 4/10/9 2/5/9 16/40/9 14/35/9 12/30/9 10/25/9 8/20/9 6/15/9
f 70/129/10 69/127/10 77/139/10 78/141/10
f 75/136/11 74/135/11 82/147/11 83/148/11
f 76/137/12 75/136/12 83/148/12 84/149/12
f 72/131/13 71/130/13 79/142/13 80/143/13
f 69/128/14 76/138/14 84/150/14 77/140/14
f 74/135/15 73/133/15 81/145/15 82/147/15
f 73/134/16 72/132/16 80/144/16 81/146/16
f 71/130/17 70/129/17 78/141/17 79/142/17
usemtl rails
f 18/43/10 17/41/10 25/53/10 26/55/10
f 23/50/11 22/49/11 30/61/11 31/62/11
f 24/51/12 23/50/12 31/62/12 32/63/12
f 20/45/13 19/44/13 27/56/13 28/57/13
f 17/42/14 24/52/14 32/64/14 25/54/14
f 22/49/15 21/47/15 29/59/15 30/61/15
f 21/48/16 20/46/16 28/58/16 29/60/16
f 19/44/17 18/43/17 26/55/17 27/56/17
f 37/73/18 38/74/18 40/78/18 39/76/18
f 35/68/17 36/70/17 38/74/17 37/73/17
f 33/65/19 34/66/19 36/71/19 35/69/19
f 33/65/9 47/92/9 48/93/9 34/66/9
f 45/89/20 46/90/20 48/93/20 47/92/20
f 43/86/11 44/87/11 46/90/11 45/89/11
f 41/81/21 42/83/21 44/87/21 43/86/21
f 39/77/22 40/79/22 42/84/22 41/82/22
f 36/72/16 34/67/16 48/94/16 46/91/16 44/88/16 42/85/16 40/80/16 38/75/16
f 52/103/13 49/95/13 50/97/13 117/205/13
f 51/100/17 156/281/17 49/95/17 52/103/17
f 152/272/10 155/279/10 156/282/10 51/101/10
f 152/272/14 154/277/14 160/291/14 155/279/14
f 119/210/12 159/289/12 160/291/12 154/277/12
f 118/208/11 158/287/11 159/289/11 119/210/11
f 153/274/15 157/284/15 158/287/15 118/208/15
f 117/206/16 50/98/16 157/285/16 153/275/16
f 59/114/23 67/125/23 68/126/23 60/115/23
f 58/113/11 66/124/11 67/125/11 59/114/11
f 57/111/24 65/122/24 66/124/24 58/113/24
f 56/109/25 64/120/25 65/123/25 57/112/25
f 55/108/26 63/119/26 64/121/26 56/110/26
f 54/106/17 62/117/17 63/119/17 55/108/17
f 53/105/27 61/116/27 62/118/27 54/107/27
f 53/105/28 60/115/28 68/126/28 61/116/28
f 95/173/18 87/156/18 88/158/18 96/174/18
f 94/171/17 86/153/17 87/156/17 95/173/17
f 93/170/19 85/151/19 86/154/19 94/172/19
f 93/170/9 100/180/9 92/168/9 85/151/9
f 99/179/20 91/166/20 92/168/20 100/180/20
f 98/178/11 90/164/11 91/166/11 99/179/11
f 97/176/21 89/161/21 90/164/21 98/178/21
f 96/175/22 88/159/22 89/162/22 97/177/22
f 86/155/16 85/152/16 92/169/16 91/167/16 90/165/16 89/163/16 88/160/16 87/157/16
f 102/183/10 101/181/10 109/193/10 110/195/10
f 107/190/11 106/189/11 114/201/11 115/202/11
f 108/191/12 107/190/12 115/202/12 116/203/12
f 104/185/13 103/184/13 111/196/13 112/197/13
f 101/182/14 108/192/14 116/204/14 109/194/14
f 106/189/15 105/187/15 113/199/15 114/201/15
f 105/188/16 104/186/16 112/198/16 113/200/16
f 103/184/17 102/183/17 110/195/17 111/196/17
f 130/234/18 122/217/18 123/219/18 131/235/18
f 129/232/17 121/214/17 122/217/17 130/234/17
f 128/231/19 120/212/19 121/215/19 129/233/19
f 128/231/9 135/241/9 127/229/9 120/212/9
f 134/240/20 126/227/20 127/229/20 135/241/20
f 133/239/11 125/225/11 126/227/11 134/240/11
f 132/237/21 124/222/21 125/225/21 133/239/21
f 131/236/22 123/220/22 124/223/22 132/238/22
f 121/216/16 120/213/16 127/230/16 126/228/16 125/226/16 124/224/16 123/221/16 122/218/16
f 146/264/19 138/247/19 139/249/19 147/265/19
f 145/262/17 137/244/17 138/247/17 146/264/17
f 144/261/18 136/242/18 137/245/18 145/263/18
f 144/261/22 151/271/22 143/259/22 136/242/22
f 150/270/21 142/257/21 143/259/21 151/271/21
f 149/269/11 141/255/11 142/257/11 150/270/11
f 148/267/20 140/252/20 141/255/20 149/269/20
f 147/266/9 139/250/9 140/253/9 148/268/9
f 137/246/14 136/243/14 143/260/14 142/258/14 141/256/14 140/254/14 139/251/14 138/248/14
f 51/102/9 152/273/9 154/278/9 119/211/9 118/209/9 153/276/9 117/207/9 52/104/9
f 156/283/9 155/280/9 160/292/9 159/290/9 158/288/9 157/286/9 50/99/9 49/96/9
o RAIL_LEFT
v 0.010528 5.967308 3.354297
v 0.004361 5.961141 3.354297
v -0.004360 5.961141 3.354297
v -0.010527 5.967308 3.354297
v -0.010527 5.976028 3.354297
v -0.004360 5.982195 3.354297
v 0.004361 5.982195 3.354297
v 0.010528 5.976028 3.354297
v 0.004360 5.961142 1.765420
v -0.010527 5.967309 1.765420
v -0.010527 5.976030 1.765420
v -0.004360 5.982197 1.765420
v 0.004360 5.982197 1.765420
v 0.010527 5.976030 1.765420
v 0.010527 5.967309 1.765420
v -0.004360 5.961142 1.765420
vn -0.0000 -1.0000 -0.0000
vn -0.7071 -0.7071 -0.0000
vn 0.7071 -0.7071 -0.0000
vn 1.0000 -0.0000 -0.0000
vn 0.7071 0.7071 -0.0000
vn -0.0000 1.0000 -0.0000
vn -0.7071 0.7071 -0.0000
vn -1.0000 -0.0000 -0.0000
vt 0.093397 0.833554
vt 0.049107 0.833554
vt 0.086911 0.833554
vt 0.077738 0.833554
vt 0.071252 0.833554
vt 0.109056 0.833554
vt 0.099883 0.833554
vt 0.071252 0.833554
vt 0.093397 0.833554
vt 0.064766 0.833554
vt 0.055593 0.833554
vt 0.086911 0.685987
vt 0.071252 0.685987
vt 0.109056 0.685987
vt 0.099883 0.685987
vt 0.071252 0.685987
vt 0.093397 0.685987
vt 0.064766 0.685987
vt 0.055593 0.685987
vt 0.093397 0.685987
vt 0.049107 0.685987
vt 0.077738 0.685987
s 0
usemtl rails
f 169/304/29 162/295/29 163/296/29 176/314/29
f 176/314/30 163/296/30 164/297/30 170/305/30
f 175/312/31 161/293/31 162/295/31 169/304/31
f 175/313/32 174/311/32 168/303/32 161/294/32
f 173/310/33 167/302/33 168/303/33 174/311/33
f 172/308/34 166/300/34 167/302/34 173/310/34
f 171/307/35 165/299/35 166/301/35 172/309/35
f 170/306/36 164/298/36 165/299/36 171/307/36
o RAIL_RIGHT
v 0.004360 5.961144 0.176544
v -0.004360 5.961144 0.176544
v 0.010527 5.967310 0.176544
v 0.010527 5.976032 0.176544
v 0.004360 5.982199 0.176544
v -0.004360 5.982199 0.176544
v -0.010527 5.976032 0.176544
v -0.010527 5.967310 0.176544
v 0.004360 5.961142 1.765420
v -0.010527 5.967309 1.765420
v -0.010527 5.976030 1.765420
v -0.004360 5.982197 1.765420
v 0.004360 5.982197 1.765420
v 0.010527 5.976030 1.765420
v 0.010527 5.967309 1.765420
v -0.004360 5.961142 1.765420
vn -1.0000 -0.0000 -0.0000
vn -0.7071 0.7071 -0.0000
vn -0.0000 1.0000 -0.0000
vn 0.7071 0.7071 -0.0000
vn 1.0000 -0.0000 -0.0000
vn 0.7071 -0.7072 -0.0000
vn -0.7071 -0.7072 -0.0000
vn -0.0000 -1.0000 -0.0000
vt 0.086911 0.538420
vt 0.077738 0.538420
vt 0.049107 0.538420
vt 0.093397 0.538420
vt 0.055593 0.538420
vt 0.064766 0.538420
vt 0.093397 0.538420
vt 0.071252 0.538420
vt 0.099883 0.538420
vt 0.109056 0.538420
vt 0.071252 0.538420
vt 0.086911 0.685987
vt 0.109056 0.685987
vt 0.071252 0.685987
vt 0.099883 0.685987
vt 0.093397 0.685987
vt 0.071252 0.685987
vt 0.064766 0.685987
vt 0.055593 0.685987
vt 0.049107 0.685987
vt 0.093397 0.685987
vt 0.077738 0.685987
s 0
usemtl rails
f 184/324/37 186/327/37 187/329/37 183/323/37
f 183/323/38 187/329/38 188/330/38 182/321/38
f 182/322/39 188/331/39 189/332/39 181/320/39
f 181/320/40 189/332/40 190/333/40 180/319/40
f 179/317/41 180/319/41 190/333/41 191/334/41
f 179/318/42 191/335/42 185/326/42 177/315/42
f 178/316/43 192/336/43 186/328/43 184/325/43
f 177/315/44 185/326/44 192/336/44 178/316/44
