# Blender v2.82 (sub 7) OBJ File: 'street running tracks.blend'
# www.blender.org
mtllib spsf_street_running.mtl
o RAIL_BASE_Cube.001
v -0.500000 -1.000000 0.500000
v -0.500000 -0.000000 0.500000
v -0.500000 -1.000000 -0.500000
v -0.500000 -0.000000 -0.500000
v 0.500000 -1.000000 0.500000
v 0.500000 -0.000000 0.500000
v 0.500000 -1.000000 -0.500000
v 0.500000 -0.000000 -0.500000
v -0.500000 -0.000000 -1.500000
v -0.500000 -1.000000 -1.500000
v 0.500000 -1.000000 -1.500000
v 0.500000 -0.000000 -1.500000
v -0.500000 -1.000000 1.500000
v -0.500000 -0.000000 1.500000
v 0.500000 -0.000000 1.500000
v 0.500000 -1.000000 1.500000
v -0.500000 -0.134138 -0.630462
v 0.500000 -0.134138 -0.630462
v -0.500000 -0.134138 -0.796462
v 0.500000 -0.134138 -0.796462
v -0.500000 -0.134138 0.630462
v 0.500000 -0.134138 0.630462
v -0.500000 -0.134138 0.796462
v 0.500000 -0.134138 0.796462
v -0.500000 -0.035000 -0.796462
v -0.500000 -0.000000 -0.831462
v 0.500000 -0.000000 -0.831462
v 0.500000 -0.035000 -0.796462
v -0.500000 -0.000000 -0.595462
v -0.500000 -0.035000 -0.630462
v 0.500000 -0.035000 -0.630462
v 0.500000 -0.000000 -0.595462
v -0.500000 -0.035000 0.630462
v -0.500000 -0.000000 0.595462
v 0.500000 -0.000000 0.595462
v 0.500000 -0.035000 0.630462
v -0.500000 -0.000000 0.831462
v -0.500000 -0.035000 0.796462
v 0.500000 -0.035000 0.796462
v 0.500000 -0.000000 0.831462
vt 0.560000 0.085000
vt 0.640000 0.005000
vt 0.560000 0.005000
vt 0.560000 0.005000
vt 0.640000 0.015000
vt 0.640000 0.005000
vt 0.640000 0.085000
vt 0.560000 0.005000
vt 0.640000 0.005000
vt 0.640000 0.005000
vt 0.620000 0.075000
vt 0.630000 0.075000
vt 0.560000 0.085000
vt 0.560000 0.005000
vt 0.560000 0.260000
vt 0.640000 0.180000
vt 0.640000 0.260000
vt 0.560000 0.005000
vt 0.640000 0.085000
vt 0.560000 0.085000
vt 0.560000 0.005000
vt 0.585000 0.075000
vt 0.570000 0.075000
vt 0.560000 0.270000
vt 0.560000 0.085000
vt 0.640000 0.005000
vt 0.640000 0.085000
vt 0.640000 0.085000
vt 0.560000 0.005000
vt 0.640000 0.005000
vt 0.560000 0.155000
vt 0.640000 0.100000
vt 0.640000 0.155000
vt 0.560000 0.005000
vt 0.640000 0.005000
vt 0.620000 0.075000
vt 0.560000 0.085000
vt 0.640000 0.005000
vt 0.560000 0.015000
vt 0.560000 0.005000
vt 0.560000 0.005000
vt 0.640000 0.015000
vt 0.640000 0.005000
vt 0.560000 0.180000
vt 0.640000 0.175000
vt 0.640000 0.005000
vt 0.585000 0.075000
vt 0.195000 0.115000
vt 0.115000 0.125000
vt 0.115000 0.115000
vt 0.195000 0.000000
vt 0.115000 0.010000
vt 0.115000 0.000000
vt 0.640000 0.005000
vt 0.560000 0.015000
vt 0.560000 0.005000
vt 0.560000 0.290000
vt 0.640000 0.285000
vt 0.640000 0.290000
vt 0.560000 0.275000
vt 0.640000 0.270000
vt 0.640000 0.275000
vt 0.640000 0.170000
vt 0.560000 0.175000
vt 0.560000 0.170000
vt 0.560000 0.160000
vt 0.560000 0.340000
vt 0.640000 0.085000
vt 0.560000 0.015000
vt 0.560000 0.085000
vt 0.635000 0.085000
vt 0.640000 0.085000
vt 0.630000 0.080000
vt 0.560000 0.085000
vt 0.615000 0.085000
vt 0.620000 0.080000
vt 0.640000 0.085000
vt 0.640000 0.005000
vt 0.570000 0.085000
vt 0.560000 0.085000
vt 0.570000 0.080000
vt 0.640000 0.085000
vt 0.590000 0.085000
vt 0.585000 0.080000
vt 0.560000 0.005000
vt 0.560000 0.100000
vt 0.640000 0.085000
vt 0.630000 0.075000
vt 0.635000 0.085000
vt 0.630000 0.080000
vt 0.620000 0.080000
vt 0.615000 0.085000
vt 0.560000 0.085000
vt 0.640000 0.085000
vt 0.640000 0.015000
vt 0.560000 0.015000
vt 0.560000 0.085000
vt 0.570000 0.075000
vt 0.570000 0.085000
vt 0.570000 0.080000
vt 0.585000 0.080000
vt 0.590000 0.085000
vt 0.640000 0.085000
vt 0.195000 0.125000
vt 0.195000 0.010000
vt 0.640000 0.015000
vt 0.560000 0.285000
vt 0.640000 0.160000
vt 0.640000 0.340000
vn -1.0000 0.0000 0.0000
vn 0.0000 0.0000 -1.0000
vn 1.0000 0.0000 0.0000
vn 0.0000 -1.0000 0.0000
vn 0.0000 1.0000 0.0000
vn 0.0000 0.0000 1.0000
vn 0.0000 0.7071 0.7071
vn 0.0000 0.7071 -0.7071
usemtl spsf_track
s off
f 2/1/1 3/2/1 1/3/1
f 17/4/2 31/5/2 18/6/2
f 8/7/3 5/8/3 7/9/3
f 1/10/1 23/11/1 21/12/1
f 7/9/4 1/13/4 3/14/4
f 4/15/5 6/16/5 8/17/5
f 9/18/2 11/19/2 10/20/2
f 7/21/3 20/22/3 18/23/3
f 8/17/5 29/24/5 4/15/5
f 3/25/4 11/26/4 7/27/4
f 15/28/6 13/29/6 16/30/6
f 37/31/5 15/32/5 40/33/5
f 16/34/3 5/35/3 24/36/3
f 5/35/4 13/37/4 1/3/4
f 22/38/6 33/39/6 21/40/6
f 23/41/2 39/42/2 24/43/2
f 2/44/5 35/45/5 6/16/5
f 10/46/1 3/14/1 19/47/1
f 18/48/5 19/49/5 17/50/5
f 24/51/5 21/52/5 23/53/5
f 20/54/6 25/55/6 19/56/6
f 26/57/7 28/58/7 27/59/7
f 30/60/8 32/61/8 31/62/8
f 36/63/7 34/64/7 33/65/7
f 40/33/8 38/66/8 37/31/8
f 27/59/5 9/67/5 26/57/5
f 2/1/1 4/68/1 3/2/1
f 17/4/2 30/69/2 31/5/2
f 8/7/3 6/70/3 5/8/3
f 34/71/1 2/72/1 33/73/1
f 2/72/1 1/10/1 21/12/1
f 1/10/1 13/29/1 23/11/1
f 13/29/1 14/74/1 23/11/1
f 14/74/1 37/75/1 23/11/1
f 37/75/1 38/76/1 23/11/1
f 2/72/1 21/12/1 33/73/1
f 7/9/4 5/77/4 1/13/4
f 4/15/5 2/44/5 6/16/5
f 9/18/2 12/78/2 11/19/2
f 32/79/3 8/80/3 31/81/3
f 8/80/3 7/21/3 18/23/3
f 7/21/3 11/26/3 20/22/3
f 11/26/3 12/82/3 20/22/3
f 12/82/3 27/83/3 20/22/3
f 27/83/3 28/84/3 20/22/3
f 8/80/3 18/23/3 31/81/3
f 8/17/5 32/61/5 29/24/5
f 3/25/4 10/85/4 11/26/4
f 15/28/6 14/74/6 13/29/6
f 37/31/5 14/86/5 15/32/5
f 5/35/3 6/87/3 22/88/3
f 6/87/3 35/89/3 36/90/3
f 22/88/3 6/87/3 36/90/3
f 24/36/3 39/91/3 40/92/3
f 24/36/3 40/92/3 15/93/3
f 5/35/3 22/88/3 24/36/3
f 15/93/3 16/34/3 24/36/3
f 5/35/4 16/94/4 13/37/4
f 22/38/6 36/95/6 33/39/6
f 23/41/2 38/96/2 39/42/2
f 2/44/5 34/64/5 35/45/5
f 3/14/1 4/97/1 17/98/1
f 4/97/1 29/99/1 30/100/1
f 17/98/1 4/97/1 30/100/1
f 19/47/1 25/101/1 26/102/1
f 19/47/1 26/102/1 9/103/1
f 3/14/1 17/98/1 19/47/1
f 9/103/1 10/46/1 19/47/1
f 18/48/5 20/104/5 19/49/5
f 24/51/5 22/105/5 21/52/5
f 20/54/6 28/106/6 25/55/6
f 26/57/7 25/107/7 28/58/7
f 30/60/8 29/24/8 32/61/8
f 36/63/7 35/45/7 34/64/7
f 40/33/8 39/108/8 38/66/8
f 27/59/5 12/109/5 9/67/5
o RAIL_LEFT_Cube.002
v -0.500549 -0.044700 0.793649
v -0.500549 -0.044700 0.717649
v 0.499451 -0.044700 0.793649
v 0.499451 -0.044700 0.717649
v -0.500549 -0.064700 0.741649
v -0.500549 -0.064700 0.769649
v 0.499451 -0.064700 0.741649
v 0.499451 -0.064700 0.769649
v -0.500549 -0.142700 0.741649
v -0.500549 -0.142700 0.769649
v 0.499451 -0.142700 0.741649
v 0.499451 -0.142700 0.769649
v -0.500549 -0.162700 0.679649
v -0.500549 -0.162700 0.831649
v 0.499451 -0.162700 0.679649
v 0.499451 -0.162700 0.831649
v -0.500549 -0.172700 0.679649
v -0.500549 -0.172700 0.831649
v 0.499451 -0.172700 0.679649
v 0.499451 -0.172700 0.831649
v -0.500549 -0.003700 0.793649
v -0.500549 0.005300 0.784649
v -0.500549 0.005300 0.726649
v -0.500549 -0.003700 0.717649
v 0.499451 0.005300 0.784649
v 0.499451 -0.003700 0.793649
v 0.499451 -0.003700 0.717649
v 0.499451 0.005300 0.726649
v -0.500549 0.005300 0.726649
v -0.500549 -0.003700 0.717649
v 0.499451 -0.003700 0.717649
v 0.499451 0.005300 0.726649
vt 0.005000 0.985000
vt 0.375000 0.955000
vt 0.375000 0.985000
vt 0.075000 0.645000
vt 0.075000 0.640000
vt 0.090000 0.640000
vt 0.075000 0.670000
vt 0.070000 0.675000
vt 0.055000 0.675000
vt 0.005000 0.610000
vt 0.380000 0.600000
vt 0.380000 0.610000
vt 0.380000 0.735000
vt 0.005000 0.715000
vt 0.380000 0.715000
vt 0.100000 0.650000
vt 0.130000 0.665000
vt 0.100000 0.665000
vt 0.380000 0.610000
vt 0.005000 0.620000
vt 0.005000 0.610000
vt 0.045000 0.650000
vt 0.055000 0.640000
vt 0.090000 0.675000
vt 0.005000 0.765000
vt 0.380000 0.735000
vt 0.380000 0.765000
vt 0.045000 0.665000
vt 0.020000 0.650000
vt 0.380000 0.830000
vt 0.005000 0.865000
vt 0.005000 0.830000
vt 0.380000 0.790000
vt 0.005000 0.830000
vt 0.005000 0.790000
vt 0.135000 0.620000
vt 0.140000 0.690000
vt 0.135000 0.690000
vt 0.380000 0.765000
vt 0.005000 0.790000
vt 0.005000 0.765000
vt 0.130000 0.650000
vt 0.025000 0.675000
vt 0.015000 0.630000
vt 0.025000 0.660000
vt 0.380000 0.865000
vt 0.005000 0.935000
vt 0.005000 0.865000
vt 0.015000 0.700000
vt 0.010000 0.630000
vt 0.380000 0.590000
vt 0.005000 0.595000
vt 0.005000 0.590000
vt 0.005000 0.600000
vt 0.380000 0.595000
vt 0.380000 0.600000
vt 0.380000 0.985000
vt 0.005000 0.990000
vt 0.005000 0.985000
vt 0.005000 0.695000
vt 0.380000 0.715000
vt 0.005000 0.715000
vt 0.005000 0.990000
vt 0.380000 0.995000
vt 0.380000 0.990000
vt 0.005000 0.955000
vt 0.075000 0.670000
vt 0.075000 0.675000
vt 0.075000 0.645000
vt 0.070000 0.640000
vt 0.005000 0.600000
vt 0.005000 0.735000
vt 0.380000 0.620000
vt 0.005000 0.735000
vt 0.020000 0.665000
vt 0.380000 0.865000
vt 0.380000 0.830000
vt 0.140000 0.620000
vt 0.380000 0.790000
vt 0.380000 0.935000
vt 0.010000 0.700000
vt 0.380000 0.595000
vt 0.005000 0.595000
vt 0.380000 0.990000
vt 0.380000 0.695000
vt 0.005000 0.995000
vn 0.0000 1.0000 0.0000
vn 1.0000 0.0000 0.0000
vn -1.0000 0.0000 0.0000
vn 0.0000 -0.7682 0.6402
vn 0.0000 0.0000 -1.0000
vn 0.0000 -0.7682 -0.6402
vn 0.0000 0.9517 0.3070
vn 0.0000 0.0000 1.0000
vn 0.0000 0.9517 -0.3070
vn 0.0000 -1.0000 0.0000
vn 0.0000 0.7071 0.7071
vn 0.0000 0.7071 -0.7071
usemtl spsf_track
s off
f 63/110/9 65/111/9 68/112/9
f 65/113/10 66/114/10 43/115/10
f 63/116/11 64/117/11 42/118/11
f 41/119/12 48/120/12 43/121/12
f 64/122/13 44/123/13 42/124/13
f 48/125/10 51/126/10 47/127/10
f 44/128/14 45/129/14 42/130/14
f 42/118/11 46/131/11 41/132/11
f 43/115/10 47/127/10 44/133/10
f 50/134/15 56/135/15 52/136/15
f 45/137/11 50/138/11 46/131/11
f 46/139/16 52/140/16 48/141/16
f 47/142/13 49/143/13 45/144/13
f 56/145/10 59/146/10 55/147/10
f 51/148/17 53/149/17 49/150/17
f 52/151/10 55/147/10 51/126/10
f 49/152/11 54/153/11 50/154/11
f 59/155/18 58/156/18 57/157/18
f 53/158/11 58/159/11 54/153/11
f 54/160/16 60/161/16 56/162/16
f 55/163/13 57/164/13 53/165/13
f 62/166/19 66/167/19 65/168/19
f 66/169/16 41/170/16 43/171/16
f 72/172/20 70/173/20 69/174/20
f 63/110/9 62/175/9 65/111/9
f 43/115/10 44/133/10 68/176/10
f 44/133/10 67/177/10 68/176/10
f 68/176/10 65/113/10 43/115/10
f 42/118/11 41/132/11 62/178/11
f 41/132/11 61/179/11 62/178/11
f 62/178/11 63/116/11 42/118/11
f 41/119/12 46/180/12 48/120/12
f 64/122/13 67/181/13 44/123/13
f 48/125/10 52/151/10 51/126/10
f 44/128/14 47/182/14 45/129/14
f 42/118/11 45/137/11 46/131/11
f 43/115/10 48/125/10 47/127/10
f 50/134/15 54/183/15 56/135/15
f 45/137/11 49/184/11 50/138/11
f 46/139/16 50/185/16 52/140/16
f 47/142/13 51/186/13 49/143/13
f 56/145/10 60/187/10 59/146/10
f 51/148/17 55/188/17 53/149/17
f 52/151/10 56/145/10 55/147/10
f 49/152/11 53/158/11 54/153/11
f 59/155/18 60/189/18 58/156/18
f 53/158/11 57/190/11 58/159/11
f 54/160/16 58/191/16 60/161/16
f 55/163/13 59/192/13 57/164/13
f 62/166/19 61/193/19 66/167/19
f 66/169/16 61/194/16 41/170/16
f 72/172/20 71/195/20 70/173/20
o RAIL_RIGHT_Cube.010
v -0.500549 -0.044700 -0.793649
v -0.500549 -0.044700 -0.717649
v 0.499451 -0.044700 -0.793649
v 0.499451 -0.044700 -0.717649
v -0.500549 -0.064700 -0.741649
v -0.500549 -0.064700 -0.769649
v 0.499451 -0.064700 -0.741649
v 0.499451 -0.064700 -0.769649
v -0.500549 -0.142700 -0.741649
v -0.500549 -0.142700 -0.769649
v 0.499451 -0.142700 -0.741649
v 0.499451 -0.142700 -0.769649
v -0.500549 -0.162700 -0.679649
v -0.500549 -0.162700 -0.831649
v 0.499451 -0.162700 -0.679649
v 0.499451 -0.162700 -0.831649
v -0.500549 -0.172700 -0.679649
v -0.500549 -0.172700 -0.831649
v 0.499451 -0.172700 -0.679649
v 0.499451 -0.172700 -0.831649
v -0.500549 -0.003700 -0.793649
v -0.500549 0.005300 -0.784649
v -0.500549 0.005300 -0.726649
v -0.500549 -0.003700 -0.717649
v 0.499451 0.005300 -0.784649
v 0.499451 -0.003700 -0.793649
v 0.499451 -0.003700 -0.717649
v 0.499451 0.005300 -0.726649
v -0.500549 0.005300 -0.726649
v -0.500549 -0.003700 -0.717649
v 0.499451 -0.003700 -0.717649
v 0.499451 0.005300 -0.726649
vt 0.375000 0.955000
vt 0.005000 0.985000
vt 0.375000 0.985000
vt 0.075000 0.645000
vt 0.075000 0.670000
vt 0.090000 0.640000
vt 0.075000 0.670000
vt 0.075000 0.645000
vt 0.055000 0.675000
vt 0.380000 0.600000
vt 0.005000 0.610000
vt 0.380000 0.610000
vt 0.005000 0.715000
vt 0.380000 0.735000
vt 0.380000 0.715000
vt 0.130000 0.665000
vt 0.100000 0.650000
vt 0.100000 0.665000
vt 0.005000 0.620000
vt 0.380000 0.610000
vt 0.005000 0.610000
vt 0.045000 0.650000
vt 0.055000 0.640000
vt 0.090000 0.675000
vt 0.380000 0.735000
vt 0.005000 0.765000
vt 0.380000 0.765000
vt 0.020000 0.650000
vt 0.045000 0.665000
vt 0.005000 0.865000
vt 0.380000 0.830000
vt 0.005000 0.830000
vt 0.005000 0.830000
vt 0.380000 0.790000
vt 0.005000 0.790000
vt 0.140000 0.690000
vt 0.135000 0.620000
vt 0.135000 0.690000
vt 0.005000 0.790000
vt 0.380000 0.765000
vt 0.005000 0.765000
vt 0.130000 0.650000
vt 0.015000 0.630000
vt 0.025000 0.675000
vt 0.025000 0.660000
vt 0.005000 0.935000
vt 0.380000 0.865000
vt 0.005000 0.865000
vt 0.010000 0.630000
vt 0.015000 0.700000
vt 0.005000 0.595000
vt 0.380000 0.590000
vt 0.005000 0.590000
vt 0.380000 0.595000
vt 0.005000 0.600000
vt 0.380000 0.600000
vt 0.005000 0.990000
vt 0.380000 0.985000
vt 0.005000 0.985000
vt 0.380000 0.715000
vt 0.005000 0.695000
vt 0.005000 0.715000
vt 0.380000 0.995000
vt 0.005000 0.990000
vt 0.380000 0.990000
vt 0.005000 0.955000
vt 0.075000 0.675000
vt 0.075000 0.640000
vt 0.070000 0.640000
vt 0.070000 0.675000
vt 0.005000 0.600000
vt 0.005000 0.735000
vt 0.380000 0.620000
vt 0.005000 0.735000
vt 0.020000 0.665000
vt 0.380000 0.865000
vt 0.380000 0.830000
vt 0.140000 0.620000
vt 0.380000 0.790000
vt 0.380000 0.935000
vt 0.010000 0.700000
vt 0.380000 0.595000
vt 0.005000 0.595000
vt 0.380000 0.990000
vt 0.380000 0.695000
vt 0.005000 0.995000
vn 0.0000 1.0000 0.0000
vn 1.0000 0.0000 0.0000
vn -1.0000 0.0000 0.0000
vn 0.0000 -0.7682 -0.6402
vn 0.0000 0.0000 1.0000
vn 0.0000 -0.7682 0.6402
vn 0.0000 0.9517 -0.3070
vn 0.0000 0.0000 -1.0000
vn 0.0000 0.9517 0.3070
vn 0.0000 -1.0000 0.0000
vn 0.0000 0.7071 -0.7071
vn 0.0000 0.7071 0.7071
usemtl spsf_track
s off
f 97/196/21 95/197/21 100/198/21
f 97/199/22 100/200/22 75/201/22
f 95/202/23 94/203/23 74/204/23
f 80/205/24 73/206/24 75/207/24
f 76/208/25 96/209/25 74/210/25
f 83/211/22 80/212/22 79/213/22
f 77/214/26 76/215/26 74/216/26
f 78/217/23 74/204/23 73/218/23
f 79/213/22 75/201/22 76/219/22
f 88/220/27 82/221/27 84/222/27
f 82/223/23 77/224/23 78/217/23
f 84/225/28 78/226/28 80/227/28
f 81/228/25 79/229/25 77/230/25
f 91/231/22 88/232/22 87/233/22
f 85/234/29 83/235/29 81/236/29
f 87/233/22 84/237/22 83/211/22
f 86/238/23 81/239/23 82/240/23
f 90/241/30 91/242/30 89/243/30
f 90/244/23 85/245/23 86/238/23
f 92/246/28 86/247/28 88/248/28
f 89/249/25 87/250/25 85/251/25
f 98/252/31 94/253/31 97/254/31
f 73/255/28 98/256/28 75/257/28
f 102/258/32 104/259/32 101/260/32
f 97/196/21 94/261/21 95/197/21
f 99/262/22 76/219/22 100/200/22
f 76/219/22 75/201/22 100/200/22
f 75/201/22 98/263/22 97/199/22
f 93/264/23 73/218/23 94/203/23
f 73/218/23 74/204/23 94/203/23
f 74/204/23 96/265/23 95/202/23
f 80/205/24 78/266/24 73/206/24
f 76/208/25 99/267/25 96/209/25
f 83/211/22 84/237/22 80/212/22
f 77/214/26 79/268/26 76/215/26
f 78/217/23 77/224/23 74/204/23
f 79/213/22 80/212/22 75/201/22
f 88/220/27 86/269/27 82/221/27
f 82/223/23 81/270/23 77/224/23
f 84/225/28 82/271/28 78/226/28
f 81/228/25 83/272/25 79/229/25
f 91/231/22 92/273/22 88/232/22
f 85/234/29 87/274/29 83/235/29
f 87/233/22 88/232/22 84/237/22
f 86/238/23 85/245/23 81/239/23
f 90/241/30 92/275/30 91/242/30
f 90/244/23 89/276/23 85/245/23
f 92/246/28 90/277/28 86/247/28
f 89/249/25 91/278/25 87/250/25
f 98/252/31 93/279/31 94/253/31
f 73/255/28 93/280/28 98/256/28
f 102/258/32 103/281/32 104/259/32
