# Blender v2.79 (sub 0) OBJ File: ''
# www.blender.org
mtllib spsf_tramtracks2.mtl
o RAIL_LEFT
v 0.500000 0.169287 0.717549
v -0.500000 0.169287 0.717549
v 0.500000 0.169287 0.793749
v -0.500000 0.169287 0.793749
v -0.500000 0.127500 0.793749
v 0.500000 0.127500 0.793749
v -0.500000 0.169287 0.793749
v -0.500000 0.169287 0.717549
v 0.500000 0.127500 0.717549
v -0.500000 0.127500 0.717549
v -0.500000 0.127500 0.717549
v 0.500000 0.107500 0.742949
v -0.500000 0.107500 0.742949
v -0.500000 0.107500 0.768349
v 0.500000 0.107500 0.768349
v -0.500000 0.127500 0.793749
v -0.500000 0.010000 0.832000
v 0.500000 0.010000 0.832000
v 0.500000 0.030000 0.768349
v -0.500000 0.030000 0.768349
v 0.500000 0.030000 0.742949
v 0.500000 0.010000 0.679000
v -0.500000 0.010000 0.679000
v -0.500000 0.030000 0.742949
v 0.500000 0.000500 0.679449
v -0.500000 0.000500 0.679449
v -0.500000 0.000500 0.831849
v 0.500000 0.000500 0.831849
v -0.500000 0.000500 0.831849
v -0.500000 0.000500 0.679449
v -0.500000 0.178300 0.726562
v 0.500000 0.178300 0.726562
v -0.500000 0.169287 0.717549
v -0.500000 0.169287 0.793749
v 0.500000 0.178300 0.784736
v -0.500000 0.178300 0.784736
v -0.500000 0.178300 0.726562
v -0.500000 0.178300 0.784736
vt 0.538020 0.972770
vt 0.010720 0.994800
vt 0.010720 0.972770
vt 0.010720 0.994800
vt 0.538020 0.972770
vt 0.538020 0.994800
vt 0.010720 0.994800
vt 0.538020 0.984260
vt 0.538020 0.994800
vt 0.538020 0.984260
vt 0.010720 0.994800
vt 0.010720 0.984260
vt 0.538020 0.932850
vt 0.010720 0.943390
vt 0.010720 0.932850
vt 0.010720 0.932850
vt 0.538020 0.943390
vt 0.010720 0.943390
vt 0.010720 0.989800
vt 0.538020 0.994800
vt 0.010720 0.994800
vt 0.010720 0.953150
vt 0.538020 0.958150
vt 0.010720 0.958150
vt 0.538020 0.994800
vt 0.010720 0.914450
vt 0.538020 0.914450
vt 0.538020 0.943390
vt 0.014440 0.887790
vt 0.541730 0.883040
vt 0.541730 0.887790
vt 0.541730 0.847610
vt 0.014440 0.852370
vt 0.014440 0.847610
vt 0.541730 0.883040
vt 0.014440 0.852370
vt 0.541730 0.852370
vt 0.611840 0.912980
vt 0.541930 0.917330
vt 0.542010 0.912980
vt 0.582740 0.926490
vt 0.571110 0.926490
vt 0.571110 0.962000
vt 0.582740 0.962000
vt 0.559460 0.971180
vt 0.594380 0.971180
vt 0.559460 0.990310
vt 0.594380 0.990310
vt 0.563590 0.994450
vt 0.630580 0.912980
vt 0.700480 0.917330
vt 0.630370 0.917330
vt 0.659680 0.926490
vt 0.671310 0.962000
vt 0.659680 0.962000
vt 0.682950 0.971180
vt 0.648040 0.971180
vt 0.682950 0.990310
vt 0.678830 0.994450
vt 0.648040 0.990310
vt 0.538020 0.994800
vt 0.010720 0.972770
vt 0.010720 0.984260
vt 0.538020 0.994800
vt 0.538020 0.932850
vt 0.538020 0.989800
vt 0.538020 0.953150
vt 0.010720 0.994800
vt 0.014440 0.883040
vt 0.014440 0.883040
vt 0.612050 0.917330
vt 0.590260 0.994450
vt 0.700410 0.912980
vt 0.671310 0.926490
vt 0.652160 0.994450
vn 0.0000 0.0000 1.0000
vn 0.0000 0.0000 -1.0000
vn 0.0000 -0.7857 -0.6186
vn 0.0000 -0.7857 0.6186
vn 0.0000 0.9540 0.2998
vn 0.0000 0.9544 -0.2985
vn 0.0000 -0.0472 -0.9989
vn 0.0000 -0.0159 0.9999
vn 0.0000 -1.0000 -0.0000
vn 0.0000 0.7071 -0.7071
vn 0.0000 0.7071 0.7071
vn 0.0000 1.0000 0.0000
vn 1.0000 0.0000 0.0000
vn -1.0000 0.0000 0.0000
usemtl None
s off
f 6/1/1 7/2/1 5/3/1
f 1/4/2 10/5/2 8/6/2
f 9/7/3 13/8/3 11/9/3
f 15/10/4 16/11/4 14/12/4
f 18/13/5 20/14/5 17/15/5
f 22/16/6 24/17/6 21/18/6
f 25/19/7 23/20/7 22/21/7
f 27/22/8 18/23/8 17/24/8
f 30/25/9 28/26/9 29/27/9
f 15/10/1 20/14/1 19/28/1
f 13/8/2 21/18/2 24/17/2
f 32/29/10 33/30/10 31/31/10
f 3/32/11 36/33/11 34/34/11
f 32/35/12 38/36/12 35/37/12
f 25/38/13 18/39/13 28/40/13
f 18/39/13 21/41/13 19/42/13
f 21/41/13 15/43/13 19/42/13
f 12/44/13 6/45/13 15/43/13
f 9/46/13 3/47/13 6/45/13
f 1/48/13 35/49/13 3/47/13
f 26/50/14 17/51/14 23/52/14
f 17/51/14 24/53/14 23/52/14
f 24/53/14 14/54/14 13/55/14
f 13/55/14 5/56/14 10/57/14
f 4/58/14 10/57/14 5/56/14
f 36/59/14 2/60/14 4/58/14
f 6/1/1 3/61/1 7/2/1
f 1/4/2 9/62/2 10/5/2
f 9/7/3 12/63/3 13/8/3
f 15/10/4 6/64/4 16/11/4
f 18/13/5 19/28/5 20/14/5
f 22/16/6 23/65/6 24/17/6
f 25/19/7 26/66/7 23/20/7
f 27/22/8 28/67/8 18/23/8
f 30/25/9 25/68/9 28/26/9
f 15/10/1 14/12/1 20/14/1
f 13/8/2 12/63/2 21/18/2
f 32/29/10 1/69/10 33/30/10
f 3/32/11 35/37/11 36/33/11
f 32/35/12 37/70/12 38/36/12
f 25/38/13 22/71/13 18/39/13
f 18/39/13 22/71/13 21/41/13
f 21/41/13 12/44/13 15/43/13
f 12/44/13 9/46/13 6/45/13
f 9/46/13 1/48/13 3/47/13
f 1/48/13 32/72/13 35/49/13
f 26/50/14 27/73/14 17/51/14
f 17/51/14 20/74/14 24/53/14
f 24/53/14 20/74/14 14/54/14
f 13/55/14 14/54/14 5/56/14
f 4/58/14 2/60/14 10/57/14
f 36/59/14 31/75/14 2/60/14
l 3 4
l 1 2
o RAIL_BASE
v -0.500000 0.150000 -0.840000
v -0.500000 0.150000 -1.040000
v -0.500000 0.000000 -1.140000
v -0.500000 0.000000 -0.840000
v -0.500000 0.000000 -0.670000
v -0.500000 0.000000 0.000000
v -0.500000 0.150000 0.000000
v -0.500000 0.150000 -0.670000
v -0.500000 0.150000 0.000000
v 0.500000 0.150000 0.000000
v 0.500000 0.150000 -0.670000
v -0.500000 0.150000 -0.670000
v -0.500000 0.150000 -0.840000
v 0.500000 0.150000 -0.840000
v 0.500000 0.150000 -1.040000
v -0.500000 0.150000 -1.040000
v 0.500000 0.150000 -0.840000
v 0.500000 0.000000 -0.840000
v 0.500000 0.000000 -1.140000
v 0.500000 0.150000 -1.040000
v 0.500000 0.150000 0.000000
v 0.500000 0.000000 0.000000
v 0.500000 0.000000 -0.670000
v 0.500000 0.150000 -0.670000
v -0.500000 -0.000000 0.840000
v -0.500000 -0.000000 1.140000
v -0.500000 0.150000 1.040000
v -0.500000 0.150000 0.840000
v -0.500000 0.150000 0.670000
v -0.500000 -0.000000 0.670000
v -0.500000 0.150000 0.670000
v 0.500000 0.150000 0.670000
v -0.500000 0.150000 1.040000
v 0.500000 0.150000 1.040000
v 0.500000 0.150000 0.840000
v -0.500000 0.150000 0.840000
v 0.500000 0.150000 1.040000
v 0.500000 -0.000000 1.140000
v 0.500000 -0.000000 0.840000
v 0.500000 0.150000 0.840000
v 0.500000 0.150000 0.670000
v 0.500000 -0.000000 0.670000
vt 0.841370 0.543170
vt 0.857320 0.531200
vt 0.857320 0.543170
vt 0.740940 0.515600
vt 0.687500 0.527560
vt 0.687500 0.515600
vt 0.930610 0.500000
vt 0.984050 0.579760
vt 0.930610 0.579760
vt 0.984050 0.500000
vt 1.000000 0.579760
vt 0.984050 0.579760
vt 0.833400 0.515600
vt 0.849350 0.527560
vt 0.833400 0.527560
vt 0.687500 0.500000
vt 0.740940 0.511960
vt 0.687500 0.511960
vt 0.829760 0.531200
vt 0.750000 0.543170
vt 0.750000 0.531200
vt 0.918650 0.500000
vt 0.930610 0.579760
vt 0.918650 0.579760
vt 0.829760 0.500000
vt 0.750000 0.511960
vt 0.750000 0.500000
vt 0.857320 0.531200
vt 0.841370 0.543170
vt 0.857320 0.543170
vt 0.740940 0.527560
vt 0.687500 0.515600
vt 0.687500 0.527560
vt 0.984050 0.500000
vt 0.984050 0.579760
vt 1.000000 0.500000
vt 0.984050 0.579760
vt 1.000000 0.579760
vt 0.849350 0.527560
vt 0.833400 0.515600
vt 0.833400 0.527560
vt 0.740940 0.500000
vt 0.740940 0.511960
vt 0.829760 0.543170
vt 0.750000 0.531200
vt 0.750000 0.543170
vt 0.930610 0.500000
vt 0.918650 0.579760
vt 0.930610 0.579760
vt 0.829760 0.511960
vt 0.750000 0.500000
vt 0.750000 0.511960
vt 0.833400 0.531200
vt 0.984050 0.500000
vt 1.000000 0.500000
vt 0.857320 0.515600
vt 0.740940 0.500000
vt 0.829760 0.543170
vt 0.930610 0.500000
vt 0.829760 0.511960
vt 0.833400 0.531200
vt 0.984050 0.500000
vt 0.857320 0.515600
vt 0.829760 0.531200
vt 0.918650 0.500000
vt 0.829760 0.500000
vn -1.0000 0.0000 0.0000
vn 0.0000 1.0000 0.0000
vn 1.0000 0.0000 0.0000
vn 0.0000 0.0000 -1.0000
vn 0.0000 0.5547 -0.8321
vn 0.0000 0.0000 1.0000
vn 0.0000 0.5547 0.8321
usemtl None
s off
f 40/76/15 42/77/15 39/78/15
f 44/79/15 46/80/15 43/81/15
f 48/82/16 50/83/16 47/84/16
f 52/85/16 54/86/16 51/87/16
f 56/88/17 58/89/17 55/90/17
f 60/91/17 62/92/17 59/93/17
f 43/94/18 49/95/18 61/96/18
f 41/97/19 53/98/19 57/99/19
f 56/100/20 39/101/20 42/102/20
f 63/103/15 65/104/15 66/105/15
f 45/106/15 68/107/15 67/108/15
f 70/109/16 47/84/16 69/110/16
f 72/111/16 74/112/16 71/113/16
f 75/114/17 77/115/17 78/116/17
f 80/117/17 59/93/17 79/118/17
f 67/119/20 80/120/20 70/121/20
f 65/122/21 76/123/21 72/124/21
f 73/125/18 63/126/18 66/127/18
f 40/76/15 41/128/15 42/77/15
f 44/79/15 45/106/15 46/80/15
f 48/82/16 49/129/16 50/83/16
f 52/85/16 53/130/16 54/86/16
f 56/88/17 57/131/17 58/89/17
f 60/91/17 61/132/17 62/92/17
f 43/94/18 46/133/18 49/95/18
f 41/97/19 40/134/19 53/98/19
f 56/100/20 52/135/20 39/101/20
f 63/103/15 64/136/15 65/104/15
f 45/106/15 44/79/15 68/107/15
f 70/109/16 48/82/16 47/84/16
f 72/111/16 73/137/16 74/112/16
f 75/114/17 76/138/17 77/115/17
f 80/117/17 60/91/17 59/93/17
f 67/119/20 68/139/20 80/120/20
f 65/122/21 64/140/21 76/123/21
f 73/125/18 77/141/18 63/126/18
o RAIL_RIGHT
v -0.500000 0.169287 -0.717549
v 0.500000 0.169287 -0.717549
v -0.500000 0.169287 -0.793749
v 0.500000 0.169287 -0.793749
v -0.500000 0.169287 -0.793749
v 0.500000 0.127500 -0.793749
v -0.500000 0.127500 -0.793749
v -0.500000 0.127500 -0.717549
v 0.500000 0.127500 -0.717549
v -0.500000 0.169287 -0.717549
v -0.500000 0.107500 -0.742949
v 0.500000 0.107500 -0.742949
v -0.500000 0.127500 -0.717549
v -0.500000 0.127500 -0.793749
v 0.500000 0.107500 -0.768349
v -0.500000 0.107500 -0.768349
v -0.500000 0.030000 -0.768349
v 0.500000 0.030000 -0.768349
v 0.500000 0.010000 -0.832000
v -0.500000 0.010000 -0.832000
v -0.500000 0.030000 -0.742949
v -0.500000 0.010000 -0.679000
v 0.500000 0.010000 -0.679000
v 0.500000 0.030000 -0.742949
v -0.500000 0.000500 -0.679449
v 0.500000 0.000500 -0.679449
v 0.500000 0.000500 -0.831849
v -0.500000 0.000500 -0.831849
v -0.500000 0.000500 -0.679449
v -0.500000 0.000500 -0.831849
v -0.500000 0.169287 -0.717549
v 0.500000 0.178300 -0.726562
v -0.500000 0.178300 -0.726562
v -0.500000 0.178300 -0.784736
v 0.500000 0.178300 -0.784736
v -0.500000 0.169287 -0.793749
v -0.500000 0.178300 -0.784736
v -0.500000 0.178300 -0.726562
vt 0.550740 0.997920
vt -0.000000 0.974910
vt -0.000000 0.997920
vt -0.000000 0.974910
vt 0.550740 0.997920
vt 0.550740 0.974910
vt -0.000000 0.986910
vt 0.550740 0.997920
vt 0.550740 0.986910
vt 0.550740 0.997920
vt -0.000000 0.986910
vt -0.000000 0.997920
vt 0.550740 0.944220
vt -0.000000 0.933210
vt -0.000000 0.944220
vt 0.550740 0.933210
vt -0.000000 0.944220
vt 0.550740 0.944220
vt 0.550740 0.992690
vt -0.000000 0.997920
vt 0.550740 0.997920
vt 0.550740 0.954410
vt -0.000000 0.959640
vt 0.550740 0.959640
vt -0.000000 0.997920
vt 0.550740 0.913990
vt -0.000000 0.913990
vt 0.000000 0.878420
vt 0.550740 0.883380
vt 0.550740 0.878420
vt 0.550740 0.846380
vt 0.000000 0.841410
vt 0.000000 0.846380
vt 0.000000 0.878420
vt 0.000000 0.846380
vt 0.554830 0.917000
vt 0.627840 0.912460
vt 0.554910 0.912460
vt 0.597450 0.926570
vt 0.585300 0.926570
vt 0.597450 0.963660
vt 0.585300 0.963660
vt 0.609610 0.973240
vt 0.573140 0.973240
vt 0.609610 0.993230
vt 0.573140 0.993230
vt 0.605300 0.997550
vt 0.577450 0.997550
vt 0.720430 0.917000
vt 0.647420 0.912460
vt 0.647200 0.917000
vt 0.677810 0.926570
vt 0.677810 0.963660
vt 0.689960 0.926570
vt 0.665650 0.973240
vt 0.689960 0.963660
vt 0.665650 0.993230
vt 0.702120 0.973240
vt 0.669960 0.997550
vt 0.702120 0.993230
vt 0.550740 0.974910
vt -0.000000 0.997920
vt -0.000000 0.997920
vt 0.550740 0.986910
vt 0.550740 0.933210
vt -0.000000 0.933210
vt -0.000000 0.992690
vt -0.000000 0.954410
vt 0.550740 0.997920
vt 0.000000 0.883380
vt 0.550740 0.841410
vt 0.550740 0.878420
vt 0.628060 0.917000
vt 0.720350 0.912460
vt 0.697810 0.997550
vn 0.0000 0.0000 -1.0000
vn 0.0000 0.0000 1.0000
vn 0.0000 -0.7857 0.6186
vn 0.0000 -0.7857 -0.6186
vn 0.0000 0.9540 -0.2998
vn 0.0000 0.9544 0.2985
vn 0.0000 -0.0472 0.9989
vn 0.0000 -0.0159 -0.9999
vn 0.0000 -1.0000 -0.0000
vn 0.0000 0.7071 0.7071
vn 0.0000 0.7071 -0.7071
vn 0.0000 1.0000 0.0000
vn 1.0000 0.0000 0.0000
vn -1.0000 0.0000 0.0000
usemtl None
s off
f 84/142/22 87/143/22 85/144/22
f 89/145/23 90/146/23 88/147/23
f 92/148/24 93/149/24 91/150/24
f 86/151/25 96/152/25 94/153/25
f 98/154/26 100/155/26 97/156/26
f 102/157/27 104/158/27 101/159/27
f 105/160/28 103/161/28 102/162/28
f 107/163/29 100/164/29 99/165/29
f 106/166/30 110/167/30 107/168/30
f 96/152/22 98/154/22 97/156/22
f 92/148/23 101/159/23 104/158/23
f 82/169/31 113/170/31 111/171/31
f 115/172/32 116/173/32 114/174/32
f 118/175/33 115/172/33 117/176/33
f 99/177/34 106/178/34 107/179/34
f 104/180/34 99/177/34 98/181/34
f 92/182/34 98/181/34 95/183/34
f 89/184/34 95/183/34 86/185/34
f 82/186/34 86/185/34 84/187/34
f 112/188/34 84/187/34 115/189/34
f 100/190/35 105/191/35 102/192/35
f 101/193/35 100/190/35 102/192/35
f 91/194/35 97/195/35 101/193/35
f 88/196/35 96/197/35 91/194/35
f 81/198/35 87/199/35 88/196/35
f 113/200/35 83/201/35 81/198/35
f 84/142/22 86/202/22 87/143/22
f 89/145/23 82/203/23 90/146/23
f 92/148/24 89/204/24 93/149/24
f 86/151/25 95/205/25 96/152/25
f 98/154/26 99/206/26 100/155/26
f 102/157/27 103/207/27 104/158/27
f 105/160/28 106/208/28 103/161/28
f 107/163/29 108/209/29 100/164/29
f 106/166/30 109/210/30 110/167/30
f 96/152/22 95/205/22 98/154/22
f 92/148/23 91/150/23 101/159/23
f 82/169/31 112/211/31 113/170/31
f 115/172/32 84/212/32 116/173/32
f 118/175/33 112/213/33 115/172/33
f 99/177/34 103/214/34 106/178/34
f 104/180/34 103/214/34 99/177/34
f 92/182/34 104/180/34 98/181/34
f 89/184/34 92/182/34 95/183/34
f 82/186/34 89/184/34 86/185/34
f 112/188/34 82/186/34 84/187/34
f 100/190/35 108/215/35 105/191/35
f 101/193/35 97/195/35 100/190/35
f 91/194/35 96/197/35 97/195/35
f 88/196/35 87/199/35 96/197/35
f 81/198/35 83/201/35 87/199/35
f 113/200/35 114/216/35 83/201/35
l 83 84
l 81 82
