# Blender 3.4.1
# www.blender.org
mtllib pole.mtl
o RAIL_BASE
v 0.096146 -0.102656 -0.232116
v 0.057643 9.371260 -0.139163
v 0.232116 -0.102656 -0.096146
v 0.139163 9.371260 -0.057643
v 0.232116 -0.102656 0.096146
v 0.139163 9.371260 0.057643
v 0.096146 -0.102656 0.232116
v 0.057643 9.371260 0.139163
v -0.096146 -0.102656 0.232116
v -0.057643 9.371260 0.139163
v -0.232116 -0.102656 0.096146
v -0.139163 9.371260 0.057643
v -0.232116 -0.102656 -0.096146
v -0.139163 9.371260 -0.057643
v -0.096146 -0.102656 -0.232116
v -0.057643 9.371260 -0.139163
vn -0.7071 0.0098 0.7071
vn -1.0000 0.0098 -0.0000
vn -0.7071 0.0098 -0.7071
vn -0.0000 0.0098 -1.0000
vn 0.7071 0.0098 -0.7071
vn 1.0000 0.0098 -0.0000
vn 0.7071 0.0098 0.7071
vn -0.0000 0.0098 1.0000
vn -0.0000 1.0000 -0.0000
vt 0.298690 0.006437
vt 0.742943 0.006437
vt 0.387644 0.966430
vt 0.653989 0.966430
vt 0.651911 0.994768
vt 0.298690 0.006437
vt 0.742943 0.006437
vt 0.387644 0.966430
vt 0.653989 0.966430
vt 0.840249 0.986507
vt 0.298690 0.006437
vt 0.742943 0.006437
vt 0.387644 0.966430
vt 0.653989 0.966430
vt 0.840249 0.974826
vt 0.298690 0.006437
vt 0.742943 0.006437
vt 0.387644 0.966430
vt 0.653989 0.966430
vt 0.651911 0.966565
vt 0.742943 0.006437
vt 0.298690 0.006437
vt 0.653989 0.966430
vt 0.387644 0.966430
vt 0.385566 0.966565
vt 0.298690 0.006437
vt 0.742943 0.006437
vt 0.387644 0.966430
vt 0.653989 0.966430
vt 0.197228 0.974826
vt 0.298690 0.006437
vt 0.742943 0.006437
vt 0.387644 0.966430
vt 0.653989 0.966430
vt 0.197228 0.986507
vt 0.298690 0.006437
vt 0.742943 0.006437
vt 0.387644 0.966430
vt 0.653989 0.966430
vt 0.385566 0.994768
s 0
usemtl base
f 9/21/1 10/23/1 12/28/1 11/26/1
f 11/27/2 12/29/2 14/33/2 13/31/2
f 13/32/3 14/34/3 16/38/3 15/36/3
f 1/1/4 15/37/4 16/39/4 2/3/4
f 1/2/5 2/4/5 4/8/5 3/6/5
f 3/7/6 4/9/6 6/13/6 5/11/6
f 5/12/7 6/14/7 8/18/7 7/16/7
f 7/17/8 8/19/8 10/24/8 9/22/8
f 4/10/9 2/5/9 16/40/9 14/35/9 12/30/9 10/25/9 8/20/9 6/15/9
o RAIL_LEFT
v 0.179500 5.918628 0.074351
v 0.074351 5.918628 0.179500
v 0.179500 6.020117 0.074351
v 0.074351 6.020117 0.179500
v -0.179500 6.020118 0.000000
v -0.179500 5.918629 0.000000
v -0.074351 5.918629 0.179500
v -0.179500 5.918629 0.074351
v 0.179500 6.020117 0.000000
v 0.179500 5.918628 0.000000
v -0.074351 6.020118 0.179500
v -0.179500 6.020118 0.074351
vn 0.7071 -0.0000 0.7071
vn -1.0000 -0.0000 -0.0000
vn -0.7071 -0.0000 0.7071
vn -0.0000 -0.0000 1.0000
vn 1.0000 -0.0000 -0.0000
vt 0.592630 0.107011
vt 0.592630 0.028372
vt 0.650863 0.106772
vt 0.534396 0.107011
vt 0.534396 0.028372
vt 0.592630 0.106772
vt 0.476162 0.146211
vt 0.534396 0.146211
vt 0.534396 0.256948
vt 0.650863 0.028372
vt 0.534396 0.185412
vt 0.534396 0.146211
vt 0.592630 0.146211
vt 0.476162 0.256948
vt 0.592630 0.028372
vt 0.476162 0.185412
s 0
usemtl rails
f 18/42/10 17/41/10 19/44/10 20/45/10
f 22/48/11 24/51/11 28/56/11 21/47/11
f 24/51/12 23/49/12 27/54/12 28/56/12
f 23/50/13 18/43/13 20/46/13 27/55/13
f 17/41/14 26/53/14 25/52/14 19/44/14
o RAIL_RIGHT
v 0.074351 5.918628 -0.179500
v 0.179500 5.918628 -0.074351
v 0.074351 6.020117 -0.179500
v 0.179500 6.020117 -0.074351
v -0.179500 6.020118 0.000000
v -0.179500 5.918629 0.000000
v -0.179500 5.918629 -0.074351
v -0.074351 5.918629 -0.179500
v 0.179500 6.020117 0.000000
v 0.179500 5.918628 0.000000
v -0.179500 6.020118 -0.074351
v -0.074351 6.020118 -0.179500
vn 0.7071 -0.0000 -0.7071
vn 1.0000 -0.0000 -0.0000
vn -0.7071 -0.0000 -0.7071
vn -0.0000 -0.0000 -1.0000
vn -1.0000 -0.0000 -0.0000
vt 0.592630 0.256948
vt 0.709097 0.028372
vt 0.592630 0.185412
vt 0.534396 0.256948
vt 0.650863 0.028372
vt 0.534396 0.185412
vt 0.476162 0.146211
vt 0.534396 0.146211
vt 0.534396 0.107011
vt 0.534396 0.028372
vt 0.709097 0.106772
vt 0.534396 0.146211
vt 0.592630 0.146211
vt 0.476162 0.107011
vt 0.476162 0.028372
vt 0.650863 0.106772
s 0
usemtl rails
f 30/59/15 29/57/15 31/60/15 32/62/15
f 38/69/16 30/59/16 32/62/16 37/68/16
f 36/66/17 35/65/17 39/70/17 40/71/17
f 29/58/18 36/67/18 40/72/18 31/61/18
f 35/65/19 34/64/19 33/63/19 39/70/19
