# Blender v2.75 (sub 0) OBJ File: 'monorail_track.blend'
# www.blender.org
mtllib wdw_beamway.mtl
o RAIL_BASE.002_Cube.002
v -0.500000 0.155551 0.330200
v 0.500000 0.155551 0.330200
v -0.500000 0.155551 0.000000
v 0.500000 0.155551 0.000000
vt 1.003098 1.000000
vt 1.003098 0.820312
vt 0.000000 0.820313
vt 0.000000 1.000000
vn 0.000000 1.000000 0.000000
usemtl Base_color
s off
f 3/1/1 1/2/1 2/3/1
f 4/4/1 3/1/1 2/3/1
o RAIL_LEFT_Cylinder.003
v -0.500000 0.168251 0.330200
v 0.500000 0.168251 0.330200
v -0.500000 0.168251 0.000000
v 0.500000 0.168251 0.000000
v -0.035497 -0.980610 0.504745
v -0.035497 -0.921563 0.504745
v 0.028119 -0.927699 0.444043
v 0.028119 -0.974474 0.444043
v 0.035497 -0.980610 0.504745
v 0.035497 -0.921563 0.504745
v -0.028119 -0.927699 0.444043
v -0.028119 -0.974474 0.444043
v -0.500000 -0.951462 0.470238
v 0.500061 -0.951462 0.470238
v -0.500000 -0.965030 0.472937
v 0.500061 -0.965030 0.472937
v -0.500000 -0.976533 0.480623
v 0.500061 -0.976533 0.480623
v -0.500000 -0.984219 0.492126
v 0.500061 -0.984219 0.492126
v -0.500000 -0.986918 0.505695
v 0.500061 -0.986918 0.505695
v -0.500000 -0.984219 0.519263
v 0.500061 -0.984219 0.519263
v -0.500000 -0.976533 0.530766
v 0.500061 -0.976533 0.530766
v -0.500000 -0.965030 0.538452
v 0.500061 -0.965030 0.538452
v -0.500000 -0.951462 0.541151
v 0.500061 -0.951462 0.541151
v -0.500000 -0.937893 0.538452
v 0.500061 -0.937893 0.538452
v -0.500000 -0.926390 0.530766
v 0.500061 -0.926390 0.530766
v -0.500000 -0.918704 0.519263
v 0.500061 -0.918704 0.519263
v -0.500000 -0.916005 0.505695
v 0.500061 -0.916005 0.505695
v -0.500000 -0.918704 0.492126
v 0.500061 -0.918704 0.492126
v -0.500000 -0.926390 0.480623
v 0.500061 -0.926390 0.480623
v -0.500000 -0.937893 0.472937
v 0.500061 -0.937893 0.472937
v -0.035497 -0.980610 0.349613
v -0.035497 -0.921563 0.349613
v 0.035497 -0.921563 0.288912
v 0.035497 -0.980610 0.288912
v 0.035497 -0.980610 0.349613
v 0.035497 -0.921563 0.349613
v -0.035497 -0.921563 0.288912
v -0.035497 -0.980610 0.288912
v -0.000000 -0.930367 0.448370
v -0.000000 -0.930367 0.341416
v 0.010588 -0.933204 0.448370
v 0.010588 -0.933204 0.341416
v 0.018339 -0.940955 0.448370
v 0.018339 -0.940955 0.341416
v 0.021176 -0.951542 0.448370
v 0.021176 -0.951542 0.341416
v 0.018339 -0.962130 0.448370
v 0.018339 -0.962130 0.341416
v 0.010588 -0.969881 0.448370
v 0.010588 -0.969881 0.341416
v -0.000000 -0.972718 0.448370
v -0.000000 -0.972718 0.341416
v -0.010588 -0.969881 0.448370
v -0.010588 -0.969881 0.341416
v -0.018339 -0.962130 0.448370
v -0.018339 -0.962130 0.341416
v -0.021176 -0.951542 0.448370
v -0.021176 -0.951542 0.341416
v -0.018339 -0.940955 0.448370
v -0.018339 -0.940955 0.341416
v -0.010588 -0.933204 0.448370
v -0.010588 -0.933204 0.341416
vt 1.003098 1.000000
vt 1.003098 0.820312
vt 0.000000 0.820313
vt 0.320450 0.199938
vt 0.371064 0.199938
vt 0.371064 0.167532
vt 0.371064 0.138894
vt 0.320450 0.138894
vt 0.320450 0.232345
vt 0.320450 0.110257
vt 0.006912 0.037595
vt 0.006912 0.052330
vt 0.313874 0.052329
vt 0.006912 0.109026
vt 0.006912 0.120303
vt 0.313874 0.120303
vt 0.006912 0.135038
vt 0.313874 0.134100
vt 0.006912 0.150986
vt 0.313874 0.150986
vt 0.006912 0.165721
vt 0.313874 0.165721
vt 0.006912 0.176999
vt 0.313874 0.176999
vt 0.006912 0.191733
vt 0.313874 0.191733
vt 0.006912 0.207682
vt 0.313874 0.207682
vt 0.006912 0.222417
vt 0.313874 0.222416
vt 0.006912 0.233694
vt 0.313874 0.233694
vt 0.006912 0.067064
vt 0.313874 0.067064
vt 0.006912 0.083013
vt 0.313874 0.083013
vt 0.006912 0.097748
vt 0.313874 0.097748
vt 0.313874 0.109025
vt 0.376443 0.029206
vt 0.359787 0.069417
vt 0.319576 0.052761
vt 0.006912 0.021646
vt 0.313874 0.037595
vt 0.006912 0.006912
vt 0.313874 0.021646
vt 0.378785 0.040983
vt 0.369771 0.019221
vt 0.317233 0.040983
vt 0.395437 0.193016
vt 0.433663 0.193016
vt 0.433663 0.168541
vt 0.433663 0.146913
vt 0.395437 0.146913
vt 0.395437 0.217491
vt 0.395437 0.125284
vt 0.429037 0.123251
vt 0.429037 0.098799
vt 0.399637 0.098799
vt 0.967592 0.313487
vt 0.901654 0.313487
vt 0.901654 0.318712
vt 0.967592 0.307453
vt 0.901654 0.307453
vt 0.967592 0.302228
vt 0.901654 0.302228
vt 0.967592 0.329972
vt 0.901654 0.329972
vt 0.901654 0.335197
vt 0.967592 0.323938
vt 0.901654 0.323938
vt 0.967592 0.318712
vt 0.901654 0.285743
vt 0.901654 0.290969
vt 0.967592 0.290969
vt 0.901654 0.297002
vt 0.967592 0.297003
vt 0.901654 0.274484
vt 0.967592 0.274484
vt 0.967592 0.269259
vt 0.967592 0.285743
vt 0.967592 0.280518
vt 0.901654 0.280518
vt 0.000000 1.000000
vt 0.320450 0.167532
vt 0.371064 0.232345
vt 0.371064 0.110257
vt 0.359787 0.012550
vt 0.336232 0.012550
vt 0.348009 0.010207
vt 0.319576 0.029206
vt 0.326247 0.019221
vt 0.336232 0.069417
vt 0.326247 0.062745
vt 0.348009 0.071759
vt 0.376443 0.052761
vt 0.369771 0.062745
vt 0.313874 0.006911
vt 0.395437 0.168541
vt 0.433663 0.217491
vt 0.433663 0.125284
vt 0.399637 0.123251
vt 0.967592 0.335197
vt 0.901654 0.269259
vn 0.000000 1.000000 0.000000
vn -0.992700 0.000000 -0.120700
vn 0.000000 -0.994900 -0.100600
vn 0.992700 0.000000 -0.120700
vn 0.000000 0.994900 -0.100600
vn 0.000000 -0.195100 -0.980800
vn 0.000000 -0.555600 -0.831500
vn 0.000000 -0.831500 -0.555600
vn 0.000000 -0.980800 -0.195100
vn 0.000000 -0.980800 0.195100
vn 0.000000 -0.831500 0.555600
vn 0.000000 -0.555600 0.831500
vn 0.000000 -0.195100 0.980800
vn 0.000000 0.195100 0.980800
vn 0.000000 0.555600 0.831500
vn 0.000000 0.831500 0.555600
vn 0.000000 0.980800 0.195100
vn 0.000000 0.980800 -0.195100
vn 0.000000 0.831500 -0.555600
vn 1.000000 -0.000000 0.000000
vn 0.000000 0.195100 -0.980800
vn 0.000000 0.555600 -0.831500
vn -1.000000 0.000000 0.000000
vn 0.000000 -1.000000 0.000000
vn 0.000000 0.000000 1.000000
vn 0.258800 0.965900 0.000000
vn 0.707100 0.707100 0.000000
vn 0.965900 0.258800 0.000000
vn 0.965900 -0.258800 0.000000
vn 0.707100 -0.707100 0.000000
vn 0.258800 -0.965900 0.000000
vn -0.258800 -0.965900 0.000000
vn -0.707100 -0.707100 -0.000000
vn -0.965900 -0.258800 0.000000
vn -0.965900 0.258800 0.000000
vn -0.258800 0.965900 0.000000
vn -0.707100 0.707100 0.000000
usemtl Base_color
s off
f 7/5/2 5/6/2 6/7/2
f 10/8/3 15/9/3 16/10/3
f 16/10/4 12/11/4 13/12/4
f 13/9/5 12/8/5 11/13/5
f 11/14/6 15/12/6 10/11/6
f 18/15/7 20/16/7 19/17/7
f 20/18/8 22/19/8 21/20/8
f 22/19/9 24/21/9 23/22/9
f 24/21/10 26/23/10 25/24/10
f 26/23/11 28/25/11 27/26/11
f 28/25/12 30/27/12 29/28/12
f 30/27/13 32/29/13 31/30/13
f 32/29/14 34/31/14 33/32/14
f 34/31/15 36/33/15 35/34/15
f 36/33/16 38/35/16 37/36/16
f 38/16/17 40/37/17 39/38/17
f 40/37/18 42/39/18 41/40/18
f 42/39/19 44/41/19 43/42/19
f 44/41/20 46/18/20 45/43/20
f 20/44/21 44/45/21 36/46/21
f 48/47/22 18/15/22 17/48/22
f 46/49/23 48/47/23 47/50/23
f 17/51/24 21/52/24 33/53/24
f 50/54/24 55/55/24 56/56/24
f 56/56/25 52/57/25 53/58/25
f 53/55/21 52/54/21 51/59/21
f 51/60/2 55/58/2 50/57/2
f 53/61/26 54/62/26 50/63/26
f 59/64/27 60/65/27 58/66/27
f 61/67/28 62/68/28 60/65/28
f 63/69/29 64/70/29 62/68/29
f 65/71/30 66/72/30 64/73/30
f 67/74/31 68/75/31 66/72/31
f 69/76/32 70/66/32 68/75/32
f 69/77/33 71/78/33 72/79/33
f 73/80/34 74/81/34 72/79/34
f 75/70/35 76/69/35 74/81/35
f 77/82/36 78/83/36 76/84/36
f 57/77/37 58/85/37 80/86/37
f 79/87/38 80/86/38 78/83/38
f 8/88/2 7/5/2 6/7/2
f 9/89/3 10/8/3 16/10/3
f 9/89/4 16/10/4 13/12/4
f 14/90/5 13/9/5 11/13/5
f 14/91/6 11/14/6 10/11/6
f 17/48/7 18/15/7 19/17/7
f 19/43/8 20/18/8 21/20/8
f 21/20/9 22/19/9 23/22/9
f 23/22/10 24/21/10 25/24/10
f 25/24/11 26/23/11 27/26/11
f 27/26/12 28/25/12 29/28/12
f 29/28/13 30/27/13 31/30/13
f 31/30/14 32/29/14 33/32/14
f 33/32/15 34/31/15 35/34/15
f 35/34/16 36/33/16 37/36/16
f 37/17/17 38/16/17 39/38/17
f 39/38/18 40/37/18 41/40/18
f 41/40/19 42/39/19 43/42/19
f 43/42/20 44/41/20 45/43/20
f 24/92/21 22/52/21 20/44/21
f 28/93/21 26/94/21 24/92/21
f 32/95/21 30/96/21 28/93/21
f 36/46/21 34/53/21 32/95/21
f 40/97/21 38/98/21 36/46/21
f 44/45/21 42/99/21 40/97/21
f 48/100/21 46/101/21 44/45/21
f 44/45/21 18/51/21 48/100/21
f 36/46/21 24/92/21 20/44/21
f 36/46/21 32/95/21 28/93/21
f 44/45/21 40/97/21 36/46/21
f 20/44/21 18/51/21 44/45/21
f 36/46/21 28/93/21 24/92/21
f 47/50/22 48/47/22 17/48/22
f 45/102/23 46/49/23 47/50/23
f 45/101/24 47/100/24 17/51/24
f 17/51/24 43/45/24 45/101/24
f 37/98/24 39/97/24 41/99/24
f 41/99/24 35/46/24 37/98/24
f 25/94/24 31/95/24 33/53/24
f 25/94/24 27/93/24 29/96/24
f 21/52/24 23/92/24 25/94/24
f 17/51/24 19/44/24 21/52/24
f 41/99/24 43/45/24 17/51/24
f 33/53/24 35/46/24 41/99/24
f 25/94/24 29/96/24 31/95/24
f 33/53/24 21/52/24 25/94/24
f 33/53/24 41/99/24 17/51/24
f 49/103/24 50/54/24 56/56/24
f 49/103/25 56/56/25 53/58/25
f 54/104/21 53/55/21 51/59/21
f 54/105/2 51/60/2 50/57/2
f 49/106/26 53/61/26 50/63/26
f 57/76/27 59/64/27 58/66/27
f 59/64/28 61/67/28 60/65/28
f 61/67/29 63/69/29 62/68/29
f 63/107/30 65/71/30 64/73/30
f 65/71/31 67/74/31 66/72/31
f 67/74/32 69/76/32 68/75/32
f 70/85/33 69/77/33 72/79/33
f 71/78/34 73/80/34 72/79/34
f 73/80/35 75/70/35 74/81/35
f 75/108/36 77/82/36 76/84/36
f 79/87/37 57/77/37 80/86/37
f 77/82/38 79/87/38 78/83/38
o RAIL_RIGHT_Cylinder.002
v -0.500000 0.168251 -0.330200
v 0.500000 0.168251 -0.330200
v -0.500000 0.168251 0.000000
v 0.500000 0.168251 0.000000
v -0.035497 -0.980610 -0.504745
v -0.035497 -0.921563 -0.504745
v 0.028119 -0.927699 -0.444043
v 0.028119 -0.974474 -0.444043
v 0.035497 -0.980610 -0.504745
v 0.035497 -0.921563 -0.504745
v -0.028119 -0.927699 -0.444043
v -0.028119 -0.974474 -0.444043
v -0.500000 -0.951462 -0.470238
v 0.500061 -0.951462 -0.470238
v -0.500000 -0.965030 -0.472937
v 0.500061 -0.965030 -0.472937
v -0.500000 -0.976533 -0.480623
v 0.500061 -0.976533 -0.480623
v -0.500000 -0.984219 -0.492126
v 0.500061 -0.984219 -0.492126
v -0.500000 -0.986918 -0.505695
v 0.500061 -0.986918 -0.505695
v -0.500000 -0.984219 -0.519263
v 0.500061 -0.984219 -0.519263
v -0.500000 -0.976533 -0.530766
v 0.500061 -0.976533 -0.530766
v -0.500000 -0.965030 -0.538452
v 0.500061 -0.965030 -0.538452
v -0.500000 -0.951462 -0.541151
v 0.500061 -0.951462 -0.541151
v -0.500000 -0.937893 -0.538452
v 0.500061 -0.937893 -0.538452
v -0.500000 -0.926390 -0.530766
v 0.500061 -0.926390 -0.530766
v -0.500000 -0.918704 -0.519263
v 0.500061 -0.918704 -0.519263
v -0.500000 -0.916005 -0.505695
v 0.500061 -0.916005 -0.505695
v -0.500000 -0.918704 -0.492126
v 0.500061 -0.918704 -0.492126
v -0.500000 -0.926390 -0.480623
v 0.500061 -0.926390 -0.480623
v -0.500000 -0.937893 -0.472937
v 0.500061 -0.937893 -0.472937
v -0.035497 -0.980610 -0.349613
v -0.035497 -0.921563 -0.349613
v 0.035497 -0.921563 -0.288912
v 0.035497 -0.980610 -0.288912
v 0.035497 -0.980610 -0.349613
v 0.035497 -0.921563 -0.349613
v -0.035497 -0.921563 -0.288912
v -0.035497 -0.980610 -0.288912
v -0.000000 -0.930367 -0.448370
v -0.000000 -0.930367 -0.341416
v 0.010588 -0.933204 -0.448370
v 0.010588 -0.933204 -0.341416
v 0.018339 -0.940955 -0.448370
v 0.018339 -0.940955 -0.341416
v 0.021176 -0.951542 -0.448370
v 0.021176 -0.951542 -0.341416
v 0.018339 -0.962130 -0.448370
v 0.018339 -0.962130 -0.341416
v 0.010588 -0.969881 -0.448370
v 0.010588 -0.969881 -0.341416
v -0.000000 -0.972718 -0.448370
v -0.000000 -0.972718 -0.341416
v -0.010588 -0.969881 -0.448370
v -0.010588 -0.969881 -0.341416
v -0.018339 -0.962130 -0.448370
v -0.018339 -0.962130 -0.341416
v -0.021176 -0.951542 -0.448370
v -0.021176 -0.951542 -0.341416
v -0.018339 -0.940955 -0.448370
v -0.018339 -0.940955 -0.341416
v -0.010588 -0.933204 -0.448370
v -0.010588 -0.933204 -0.341416
v -0.035497 -0.921563 -0.349613
v -0.035497 -0.921563 -0.288912
v 0.035497 -0.921563 -0.288912
v 0.035497 -0.921563 -0.349613
vt 0.000000 0.000000
vt 0.395437 0.217491
vt 0.395437 0.146913
vt 0.433663 0.193016
vt 0.000000 0.820313
vt 1.003098 0.820312
vt 1.003098 1.000000
vt 0.371064 0.167532
vt 0.371064 0.199938
vt 0.320450 0.199938
vt 0.320450 0.138894
vt 0.371064 0.138894
vt 0.320450 0.232345
vt 0.320450 0.110257
vt 0.313874 0.052329
vt 0.006912 0.052330
vt 0.006912 0.037595
vt 0.313874 0.120303
vt 0.006912 0.120303
vt 0.006912 0.109026
vt 0.313874 0.134100
vt 0.006912 0.135038
vt 0.313874 0.150986
vt 0.006912 0.150986
vt 0.313874 0.165721
vt 0.006912 0.165721
vt 0.313874 0.176999
vt 0.006912 0.176999
vt 0.313874 0.191733
vt 0.006912 0.191733
vt 0.313874 0.207682
vt 0.006912 0.207682
vt 0.313874 0.222416
vt 0.006912 0.222417
vt 0.313874 0.233694
vt 0.006912 0.233694
vt 0.313874 0.067064
vt 0.006912 0.067064
vt 0.313874 0.083013
vt 0.006912 0.083013
vt 0.313874 0.097748
vt 0.006912 0.097748
vt 0.313874 0.109025
vt 0.376443 0.029206
vt 0.359787 0.012550
vt 0.319576 0.052761
vt 0.313874 0.037595
vt 0.006912 0.021646
vt 0.313874 0.021646
vt 0.006912 0.006912
vt 0.348009 0.010207
vt 0.348009 0.071759
vt 0.317233 0.040983
vt 0.433663 0.168541
vt 0.395437 0.193016
vt 0.433663 0.146913
vt 0.433663 0.217491
vt 0.399637 0.098799
vt 0.429037 0.098799
vt 0.429037 0.123251
vt 0.901654 0.318712
vt 0.901654 0.313487
vt 0.967592 0.313487
vt 0.901654 0.307453
vt 0.967592 0.307453
vt 0.901654 0.302228
vt 0.967592 0.302228
vt 0.901654 0.335197
vt 0.901654 0.329972
vt 0.967592 0.329972
vt 0.901654 0.323938
vt 0.967592 0.323938
vt 0.967592 0.318712
vt 0.901654 0.285743
vt 0.967592 0.285743
vt 0.967592 0.290969
vt 0.967592 0.297003
vt 0.901654 0.297002
vt 0.967592 0.269259
vt 0.967592 0.274484
vt 0.901654 0.274484
vt 0.967592 0.280518
vt 0.901654 0.280518
vt 0.395437 0.125284
vt 0.000000 1.000000
vt 0.320450 0.167532
vt 0.371064 0.232345
vt 0.371064 0.110257
vt 0.359787 0.069417
vt 0.378785 0.040983
vt 0.369771 0.062745
vt 0.376443 0.052761
vt 0.336232 0.069417
vt 0.326247 0.062745
vt 0.319576 0.029206
vt 0.336232 0.012550
vt 0.326247 0.019221
vt 0.369771 0.019221
vt 0.313874 0.006911
vt 0.395437 0.168541
vt 0.399637 0.123251
vt 0.967592 0.335197
vt 0.901654 0.290969
vt 0.901654 0.269259
vt 0.433663 0.125284
vn 0.000000 0.000000 1.000000
vn 0.000000 1.000000 0.000000
vn -0.992700 0.000000 0.120700
vn 0.000000 -0.994900 0.100600
vn 0.992700 0.000000 0.120700
vn 0.000000 0.994900 0.100600
vn 0.000000 -0.195100 0.980800
vn 0.000000 -0.555600 0.831500
vn 0.000000 -0.831500 0.555600
vn 0.000000 -0.980800 0.195100
vn 0.000000 -0.980800 -0.195100
vn 0.000000 -0.831500 -0.555600
vn 0.000000 -0.555600 -0.831500
vn 0.000000 -0.195100 -0.980800
vn 0.000000 0.195100 -0.980800
vn 0.000000 0.555600 -0.831500
vn 0.000000 0.831500 -0.555600
vn 0.000000 0.980800 -0.195100
vn 0.000000 0.980800 0.195100
vn 0.000000 0.831500 0.555600
vn 1.000000 0.000000 0.000000
vn 0.000000 0.195100 0.980800
vn 0.000000 0.555600 0.831500
vn -1.000000 0.000000 0.000000
vn 0.000000 -1.000000 0.000000
vn 0.000000 0.000000 -1.000000
vn 0.258800 0.965900 0.000000
vn 0.707100 0.707100 0.000000
vn 0.965900 0.258800 0.000000
vn 0.965900 -0.258800 0.000000
vn 0.707100 -0.707100 0.000000
vn 0.258800 -0.965900 0.000000
vn -0.258800 -0.965900 0.000000
vn -0.707100 -0.707100 0.000000
vn -0.965900 -0.258800 0.000000
vn -0.965900 0.258800 0.000000
vn -0.258800 0.965900 0.000000
vn -0.707100 0.707100 0.000000
usemtl Base_color_NONE
s off
f 131/109/39 127/110/39 159/111/39
f 158/112/39 131/109/39 159/111/39
usemtl Base_color
f 82/113/40 81/114/40 83/115/40
f 92/116/41 91/117/41 86/118/41
f 89/119/42 88/120/42 92/116/42
f 87/121/43 88/118/43 89/117/43
f 86/120/44 91/119/44 87/122/44
f 95/123/45 96/124/45 94/125/45
f 97/126/46 98/127/46 96/128/46
f 99/129/47 100/130/47 98/127/47
f 101/131/48 102/132/48 100/130/48
f 103/133/49 104/134/49 102/132/49
f 105/135/50 106/136/50 104/134/50
f 107/137/51 108/138/51 106/136/51
f 109/139/52 110/140/52 108/138/52
f 111/141/53 112/142/53 110/140/53
f 113/143/54 114/144/54 112/142/54
f 115/145/55 116/146/55 114/124/55
f 117/147/56 118/148/56 116/146/56
f 119/149/57 120/150/57 118/148/57
f 121/151/58 122/128/58 120/150/58
f 96/152/59 100/153/59 112/154/59
f 93/155/60 94/125/60 124/156/60
f 123/157/61 124/156/61 122/158/61
f 101/159/62 117/160/62 109/161/62
f 132/162/62 131/112/62 126/163/62
f 129/111/63 128/164/63 132/162/63
f 127/110/59 128/163/59 129/112/59
f 127/110/39 130/165/39 160/165/39
f 126/166/64 130/167/64 129/168/64
f 134/169/65 136/170/65 135/171/65
f 136/170/66 138/172/66 137/173/66
f 138/172/67 140/174/67 139/175/67
f 140/176/68 142/177/68 141/178/68
f 142/177/69 144/179/69 143/180/69
f 144/179/70 146/169/70 145/181/70
f 145/182/71 146/183/71 148/184/71
f 148/184/72 150/185/72 149/186/72
f 150/185/73 152/175/73 151/174/73
f 152/187/74 154/188/74 153/189/74
f 156/190/75 134/183/75 133/182/75
f 154/188/76 156/190/76 155/191/76
f 157/164/40 158/111/40 159/192/40
f 130/167/39 126/166/39 157/166/39
f 126/163/39 131/112/39 158/112/39
f 84/193/40 82/113/40 83/115/40
f 85/194/41 92/116/41 86/118/41
f 85/194/42 89/119/42 92/116/42
f 90/195/43 87/121/43 89/117/43
f 90/196/44 86/120/44 87/122/44
f 93/155/45 95/123/45 94/125/45
f 95/151/46 97/126/46 96/128/46
f 97/126/47 99/129/47 98/127/47
f 99/129/48 101/131/48 100/130/48
f 101/131/49 103/133/49 102/132/49
f 103/133/50 105/135/50 104/134/50
f 105/135/51 107/137/51 106/136/51
f 107/137/52 109/139/52 108/138/52
f 109/139/53 111/141/53 110/140/53
f 111/141/54 113/143/54 112/142/54
f 113/123/55 115/145/55 114/124/55
f 115/145/56 117/147/56 116/146/56
f 117/147/57 119/149/57 118/148/57
f 119/149/58 121/151/58 120/150/58
f 120/197/59 94/198/59 96/152/59
f 120/197/59 122/199/59 124/200/59
f 116/201/59 118/160/59 120/197/59
f 112/154/59 114/202/59 116/201/59
f 108/203/59 110/161/59 112/154/59
f 104/204/59 106/205/59 108/203/59
f 100/153/59 102/159/59 104/204/59
f 96/152/59 98/206/59 100/153/59
f 120/197/59 124/200/59 94/198/59
f 112/154/59 116/201/59 120/197/59
f 104/204/59 108/203/59 112/154/59
f 112/154/59 100/153/59 104/204/59
f 112/154/59 120/197/59 96/152/59
f 123/157/60 93/155/60 124/156/60
f 121/207/61 123/157/61 122/158/61
f 97/206/62 95/152/62 93/198/62
f 93/198/62 99/153/62 97/206/62
f 105/205/62 103/204/62 101/159/62
f 101/159/62 107/203/62 105/205/62
f 117/160/62 111/154/62 109/161/62
f 117/160/62 115/201/62 113/202/62
f 93/198/62 119/197/62 117/160/62
f 93/198/62 123/200/62 121/199/62
f 101/159/62 99/153/62 93/198/62
f 109/161/62 107/203/62 101/159/62
f 117/160/62 113/202/62 111/154/62
f 93/198/62 121/199/62 119/197/62
f 117/160/62 101/159/62 93/198/62
f 125/208/62 132/162/62 126/163/62
f 125/208/63 129/111/63 132/162/63
f 130/165/59 127/110/59 129/112/59
f 159/110/39 127/110/39 160/165/39
f 125/209/64 126/166/64 129/168/64
f 133/181/65 134/169/65 135/171/65
f 135/171/66 136/170/66 137/173/66
f 137/173/67 138/172/67 139/175/67
f 139/210/68 140/176/68 141/178/68
f 141/178/69 142/177/69 143/180/69
f 143/180/70 144/179/70 145/181/70
f 147/211/71 145/182/71 148/184/71
f 147/211/72 148/184/72 149/186/72
f 149/186/73 150/185/73 151/174/73
f 151/212/74 152/187/74 153/189/74
f 155/191/75 156/190/75 133/182/75
f 153/189/76 154/188/76 155/191/76
f 160/213/40 157/164/40 159/192/40
f 160/167/39 130/167/39 157/166/39
f 157/163/39 126/163/39 158/112/39
o RAIL_BASE_Cube
v -0.500000 -1.076349 -0.330200
v -0.500000 0.155551 -0.330200
v 0.500000 -1.076349 -0.330200
v 0.500000 0.155551 -0.330200
v -0.500000 -1.076349 0.330200
v -0.500000 0.155551 0.330200
v 0.500000 -1.076349 0.330200
v 0.500000 0.155551 0.330200
v -0.500000 0.155551 0.000000
v -0.500000 -1.076349 0.000000
v 0.500000 0.155551 0.000000
v 0.500000 -1.076349 0.000000
vt 0.174918 0.254556
vt 0.790868 0.254556
vt 0.790868 0.386734
vt -0.000000 0.810267
vt 0.000000 0.253714
vt 0.478709 0.253714
vt 0.992535 0.407153
vt 0.492535 0.407153
vt 0.492535 0.250999
vt 0.000000 0.820313
vt 1.003098 0.820312
vt 1.003098 1.000000
vt 0.174918 0.386734
vt 0.478709 0.810267
vt 0.992535 0.250999
vt 0.000000 1.000000
vn -1.000000 0.000000 0.000000
vn 0.000000 0.000000 -1.000000
vn 0.000000 -1.000000 0.000000
vn 0.000000 1.000000 0.000000
vn 1.000000 0.000000 0.000000
vn 0.000000 0.000000 1.000000
usemtl Base_color
s off
f 162/214/77 161/215/77 170/216/77
f 164/217/78 163/218/78 161/219/78
f 161/220/79 163/221/79 172/222/79
f 164/223/80 162/224/80 169/225/80
f 171/216/81 172/226/81 163/214/81
f 170/216/77 165/215/77 166/214/77
f 165/219/82 167/218/82 168/217/82
f 172/222/79 167/221/79 165/220/79
f 169/225/80 166/224/80 168/223/80
f 167/214/81 172/226/81 171/216/81
f 169/226/77 162/214/77 170/216/77
f 162/227/78 164/217/78 161/219/78
f 170/228/79 161/220/79 172/222/79
f 171/229/80 164/223/80 169/225/80
f 164/215/81 171/216/81 163/214/81
f 169/226/77 170/216/77 166/214/77
f 166/227/82 165/219/82 168/217/82
f 170/228/79 172/222/79 165/220/79
f 171/229/80 169/225/80 168/223/80
f 168/215/81 167/214/81 171/216/81
